<?xml version="1.0" encoding="utf-8"?>
<!-- Generator: Adobe Illustrator 26.5.0, SVG Export Plug-In . SVG Version: 6.00 Build 0)  -->
<svg version="1.1" id="Layer_1" xmlns="http://www.w3.org/2000/svg" xmlns:xlink="http://www.w3.org/1999/xlink" x="0px" y="0px"
	 viewBox="0 0 290 71.8" style="enable-background:new 0 0 290 71.8;" xml:space="preserve">
<g>
	<g>
		<path d="M70.4,62.7c-1.4,0-2.5-0.4-3.3-1.2c-0.8-0.8-1.2-1.9-1.2-3.4v-6.3h1.3V58c0,1.2,0.3,2.1,0.8,2.7c0.5,0.6,1.3,0.9,2.4,0.9
			c1.1,0,1.9-0.3,2.4-0.9c0.5-0.6,0.8-1.5,0.8-2.7v-6.2h1.3v6.3c0,1.4-0.4,2.6-1.2,3.4C72.9,62.3,71.8,62.7,70.4,62.7z"/>
		<path d="M76.9,55.5H78l0,1.2c0.2-0.5,0.5-0.8,0.9-1.1c0.4-0.3,0.9-0.4,1.4-0.4c0.8,0,1.5,0.3,1.9,0.8c0.4,0.5,0.7,1.3,0.7,2.2v4.2
			h-1.2v-4c0-0.7-0.1-1.3-0.4-1.6c-0.3-0.4-0.7-0.5-1.3-0.5c-0.6,0-1.1,0.2-1.5,0.6c-0.4,0.4-0.5,1-0.5,1.7v3.9h-1.2V55.5z"/>
		<path d="M88.1,62.7c-1.2,0-2.1-0.3-2.8-1c-0.7-0.7-1-1.6-1-2.7c0-0.7,0.1-1.3,0.4-1.9c0.3-0.6,0.7-1,1.2-1.4
			c0.5-0.3,1.1-0.5,1.8-0.5c0.9,0,1.7,0.3,2.3,1c0.6,0.6,0.9,1.5,0.9,2.5c0,0.1,0,0.2,0,0.3c0,0.1,0,0.2,0,0.3h-5.4
			c0.1,0.7,0.4,1.3,0.8,1.7s1.1,0.6,1.9,0.6c0.8,0,1.6-0.2,2.4-0.6l0.1,1c-0.3,0.2-0.7,0.4-1.2,0.5C89.1,62.6,88.6,62.7,88.1,62.7z
			 M89.7,58.4c0-0.7-0.2-1.2-0.6-1.6c-0.4-0.4-0.9-0.6-1.5-0.6c-0.6,0-1.1,0.2-1.5,0.6c-0.4,0.4-0.6,0.9-0.7,1.6H89.7z"/>
		<path d="M96.5,62.7c-0.4,0-0.9-0.1-1.3-0.2c-0.4-0.1-0.8-0.3-1-0.5l0.2-1.1c0.3,0.2,0.6,0.4,1,0.5c0.4,0.1,0.8,0.2,1.1,0.2
			c0.5,0,0.9-0.1,1.2-0.3c0.3-0.2,0.4-0.4,0.4-0.7c0-0.2,0-0.4-0.1-0.5c-0.1-0.1-0.3-0.3-0.5-0.4c-0.2-0.1-0.6-0.2-1-0.4
			c-0.8-0.2-1.3-0.5-1.7-0.8c-0.3-0.3-0.5-0.8-0.5-1.3c0-0.6,0.2-1.1,0.7-1.5c0.5-0.4,1.1-0.6,1.9-0.6c0.4,0,0.8,0.1,1.1,0.2
			c0.4,0.1,0.7,0.2,1,0.4l-0.2,1c-0.6-0.4-1.2-0.6-1.9-0.6c-0.5,0-0.8,0.1-1.1,0.2c-0.3,0.2-0.4,0.4-0.4,0.7c0,0.3,0.1,0.5,0.3,0.7
			c0.2,0.2,0.6,0.3,1.2,0.5c0.9,0.3,1.5,0.6,1.9,0.9c0.4,0.3,0.5,0.8,0.5,1.4c0,0.6-0.3,1.1-0.8,1.5C98,62.5,97.4,62.7,96.5,62.7z"
			/>
		<path d="M103.7,62.7c-0.7,0-1.3-0.2-1.8-0.5c-0.6-0.3-1-0.8-1.3-1.3c-0.3-0.6-0.5-1.2-0.5-1.9c0-0.7,0.2-1.3,0.5-1.8
			c0.3-0.6,0.8-1,1.3-1.4c0.6-0.3,1.2-0.5,1.9-0.5c0.7,0,1.3,0.2,1.8,0.5c0.6,0.3,1,0.8,1.3,1.3c0.3,0.6,0.5,1.2,0.5,1.9
			c0,0.7-0.2,1.3-0.5,1.8c-0.3,0.6-0.7,1-1.3,1.4C105.1,62.5,104.4,62.7,103.7,62.7z M103.7,61.6c0.7,0,1.3-0.2,1.8-0.7
			c0.5-0.5,0.7-1.1,0.7-1.9c0-0.8-0.2-1.4-0.7-1.9c-0.5-0.5-1-0.7-1.8-0.7c-0.7,0-1.3,0.2-1.8,0.7c-0.5,0.5-0.7,1.1-0.7,1.9
			c0,0.8,0.2,1.4,0.7,1.9C102.4,61.4,103,61.6,103.7,61.6z"/>
		<path d="M112.1,62.6c-0.7,0-1.4-0.1-2-0.4c-0.6-0.3-1-0.7-1.3-1.3c-0.3-0.6-0.5-1.2-0.5-1.9c0-0.7,0.2-1.4,0.5-1.9s0.8-1,1.3-1.3
			c0.6-0.3,1.2-0.5,2-0.5c0.4,0,0.7,0,1.1,0.1c0.4,0.1,0.7,0.2,1,0.4l-0.2,1c-0.3-0.1-0.6-0.3-0.9-0.3c-0.4-0.1-0.7-0.1-1-0.1
			c-0.8,0-1.4,0.2-1.9,0.7c-0.5,0.5-0.7,1.1-0.7,1.9c0,0.8,0.2,1.5,0.7,1.9c0.5,0.5,1.1,0.7,2,0.7c0.6,0,1.3-0.2,2-0.5l0.1,1
			c-0.3,0.2-0.6,0.3-1,0.4C112.8,62.6,112.4,62.6,112.1,62.6z"/>
		<path d="M116.2,53.6c-0.2,0-0.4-0.1-0.6-0.2c-0.2-0.2-0.2-0.4-0.2-0.6c0-0.2,0.1-0.4,0.2-0.6c0.2-0.2,0.3-0.2,0.6-0.2
			s0.4,0.1,0.6,0.2c0.2,0.2,0.2,0.4,0.2,0.6c0,0.2-0.1,0.4-0.2,0.6C116.6,53.5,116.4,53.6,116.2,53.6z M115.6,55.5h1.2v7h-1.2V55.5z
			"/>
		<path d="M122,62.7c-1.2,0-2.1-0.3-2.8-1c-0.7-0.7-1-1.6-1-2.7c0-0.7,0.1-1.3,0.4-1.9c0.3-0.6,0.7-1,1.2-1.4
			c0.5-0.3,1.1-0.5,1.8-0.5c0.9,0,1.7,0.3,2.3,1c0.6,0.6,0.9,1.5,0.9,2.5c0,0.1,0,0.2,0,0.3c0,0.1,0,0.2,0,0.3h-5.4
			c0.1,0.7,0.4,1.3,0.8,1.7c0.5,0.4,1.1,0.6,1.9,0.6c0.8,0,1.6-0.2,2.4-0.6l0.1,1c-0.3,0.2-0.7,0.4-1.2,0.5
			C123,62.6,122.5,62.7,122,62.7z M123.6,58.4c0-0.7-0.2-1.2-0.6-1.6c-0.4-0.4-0.9-0.6-1.5-0.6c-0.6,0-1.1,0.2-1.5,0.6
			c-0.4,0.4-0.6,0.9-0.7,1.6H123.6z M122,51.6h1.4l-1.8,2.3h-1.1L122,51.6z"/>
		<path d="M129,62.7c-0.8,0-1.4-0.2-1.8-0.6c-0.4-0.4-0.6-1.1-0.6-2v-3.6h-1.6v-1h1.6v-2h1.2v2h2.5v1h-2.5V60c0,0.6,0.1,1,0.3,1.3
			c0.2,0.3,0.5,0.4,1,0.4c0.4,0,0.9-0.1,1.4-0.4l0.1,1C130.3,62.6,129.7,62.7,129,62.7z"/>
		<path d="M135.1,62.7c-1.2,0-2.1-0.3-2.8-1c-0.7-0.7-1-1.6-1-2.7c0-0.7,0.1-1.3,0.4-1.9c0.3-0.6,0.7-1,1.2-1.4
			c0.5-0.3,1.1-0.5,1.8-0.5c0.9,0,1.7,0.3,2.3,1c0.6,0.6,0.9,1.5,0.9,2.5c0,0.1,0,0.2,0,0.3c0,0.1,0,0.2,0,0.3h-5.4
			c0.1,0.7,0.4,1.3,0.8,1.7s1.1,0.6,1.9,0.6c0.8,0,1.6-0.2,2.4-0.6l0.1,1c-0.3,0.2-0.7,0.4-1.2,0.5C136,62.6,135.6,62.7,135.1,62.7z
			 M136.7,58.4c0-0.7-0.2-1.2-0.6-1.6c-0.4-0.4-0.9-0.6-1.5-0.6c-0.6,0-1.1,0.2-1.5,0.6c-0.4,0.4-0.6,0.9-0.7,1.6H136.7z M135,51.6
			h1.4l-1.8,2.3h-1.1L135,51.6z"/>
		<path d="M144.6,62.7c-0.6,0-1.2-0.2-1.7-0.5c-0.5-0.3-0.9-0.7-1.2-1.3c-0.3-0.6-0.4-1.2-0.4-1.9c0-0.7,0.1-1.3,0.4-1.8
			c0.3-0.6,0.7-1,1.3-1.4c0.5-0.4,1.1-0.5,1.8-0.5c0.5,0,1,0.1,1.5,0.4c0.4,0.3,0.8,0.6,1.1,1.1v-5.6h1.2v11.4h-1.2l0-1.3
			c-0.3,0.5-0.6,0.9-1.1,1.1C145.7,62.6,145.2,62.7,144.6,62.7z M144.9,61.6c0.7,0,1.3-0.2,1.8-0.7c0.5-0.5,0.7-1.1,0.7-1.9
			c0-0.8-0.2-1.4-0.7-1.9c-0.5-0.5-1-0.7-1.8-0.7c-0.7,0-1.3,0.2-1.8,0.7c-0.5,0.5-0.7,1.1-0.7,1.9c0,0.8,0.2,1.4,0.7,1.9
			C143.6,61.4,144.2,61.6,144.9,61.6z"/>
		<path d="M153.7,62.7c-1.2,0-2.1-0.3-2.8-1c-0.7-0.7-1-1.6-1-2.7c0-0.7,0.1-1.3,0.4-1.9c0.3-0.6,0.7-1,1.2-1.4
			c0.5-0.3,1.1-0.5,1.8-0.5c0.9,0,1.7,0.3,2.3,1c0.6,0.6,0.9,1.5,0.9,2.5c0,0.1,0,0.2,0,0.3c0,0.1,0,0.2,0,0.3H151
			c0.1,0.7,0.4,1.3,0.8,1.7s1.1,0.6,1.9,0.6c0.8,0,1.6-0.2,2.4-0.6l0.1,1c-0.3,0.2-0.7,0.4-1.2,0.5
			C154.7,62.6,154.2,62.7,153.7,62.7z M155.3,58.4c0-0.7-0.2-1.2-0.6-1.6c-0.4-0.4-0.9-0.6-1.5-0.6c-0.6,0-1.1,0.2-1.5,0.6
			c-0.4,0.4-0.6,0.9-0.7,1.6H155.3z"/>
		<path d="M159.9,51.8h3.8c1.3,0,2.3,0.3,3.1,1c0.7,0.6,1.1,1.5,1.1,2.6c0,0.6-0.1,1.1-0.4,1.6c-0.3,0.5-0.7,0.9-1.2,1.2l2.6,4.2
			h-3.1L164,59c-0.1,0-0.1,0-0.2,0c-0.1,0-0.2,0-0.3,0c-0.1,0-0.1,0-0.2,0h-0.8v3.4h-2.7V51.8z M162.6,56.9h0.8
			c1.2,0,1.9-0.5,1.9-1.5c0-0.5-0.1-0.9-0.4-1.1c-0.3-0.2-0.8-0.4-1.4-0.4h-0.8V56.9z"/>
		<path d="M171.1,54.1h-3.3v-2.3h9.4v2.3H174v8.4h-2.8V54.1z"/>
		<path d="M180.9,56.9l-3.5-5.1h3.3l1.9,3.2l1.9-3.2h3.2l-3.5,5.2l3.7,5.4h-3.3l-2.2-3.6l-2.1,3.6h-3.2L180.9,56.9z"/>
	</g>
	<path d="M81.8,25.6c0.4,0.9,0.6,2,0.6,3.1c0,1.2-0.2,2.2-0.6,3.2c-0.4,0.9-1,1.7-1.7,2.4c-0.7,0.6-1.6,1.1-2.7,1.5
		c-1.1,0.3-2.3,0.5-3.6,0.5h-2.3v6.9h-5.5V21.3h7.9c1.3,0,2.5,0.2,3.6,0.5c1.1,0.3,2,0.8,2.7,1.5C80.8,23.9,81.4,24.7,81.8,25.6z
		 M76.8,28.7c0-2.1-1.3-3.1-3.8-3.1h-1.5v6.2H73C75.5,31.8,76.8,30.8,76.8,28.7z M238,32.4l1.3-4.2h-4.8v-3.8h-5.2v3.8h-2.5v4.2h2.5
		v5.3c0,3.9,1.9,5.8,5.6,5.8c0.9,0,1.7-0.1,2.4-0.2c0.7-0.1,1.4-0.3,1.9-0.5l-0.5-4c-0.3,0.1-0.7,0.2-1.1,0.3
		c-0.4,0.1-0.8,0.1-1.3,0.1c-0.7,0-1.2-0.2-1.5-0.5c-0.3-0.4-0.4-1-0.4-1.9v-4.4H238z M221.8,20.4c-0.8,0-1.5,0.3-2.1,0.8
		c-0.6,0.5-0.8,1.2-0.8,2c0,0.8,0.3,1.4,0.8,2c0.6,0.5,1.2,0.8,2.1,0.8c0.8,0,1.5-0.3,2.1-0.8c0.6-0.5,0.8-1.2,0.8-2s-0.3-1.5-0.8-2
		C223.3,20.7,222.6,20.4,221.8,20.4z M250.5,27.8c-1,0-1.8,0.2-2.6,0.6c-0.7,0.4-1.3,1-1.7,1.7l-0.1-1.8h-5.1v14.8h5.2v-7.9
		c0-0.9,0.2-1.6,0.6-2.1c0.4-0.5,0.9-0.7,1.7-0.7c1.3,0,2,0.9,2,2.6v8.1h5.2v-9c0-2.1-0.4-3.6-1.3-4.7
		C253.5,28.3,252.3,27.8,250.5,27.8z M272.8,37h-10.4c0.5,1.7,2.6,2.5,5,2.5c0.6,0,1.2-0.1,1.9-0.2c0.7-0.1,1.4-0.3,2-0.6l1.6,3.3
		c-0.7,0.5-1.7,0.9-2.7,1.2c-1.1,0.3-2.2,0.4-3.3,0.4c-1.4,0-2.6-0.2-3.7-0.5c-1.1-0.4-2-0.9-2.8-1.6c-0.8-0.7-1.4-1.5-1.8-2.5
		c-0.4-1-0.6-2.1-0.6-3.3c0-1.2,0.2-2.2,0.6-3.2c0.4-1,0.9-1.8,1.6-2.5c0.7-0.7,1.5-1.2,2.5-1.6c1-0.4,2-0.6,3.2-0.6
		c1.1,0,2.1,0.2,3,0.5c0.9,0.3,1.7,0.8,2.3,1.5c0.6,0.6,1.1,1.4,1.5,2.3c0.3,0.9,0.5,1.9,0.5,3.1C272.9,36,272.9,36.5,272.8,37z
		 M268.7,34.3c-0.1-1-0.4-1.7-1-2.2c-0.5-0.5-1.2-0.8-2.1-0.8c-1.8,0-2.9,1-3.3,3H268.7z M219.2,43.1h5.2V28.3h-5.2V43.1z
		 M136.9,32.4l1.3-4.2h-4.8v-3.8h-5.2v3.8h-1.6H126h-4.2v-3.8h-5.2v3.8h-2.5v4.2h2.5v5.3c0,3.9,1.9,5.8,5.6,5.8
		c0.9,0,1.7-0.1,2.4-0.2c0.7-0.1,1.4-0.3,1.9-0.5l-0.5-4c-0.3,0.1-0.7,0.2-1.1,0.3c-0.4,0.1-0.8,0.1-1.3,0.1c-0.7,0-1.2-0.2-1.5-0.5
		c-0.3-0.4-0.4-1-0.4-1.9v-4.4h4.2h0.7h1.6v5.3c0,3.9,1.9,5.8,5.6,5.8c0.9,0,1.7-0.1,2.4-0.2c0.7-0.1,1.4-0.3,1.9-0.5l-0.5-4
		c-0.3,0.1-0.7,0.2-1,0.3c-0.4,0.1-0.8,0.1-1.3,0.1c-0.7,0-1.2-0.2-1.5-0.5c-0.3-0.4-0.4-1-0.4-1.9v-4.4H136.9z M210.9,27.8
		c-0.9,0-1.7,0.2-2.5,0.5s-1.3,0.9-1.7,1.5v-8.6h-5.2v21.9h5.2v-7.9c0-0.9,0.2-1.6,0.6-2.1c0.4-0.5,0.9-0.7,1.7-0.7
		c1.3,0,2,0.9,2,2.6v8.1h5.2v-9c0-2.1-0.4-3.6-1.3-4.7C213.9,28.3,212.6,27.8,210.9,27.8z M107.2,28.3h4.9v14.8h-4.9l-0.1-1.7
		c-0.4,0.7-1,1.2-1.8,1.6c-0.8,0.4-1.6,0.6-2.6,0.6c-1,0-1.9-0.2-2.7-0.6c-0.8-0.4-1.5-0.9-2.1-1.6c-0.6-0.7-1.1-1.5-1.4-2.5
		c-0.3-1-0.5-2-0.5-3.2c0-1.1,0.2-2.2,0.5-3.2c0.3-1,0.8-1.8,1.5-2.5c0.6-0.7,1.4-1.3,2.2-1.7c0.8-0.4,1.8-0.6,2.7-0.6
		c0.9,0,1.7,0.2,2.5,0.6c0.7,0.4,1.3,0.9,1.8,1.6L107.2,28.3z M107.2,35.7c0-1-0.3-1.8-0.8-2.4c-0.6-0.6-1.3-0.9-2.2-0.9
		c-0.9,0-1.6,0.3-2.2,0.9c-0.6,0.6-0.8,1.4-0.8,2.4c0,1,0.3,1.8,0.8,2.4c0.6,0.6,1.3,0.9,2.2,0.9c0.9,0,1.6-0.3,2.2-0.9
		C106.9,37.5,107.2,36.7,107.2,35.7z M91.1,28.6c-0.6,0.4-1.1,1-1.5,1.9l-0.1-2.2h-5v14.8h5.2v-6.4c0-2.6,1-3.9,3-3.9
		c0.3,0,0.6,0,1,0.1c0.3,0.1,0.7,0.2,0.9,0.3l0.4-4.9c-0.5-0.2-1-0.3-1.7-0.3C92.5,28,91.8,28.2,91.1,28.6z M190.3,35.4l-4.1-13.8
		h-4.8l-4.1,14.1L174,21.3h-6.1l6.4,21.9h5.2l4.1-14.1l4.2,14.1h5.2l6.5-21.9h-6.1L190.3,35.4z M161.2,39.4l3.3,3.7H159l-0.9-0.9
		c-1.6,0.9-3.5,1.4-5.7,1.4c-2.4,0-4.2-0.5-5.6-1.6c-1.4-1.1-2.1-2.6-2.1-4.4c0-2.5,1.4-4.4,4.1-5.8c-1.2-1.5-1.8-2.9-1.8-4.3
		c0-0.8,0.2-1.5,0.5-2.1c0.3-0.6,0.8-1.2,1.3-1.6c0.6-0.5,1.2-0.8,2-1.1c0.8-0.2,1.6-0.4,2.4-0.4c0.9,0,1.7,0.1,2.4,0.3
		c0.7,0.2,1.3,0.6,1.8,1c0.5,0.4,0.9,0.9,1.2,1.5c0.3,0.6,0.4,1.3,0.4,2c0,2.1-1.3,3.9-3.9,5.4l3.2,3.6c0.4-1,0.5-2.1,0.5-3.5h4.3
		C163.2,35.2,162.5,37.5,161.2,39.4z M151.6,27.5c0,0.3,0.1,0.7,0.3,1.1c0.2,0.4,0.5,0.8,1,1.4c0.6-0.4,1-0.7,1.3-1.1
		c0.3-0.4,0.4-0.8,0.4-1.3c0-0.5-0.1-0.9-0.4-1.2c-0.2-0.3-0.6-0.4-1.1-0.4c-0.5,0-0.8,0.1-1.1,0.4C151.8,26.7,151.6,27,151.6,27.5z
		 M155.6,39.3l-4.3-4.9c-0.9,0.7-1.4,1.6-1.4,2.6c0,0.9,0.3,1.5,0.9,2c0.6,0.5,1.4,0.7,2.5,0.7C154.2,39.7,155,39.6,155.6,39.3z"/>
	<path d="M21.2,9.4c0.6-0.1,1.2-0.2,1.8-0.3l2.8,15.9c-0.6,0.1-1.2,0.2-1.8,0.3L21.2,9.4z"/>
	<path d="M20.5,27c0.6-0.4,1.2-0.8,1.9-1.1l-8-14c-0.6,0.3-1.3,0.7-1.9,1.1L20.5,27z"/>
	<path d="M15.9,35.9c0-0.6,0.1-1.2,0.1-1.8h-16C0,34.6,0,35.2,0,35.8c0,0.5,0,1.1,0,1.6h16C16,36.9,15.9,36.4,15.9,35.9"/>
	<path d="M37.6,35.9c0,6-4.9,10.8-10.8,10.8c-5.4,0-9.8-3.9-10.7-9L1,43.2c0.3,1.2,0.7,2.3,1.2,3.4l14.9-5.5L5,51.5
		c0.8,1.1,1.6,2.1,2.5,3.1L19,44.9l-7.4,13c1.2,0.8,2.4,1.6,3.7,2.2l7-12.2l-2.4,13.9c1.5,0.4,3,0.7,4.6,0.8l2.3-13l2.3,13
		c1.7-0.1,3.3-0.4,4.8-0.9l-2.1-12.1l6.1,10.6c1.7-0.8,3.2-1.7,4.7-2.8l-5.6-9.8l8.6,7.2c1.4-1.3,2.6-2.8,3.6-4.5l-7.6-6.5l9.4,3.4
		c0.9-1.8,1.5-3.7,2-5.7l-8.2-3l8.7,0c0.1-1,0.2-2,0.2-3.1c0-1.2-0.1-2.4-0.2-3.5H37C37.4,33.4,37.6,34.6,37.6,35.9"/>
	<path d="M16.2,33.4c0.2-1,0.6-1.9,1-2.7L2.2,25.2c-0.4,0.9-0.7,1.8-1,2.7L16.2,33.4z"/>
	<path d="M46.9,18.1L34.7,28.4c0.3,0.3,0.6,0.7,0.8,1l12.3-10.3C47.5,18.7,47.2,18.4,46.9,18.1"/>
	<path d="M40.8,12.9c-0.4-0.3-0.9-0.5-1.3-0.8l-8,14c0.5,0.2,0.9,0.5,1.3,0.8L40.8,12.9z"/>
	<path d="M19.4,27.9L7.1,17.5c-0.6,0.6-1.1,1.3-1.6,1.9l12.3,10.4C18.2,29.1,18.8,28.5,19.4,27.9"/>
	<path d="M27.8,25.1c0.5,0.1,1.1,0.1,1.6,0.3l2.8-15.9c-0.5-0.1-1.1-0.2-1.6-0.3L27.8,25.1z"/>
	<polygon points="290,28.1 284.4,28.1 281.6,36 278.6,28.1 272.9,28.1 279,42.1 276.3,47.9 281.4,47.9 	"/>
</g>
</svg>
