<?xml version="1.0" encoding="UTF-8" standalone="no"?>

<svg version="1.1" id="svg1" width="312.98456" height="92.50824" viewBox="0 0 312.98456 92.50824"
  sodipodi:docname="Matrick_Logo-02.pdf" xmlns:inkscape="http://www.inkscape.org/namespaces/inkscape"
  xmlns:sodipodi="http://sodipodi.sourceforge.net/DTD/sodipodi-0.dtd" xmlns="http://www.w3.org/2000/svg"
  xmlns:svg="http://www.w3.org/2000/svg">
  <defs id="defs1">
    <clipPath clipPathUnits="userSpaceOnUse" id="clipPath3">
      <path d="M 0,1440 H 2520 V 0 H 0 Z" id="path3" />
    </clipPath>
    <clipPath clipPathUnits="userSpaceOnUse" id="clipPath5">
      <path d="M 0,1440 H 2520 V 0 H 0 Z" id="path5" />
    </clipPath>
    <clipPath clipPathUnits="userSpaceOnUse" id="clipPath7">
      <path d="M 0,1440 H 2520 V 0 H 0 Z" id="path7" />
    </clipPath>
    <clipPath clipPathUnits="userSpaceOnUse" id="clipPath9">
      <path d="M 0,1440 H 2520 V 0 H 0 Z" id="path9" />
    </clipPath>
    <clipPath clipPathUnits="userSpaceOnUse" id="clipPath11">
      <path d="M 0,1440 H 2520 V 0 H 0 Z" id="path11" />
    </clipPath>
    <clipPath clipPathUnits="userSpaceOnUse" id="clipPath13">
      <path d="M 0,1440 H 2520 V 0 H 0 Z" id="path13" />
    </clipPath>
    <clipPath clipPathUnits="userSpaceOnUse" id="clipPath15">
      <path d="M 0,1440 H 2520 V 0 H 0 Z" id="path15" />
    </clipPath>
    <clipPath clipPathUnits="userSpaceOnUse" id="clipPath17">
      <path d="M 0,1440 H 2520 V 0 H 0 Z" id="path17" />
    </clipPath>
    <clipPath clipPathUnits="userSpaceOnUse" id="clipPath19">
      <path d="M 0,1440 H 2520 V 0 H 0 Z" id="path19" />
    </clipPath>
    <clipPath clipPathUnits="userSpaceOnUse" id="clipPath21">
      <path d="M 0,1440 H 2520 V 0 H 0 Z" id="path21" />
    </clipPath>
    <clipPath clipPathUnits="userSpaceOnUse" id="clipPath23">
      <path d="M 0,1440 H 2520 V 0 H 0 Z" id="path23" />
    </clipPath>
    <clipPath clipPathUnits="userSpaceOnUse" id="clipPath25">
      <path d="M 0,1440 H 2520 V 0 H 0 Z" id="path25" />
    </clipPath>
    <clipPath clipPathUnits="userSpaceOnUse" id="clipPath27">
      <path d="M 0,1440 H 2520 V 0 H 0 Z" id="path27" />
    </clipPath>
    <clipPath clipPathUnits="userSpaceOnUse" id="clipPath29">
      <path d="M 0,1440 H 2520 V 0 H 0 Z" id="path29" />
    </clipPath>
    <clipPath clipPathUnits="userSpaceOnUse" id="clipPath31">
      <path d="M 0,1440 H 2520 V 0 H 0 Z" id="path31" />
    </clipPath>
    <clipPath clipPathUnits="userSpaceOnUse" id="clipPath33">
      <path d="M 0,1440 H 2520 V 0 H 0 Z" id="path33" />
    </clipPath>
    <clipPath clipPathUnits="userSpaceOnUse" id="clipPath35">
      <path d="M 0,1440 H 2520 V 0 H 0 Z" id="path35" />
    </clipPath>
    <clipPath clipPathUnits="userSpaceOnUse" id="clipPath37">
      <path d="M 0,1440 H 2520 V 0 H 0 Z" id="path37" />
    </clipPath>
    <clipPath clipPathUnits="userSpaceOnUse" id="clipPath39">
      <path d="M 0,1440 H 2520 V 0 H 0 Z" id="path39" />
    </clipPath>
    <clipPath clipPathUnits="userSpaceOnUse" id="clipPath41">
      <path d="M 0,1440 H 2520 V 0 H 0 Z" id="path41" />
    </clipPath>
    <clipPath clipPathUnits="userSpaceOnUse" id="clipPath43">
      <path d="M 0,1440 H 2520 V 0 H 0 Z" id="path43" />
    </clipPath>
    <clipPath clipPathUnits="userSpaceOnUse" id="clipPath45">
      <path d="M 0,1440 H 2520 V 0 H 0 Z" id="path45" />
    </clipPath>
    <clipPath clipPathUnits="userSpaceOnUse" id="clipPath47">
      <path d="M 0,1440 H 2520 V 0 H 0 Z" id="path47" />
    </clipPath>
    <clipPath clipPathUnits="userSpaceOnUse" id="clipPath49">
      <path d="M 0,1440 H 2520 V 0 H 0 Z" id="path49" />
    </clipPath>
    <clipPath clipPathUnits="userSpaceOnUse" id="clipPath51">
      <path d="M 0,1440 H 2520 V 0 H 0 Z" id="path51" />
    </clipPath>
    <clipPath clipPathUnits="userSpaceOnUse" id="clipPath53">
      <path d="M 0,1440 H 2520 V 0 H 0 Z" id="path53" />
    </clipPath>
    <clipPath clipPathUnits="userSpaceOnUse" id="clipPath55">
      <path d="M 0,1440 H 2520 V 0 H 0 Z" id="path55" />
    </clipPath>
    <clipPath clipPathUnits="userSpaceOnUse" id="clipPath57">
      <path d="M 0,1440 H 2520 V 0 H 0 Z" id="path57" />
    </clipPath>
    <clipPath clipPathUnits="userSpaceOnUse" id="clipPath59">
      <path d="M 0,1440 H 2520 V 0 H 0 Z" id="path59" />
    </clipPath>
    <clipPath clipPathUnits="userSpaceOnUse" id="clipPath61">
      <path d="M 0,1440 H 2520 V 0 H 0 Z" id="path61" />
    </clipPath>
    <clipPath clipPathUnits="userSpaceOnUse" id="clipPath63">
      <path d="M 0,1440 H 2520 V 0 H 0 Z" id="path63" />
    </clipPath>
    <clipPath clipPathUnits="userSpaceOnUse" id="clipPath65">
      <path d="M 0,1440 H 2520 V 0 H 0 Z" id="path65" />
    </clipPath>
    <clipPath clipPathUnits="userSpaceOnUse" id="clipPath67">
      <path d="M 0,1440 H 2520 V 0 H 0 Z" id="path67" />
    </clipPath>
    <clipPath clipPathUnits="userSpaceOnUse" id="clipPath69">
      <path d="M 0,1440 H 2520 V 0 H 0 Z" id="path69" />
    </clipPath>
    <clipPath clipPathUnits="userSpaceOnUse" id="clipPath71">
      <path d="M 0,1440 H 2520 V 0 H 0 Z" id="path71" />
    </clipPath>
    <clipPath clipPathUnits="userSpaceOnUse" id="clipPath73">
      <path d="M 0,1440 H 2520 V 0 H 0 Z" id="path73" />
    </clipPath>
    <clipPath clipPathUnits="userSpaceOnUse" id="clipPath75">
      <path d="M 0,1440 H 2520 V 0 H 0 Z" id="path75" />
    </clipPath>
    <clipPath clipPathUnits="userSpaceOnUse" id="clipPath77">
      <path d="M 0,1440 H 2520 V 0 H 0 Z" id="path77" />
    </clipPath>
    <clipPath clipPathUnits="userSpaceOnUse" id="clipPath79">
      <path d="M 0,1440 H 2520 V 0 H 0 Z" id="path79" />
    </clipPath>
    <clipPath clipPathUnits="userSpaceOnUse" id="clipPath81">
      <path d="M 0,1440 H 2520 V 0 H 0 Z" id="path81" />
    </clipPath>
    <clipPath clipPathUnits="userSpaceOnUse" id="clipPath83">
      <path d="M 0,1440 H 2520 V 0 H 0 Z" id="path83" />
    </clipPath>
    <clipPath clipPathUnits="userSpaceOnUse" id="clipPath85">
      <path d="M 0,1440 H 2520 V 0 H 0 Z" id="path85" />
    </clipPath>
    <clipPath clipPathUnits="userSpaceOnUse" id="clipPath87">
      <path d="M 0,1440 H 2520 V 0 H 0 Z" id="path87" />
    </clipPath>
    <clipPath clipPathUnits="userSpaceOnUse" id="clipPath89">
      <path d="M 0,1440 H 2520 V 0 H 0 Z" id="path89" />
    </clipPath>
    <clipPath clipPathUnits="userSpaceOnUse" id="clipPath91">
      <path d="M 0,1440 H 2520 V 0 H 0 Z" id="path91" />
    </clipPath>
    <clipPath clipPathUnits="userSpaceOnUse" id="clipPath93">
      <path d="M 0,1440 H 2520 V 0 H 0 Z" id="path93" />
    </clipPath>
    <clipPath clipPathUnits="userSpaceOnUse" id="clipPath95">
      <path d="M 0,1440 H 2520 V 0 H 0 Z" id="path95" />
    </clipPath>
    <clipPath clipPathUnits="userSpaceOnUse" id="clipPath97">
      <path d="M 0,1440 H 2520 V 0 H 0 Z" id="path97" />
    </clipPath>
    <clipPath clipPathUnits="userSpaceOnUse" id="clipPath99">
      <path d="M 0,1440 H 2520 V 0 H 0 Z" id="path99" />
    </clipPath>
    <clipPath clipPathUnits="userSpaceOnUse" id="clipPath101">
      <path d="M 0,1440 H 2520 V 0 H 0 Z" id="path101" />
    </clipPath>
    <clipPath clipPathUnits="userSpaceOnUse" id="clipPath103">
      <path d="M 0,1440 H 2520 V 0 H 0 Z" id="path103" />
    </clipPath>
    <clipPath clipPathUnits="userSpaceOnUse" id="clipPath105">
      <path d="M 0,1440 H 2520 V 0 H 0 Z" id="path105" />
    </clipPath>
    <clipPath clipPathUnits="userSpaceOnUse" id="clipPath107">
      <path d="M 0,1440 H 2520 V 0 H 0 Z" id="path107" />
    </clipPath>
    <clipPath clipPathUnits="userSpaceOnUse" id="clipPath109">
      <path d="M 0,1440 H 2520 V 0 H 0 Z" id="path109" />
    </clipPath>
    <clipPath clipPathUnits="userSpaceOnUse" id="clipPath111">
      <path d="M 0,1440 H 2520 V 0 H 0 Z" id="path111" />
    </clipPath>
  </defs>
  <sodipodi:namedview id="namedview1" pagecolor="#ffffff" bordercolor="#000000" borderopacity="0.25"
    inkscape:showpageshadow="2" inkscape:pageopacity="0.0" inkscape:pagecheckerboard="0" inkscape:deskcolor="#d1d1d1" />
  <g id="g1" inkscape:groupmode="layer" inkscape:label="1" transform="translate(-184.89243,-609.80487)">
    <g id="group-R5" transform="translate(174.05166,-303.94096)">
      <path id="path2"
        d="m 933.469,872.68 c -2.766,0 -5,2.238 -5,5 v 110.148 c 0,2.762 2.234,5 5,5 h 14.383 c 2.761,0 5,-2.238 5,-5 v -93.215 h 42.07 c 2.766,0 5,-2.234 5,-5 V 877.68 c 0,-2.762 -2.234,-5 -5,-5 h -61.453"
        style="fill:#231f20;fill-opacity:1;fill-rule:nonzero;stroke:none"
        transform="matrix(0.13333333,0,0,-0.13333333,0,1056)" clip-path="url(#clipPath3)" />
      <path id="path4"
        d="m 947.852,997.824 h -14.379 c -5.524,0 -10,-4.476 -10,-10 v -110.14 c 0,-5.524 4.476,-10 10,-10 h 61.445 c 5.522,0 10.002,4.476 10.002,10 v 11.929 c 0,5.524 -4.48,10 -10.002,10 h -37.066 v 88.211 c 0,5.524 -4.477,10 -10,10 z m 0,-10 v -98.211 h 47.066 v -11.929 h -61.445 v 110.14 h 14.379"
        style="fill:#ffffff;fill-opacity:1;fill-rule:nonzero;stroke:none"
        transform="matrix(0.13333333,0,0,-0.13333333,0,1056)" clip-path="url(#clipPath5)" />
      <path id="path6"
        d="m 1069.17,929.91 c -0.52,3.113 -1.71,6.91 -4.43,9.684 -2.44,2.476 -5.7,3.683 -9.96,3.683 -9.78,0 -14.05,-7.734 -15.86,-13.367 z m -11.62,-58.863 c -26.26,0 -43.9,18.035 -43.9,44.875 0,28.058 17.39,47.652 42.27,47.652 25.92,0 37.52,-21.226 37.52,-42.261 0,-3.211 -0.19,-5.649 -0.59,-7.665 -0.46,-2.343 -2.51,-4.035 -4.9,-4.035 h -49.97 c 2.41,-14.906 14.23,-17.289 21.53,-17.289 10.15,0 15.75,1.852 19.89,3.66 l 2.01,0.422 2.19,-0.508 c 1.32,-0.644 2.29,-1.835 2.65,-3.261 l 2.62,-10.293 c 0.59,-2.348 -0.58,-4.789 -2.8,-5.789 -5.56,-2.512 -15.04,-5.508 -28.52,-5.508"
        style="fill:#231f20;fill-opacity:1;fill-rule:nonzero;stroke:none"
        transform="matrix(0.13333333,0,0,-0.13333333,0,1056)" clip-path="url(#clipPath7)" />
      <path id="path8"
        d="m 1047.13,934.91 c 1.78,1.957 4.24,3.367 7.64,3.367 3.81,0 5.48,-1.25 6.4,-2.187 l 0.95,-1.18 z m 8.79,33.664 c -27.39,0 -47.26,-22.14 -47.26,-52.648 0,-29.836 19.64,-49.879 48.89,-49.879 14.38,0 24.57,3.238 30.59,5.953 4.42,1.996 6.77,6.875 5.57,11.574 l -2.61,10.293 c -0.72,2.848 -2.66,5.235 -5.3,6.524 -1.38,0.679 -2.89,1.019 -4.39,1.019 -1.36,0 -2.73,-0.281 -4.01,-0.84 -3.67,-1.605 -8.66,-3.246 -17.89,-3.246 -7.27,0 -12.16,2.403 -14.76,7.289 h 43.19 c 4.78,0 8.88,3.371 9.81,8.051 0.47,2.344 0.69,5.094 0.69,8.649 0,23.527 -13.15,47.261 -42.52,47.261 z m -23.21,-43.664 h 41.83 c 0.17,9.149 -3.76,23.367 -19.77,23.367 -14.71,0 -20.92,-13.394 -22.06,-23.367 m 23.21,33.664 c 25.81,0 32.52,-22.711 32.52,-37.261 0,-2.942 -0.17,-5.063 -0.5,-6.7 h -55.39 c 0.32,-19.281 12.58,-27.289 26.96,-27.289 10.29,0 16.67,1.797 21.9,4.086 l 2.61,-10.297 c -5.06,-2.285 -13.89,-5.066 -26.47,-5.066 -24.19,0 -38.89,16.176 -38.89,39.879 0,23.855 14.21,42.648 37.26,42.648"
        style="fill:#ffffff;fill-opacity:1;fill-rule:nonzero;stroke:none"
        transform="matrix(0.13333333,0,0,-0.13333333,0,1056)" clip-path="url(#clipPath9)" />
      <path id="path10"
        d="m 1139.46,871.047 c -8.97,0 -17.99,2.277 -24.74,6.25 -2.02,1.183 -2.94,3.601 -2.24,5.824 l 3.43,10.781 c 0.46,1.453 1.56,2.618 2.99,3.161 l 1.77,0.324 2.55,-0.699 c 3.78,-2.235 10.39,-4.852 16.57,-4.852 4.65,0 10.2,1.172 10.2,6.762 0,3.199 -0.81,5.765 -11.3,9.703 -20.1,7.312 -24.32,18.762 -24.32,27.07 0,16.344 13.58,28.203 32.29,28.203 8.32,0 16.55,-2.136 22.02,-5.719 1.91,-1.246 2.73,-3.613 2.01,-5.765 l -3.43,-10.293 c -0.48,-1.426 -1.58,-2.563 -2.98,-3.098 l -1.77,-0.32 -2.5,0.676 c -4.47,2.582 -9.07,3.894 -13.68,3.894 -5.05,0 -8.07,-2.164 -8.07,-5.781 0,-2.898 1.15,-4.727 11.71,-8.922 10.22,-3.808 23.92,-10.933 23.92,-28.34 0,-17.265 -13.84,-28.859 -34.43,-28.859"
        style="fill:#231f20;fill-opacity:1;fill-rule:nonzero;stroke:none"
        transform="matrix(0.13333333,0,0,-0.13333333,0,1056)" clip-path="url(#clipPath11)" />
      <path id="path12"
        d="m 1146.66,968.574 c -21.61,0 -37.29,-13.965 -37.29,-33.203 0,-8.113 3.59,-23.031 27.66,-31.785 6.77,-2.543 7.79,-3.973 7.89,-4.133 v 0 l 0.07,-0.851 -0.09,-0.668 c -0.15,-0.215 -1.54,-1.098 -5.1,-1.098 -4.84,0 -10.53,2.09 -14.03,4.16 -1.56,0.922 -3.32,1.395 -5.1,1.395 -1.2,0 -2.4,-0.219 -3.56,-0.657 -2.84,-1.086 -5.04,-3.41 -5.96,-6.312 l -3.44,-10.781 c -1.41,-4.453 0.44,-9.289 4.47,-11.657 7.5,-4.41 17.45,-6.937 27.29,-6.937 23.57,0 39.42,13.605 39.42,33.859 0,22.887 -20.52,30.547 -27.26,33.063 -6.44,2.558 -8.14,3.824 -8.56,4.344 0.3,0.109 1.2,0.64 3.26,0.64 3.71,0 7.47,-1.086 11.17,-3.23 1.54,-0.891 3.27,-1.344 5.01,-1.344 1.2,0 2.4,0.215 3.54,0.648 2.81,1.063 5,3.336 5.95,6.188 l 3.43,10.293 c 1.44,4.308 -0.21,9.047 -4.01,11.535 -6.36,4.152 -15.38,6.531 -24.76,6.531 z m 0,-10 c 8.01,0 15.04,-2.125 19.28,-4.902 l -3.43,-10.293 c -3.1,1.797 -8.82,4.574 -16.18,4.574 -8.5,0 -13.07,-4.898 -13.07,-10.785 0,-6.535 4.57,-9.477 14.87,-13.566 13.57,-5.067 20.76,-11.926 20.76,-23.696 0,-14.051 -10.95,-23.859 -29.42,-23.859 -8.66,0 -16.67,2.293 -22.23,5.558 l 3.44,10.786 c 4.41,-2.614 11.93,-5.555 19.12,-5.555 10.29,0 15.19,5.062 15.19,11.766 0,6.863 -4.08,10.457 -14.54,14.378 -14.38,5.231 -21.08,13.075 -21.08,22.391 0,12.746 10.46,23.203 27.29,23.203"
        style="fill:#ffffff;fill-opacity:1;fill-rule:nonzero;stroke:none"
        transform="matrix(0.13333333,0,0,-0.13333333,0,1056)" clip-path="url(#clipPath13)" />
      <path id="path14"
        d="m 1255.07,872.68 c -2.77,0 -5,2.238 -5,5 v 110.148 c 0,2.762 2.23,5 5,5 h 59.65 c 2.76,0 5,-2.238 5,-5 v -11.933 c 0,-2.766 -2.24,-5 -5,-5 h -40.27 V 946.09 h 37.65 c 2.76,0 5,-2.238 5,-5 v -11.77 c 0,-2.761 -2.24,-5 -5,-5 h -37.65 v -29.707 h 42.72 c 2.76,0 5,-2.234 5,-5 V 877.68 c 0,-2.762 -2.24,-5 -5,-5 h -62.1"
        style="fill:#231f20;fill-opacity:1;fill-rule:nonzero;stroke:none"
        transform="matrix(0.13333333,0,0,-0.13333333,0,1056)" clip-path="url(#clipPath15)" />
      <path id="path16"
        d="m 1314.72,997.824 h -59.65 c -5.52,0 -10,-4.476 -10,-10 v -110.14 c 0,-5.524 4.48,-10 10,-10 h 62.1 c 5.52,0 10,4.476 10,10 v 11.929 c 0,5.524 -4.48,10 -10,10 h -37.72 v 19.707 h 32.65 c 5.52,0 10,4.477 10,10 v 11.77 c 0,5.523 -4.48,10 -10,10 h -32.65 v 14.805 h 35.27 c 5.52,0 10,4.476 10,10 v 11.929 c 0,5.524 -4.48,10 -10,10 z m 0,-10 v -11.929 h -45.27 V 941.09 h 42.65 v -11.77 h -42.65 v -39.707 h 47.72 v -11.929 h -62.1 v 110.14 h 59.65"
        style="fill:#ffffff;fill-opacity:1;fill-rule:nonzero;stroke:none"
        transform="matrix(0.13333333,0,0,-0.13333333,0,1056)" clip-path="url(#clipPath17)" />
      <path id="path18"
        d="m 1404.48,872.68 c -2.76,0 -5,2.238 -5,5 v 45.597 c 0,18.536 -10.01,18.536 -13.3,18.536 -7.5,0 -12.7,-5.657 -14.53,-11.262 -0.46,-1.27 -0.73,-3.278 -0.73,-5.153 V 877.68 c 0,-2.762 -2.24,-5 -5,-5 h -14.39 c -2.76,0 -5,2.238 -5,5 v 57.691 c 0,8.734 -0.19,15.024 -0.64,21.035 -0.1,1.387 0.38,2.754 1.33,3.774 0.94,1.015 2.27,1.597 3.66,1.597 h 12.74 c 2.64,0 4.83,-2.05 4.99,-4.683 l 0.07,-1.02 c 5.45,4.332 12.9,7.5 22.24,7.5 15.19,0 32.94,-10.129 32.94,-38.664 v -47.23 c 0,-2.762 -2.24,-5 -5,-5 h -14.38"
        style="fill:#231f20;fill-opacity:1;fill-rule:nonzero;stroke:none"
        transform="matrix(0.13333333,0,0,-0.13333333,0,1056)" clip-path="url(#clipPath19)" />
      <path id="path20"
        d="m 1390.92,968.574 c -7.83,0 -14.5,-1.969 -19.97,-4.992 -1.83,1.973 -4.44,3.195 -7.33,3.195 h -12.74 c -2.78,0 -5.44,-1.156 -7.33,-3.195 -1.9,-2.039 -2.85,-4.777 -2.64,-7.551 0.44,-5.867 0.62,-12.047 0.62,-20.66 v -57.687 c 0,-5.524 4.48,-10 10,-10 h 14.39 c 5.52,0 10,4.476 10,10 v 47.718 c 0,1.641 0.26,2.946 0.37,3.286 1.34,4.074 4.92,8.125 9.89,8.125 2.69,0 8.3,0 8.3,-13.536 v -45.593 c 0,-5.524 4.48,-10 10,-10 h 14.38 c 5.52,0 10,4.476 10,10 v 47.226 c 0,30.164 -19.06,43.664 -37.94,43.664 z m 0,-10 c 10.95,0 27.94,-6.535 27.94,-33.664 v -47.226 h -14.38 v 45.593 c 0,12.743 -4.74,23.536 -18.3,23.536 -9.32,0 -16.67,-6.704 -19.28,-14.711 -0.66,-1.801 -0.98,-4.414 -0.98,-6.7 v -47.718 h -14.39 v 57.687 c 0,8.332 -0.16,14.867 -0.65,21.406 h 12.74 l 0.82,-12.91 h 0.33 c 3.92,7.352 13.08,14.707 26.15,14.707"
        style="fill:#ffffff;fill-opacity:1;fill-rule:nonzero;stroke:none"
        transform="matrix(0.13333333,0,0,-0.13333333,0,1056)" clip-path="url(#clipPath21)" />
      <path id="path22"
        d="m 1482.31,871.047 c -7.86,0 -14.68,2.723 -19.21,7.676 -4.64,5.218 -6.87,13.093 -6.87,24.125 v 37.98 h -7.26 c -2.76,0 -5,2.238 -5,5 v 10.949 c 0,2.766 2.24,5 5,5 h 7.26 v 9.547 c 0,2.184 1.42,4.114 3.51,4.77 l 14.05,4.414 1.49,0.23 c 1.06,0 2.09,-0.332 2.96,-0.972 1.28,-0.938 2.04,-2.438 2.04,-4.028 v -13.961 h 15.6 c 2.76,0 5,-2.234 5,-5 v -10.949 c 0,-2.762 -2.24,-5 -5,-5 h -15.6 V 903.34 c 0,-10.367 3.22,-10.367 5.79,-10.367 3.64,0 5.38,0.304 6.87,0.761 l 1.46,0.219 c 1.01,0 2.01,-0.301 2.86,-0.89 1.26,-0.875 2.05,-2.278 2.13,-3.809 l 0.66,-10.949 c 0.14,-2.219 -1.22,-4.266 -3.32,-5.008 -2.37,-0.84 -7.4,-2.25 -14.42,-2.25"
        style="fill:#231f20;fill-opacity:1;fill-rule:nonzero;stroke:none"
        transform="matrix(0.13333333,0,0,-0.13333333,0,1056)" clip-path="url(#clipPath23)" />
      <path id="path24"
        d="m 1475.29,985.734 c -1.01,0 -2.02,-0.148 -3,-0.457 l -14.05,-4.414 c -4.17,-1.308 -7.01,-5.172 -7.01,-9.543 v -4.543 h -2.25 c -5.52,0 -10,-4.476 -10,-10 v -10.949 c 0,-5.519 4.48,-10 10,-10 h 2.25 v -32.98 c 0,-12.317 2.65,-21.278 8.08,-27.395 5.58,-6.101 13.71,-9.406 23.01,-9.406 7.74,0 13.39,1.586 16.07,2.531 4.21,1.485 6.92,5.574 6.65,10.027 l -0.65,10.95 c -0.18,3.058 -1.76,5.867 -4.28,7.617 -1.69,1.176 -3.69,1.785 -5.7,1.785 -0.99,0 -1.97,-0.144 -2.93,-0.441 -0.86,-0.262 -2.05,-0.539 -5.4,-0.539 l -0.23,0.003 c -0.24,0.743 -0.56,2.333 -0.56,5.36 v 32.488 h 10.59 c 5.52,0 10,4.481 10,10 v 10.949 c 0,5.524 -4.48,10 -10,10 h -10.59 v 8.957 c 0,3.184 -1.52,6.18 -4.09,8.063 -1.73,1.273 -3.81,1.937 -5.91,1.937 z m 0,-10 v -18.957 h 20.59 v -10.949 h -20.59 V 903.34 c 0,-9.805 2.78,-15.363 10.79,-15.363 3.92,0 6.21,0.328 8.33,0.98 l 0.65,-10.949 c -2.77,-0.981 -7.19,-1.961 -12.74,-1.961 -6.7,0 -12.1,2.293 -15.53,6.051 -3.92,4.406 -5.56,11.437 -5.56,20.75 v 42.98 h -12.25 v 10.949 h 12.25 v 14.543 l 14.06,4.414"
        style="fill:#ffffff;fill-opacity:1;fill-rule:nonzero;stroke:none"
        transform="matrix(0.13333333,0,0,-0.13333333,0,1056)" clip-path="url(#clipPath25)" />
      <path id="path26"
        d="m 1528.44,872.68 c -2.77,0 -5,2.238 -5,5 v 54.425 c 0,10.165 -0.21,17.668 -0.66,24.336 -0.08,1.379 0.39,2.739 1.34,3.75 0.95,1.008 2.27,1.586 3.65,1.586 h 12.59 c 2.68,0 4.88,-2.113 5,-4.789 l 0.02,-0.636 c 4.99,4.589 11.35,7.222 18.18,7.222 1.52,0 2.74,-0.14 4.05,-0.297 2.51,-0.308 4.88,-2.5 4.88,-5.023 v -13.57 c 0,-1.426 -0.61,-2.782 -1.67,-3.727 -0.92,-0.824 -2.11,-1.273 -3.33,-1.273 l -0.56,0.027 c -1.3,0.152 -2.6,0.301 -4.34,0.301 -8.66,0 -13.1,-7.34 -14.36,-14.207 -0.27,-1.75 -0.42,-3.774 -0.42,-5.793 V 877.68 c 0,-2.762 -2.23,-5 -5,-5 h -14.37"
        style="fill:#231f20;fill-opacity:1;fill-rule:nonzero;stroke:none"
        transform="matrix(0.13333333,0,0,-0.13333333,0,1056)" clip-path="url(#clipPath27)" />
      <path id="path28"
        d="m 1563.57,968.574 c -5.88,0 -11.44,-1.621 -16.3,-4.562 -1.8,1.718 -4.23,2.765 -6.91,2.765 h -12.58 c -2.77,0 -5.41,-1.144 -7.31,-3.168 -1.89,-2.019 -2.85,-4.734 -2.67,-7.496 0.44,-6.574 0.63,-13.98 0.63,-24.011 v -54.418 c 0,-5.524 4.48,-10 10,-10 h 14.39 c 5.52,0 10,4.476 10,10 v 42.324 c 0,1.812 0.12,3.601 0.37,5.164 0.39,2.098 2.36,9.836 9.4,9.836 1.51,0 2.65,-0.133 3.79,-0.262 l 1.11,-0.062 c 2.45,0 4.82,0.898 6.67,2.546 2.12,1.895 3.33,4.61 3.33,7.454 v 13.566 c 0,5.055 -3.77,9.316 -8.79,9.926 -1.95,0.246 -3.37,0.398 -5.13,0.398 z m 0,-10 c 1.47,0 2.61,-0.164 3.92,-0.324 v -13.566 c -1.47,0.164 -2.94,0.324 -4.9,0.324 -10.14,0 -17.33,-7.676 -19.28,-18.297 -0.33,-2.129 -0.49,-4.414 -0.49,-6.703 v -42.324 h -14.39 v 54.418 c 0,9.316 -0.16,17.32 -0.65,24.675 h 12.58 l 0.65,-15.527 h 0.49 c 3.6,10.625 12.42,17.324 22.07,17.324"
        style="fill:#ffffff;fill-opacity:1;fill-rule:nonzero;stroke:none"
        transform="matrix(0.13333333,0,0,-0.13333333,0,1056)" clip-path="url(#clipPath29)" />
      <path id="path30"
        d="m 1641.41,929.91 c -0.52,3.113 -1.71,6.91 -4.44,9.684 -2.43,2.476 -5.69,3.683 -9.96,3.683 -9.77,0 -14.04,-7.734 -15.86,-13.367 z m -11.62,-58.863 c -26.26,0 -43.9,18.035 -43.9,44.875 0,28.058 17.38,47.652 42.26,47.652 25.92,0 37.52,-21.226 37.52,-42.261 0,-3.211 -0.18,-5.649 -0.58,-7.665 -0.46,-2.343 -2.51,-4.035 -4.9,-4.035 h -49.98 c 2.42,-14.906 14.23,-17.289 21.54,-17.289 10.14,0 15.75,1.852 19.89,3.66 l 2,0.422 2.2,-0.508 c 1.32,-0.644 2.29,-1.835 2.65,-3.261 l 2.61,-10.293 c 0.6,-2.348 -0.57,-4.789 -2.79,-5.789 -5.57,-2.512 -15.05,-5.508 -28.52,-5.508"
        style="fill:#231f20;fill-opacity:1;fill-rule:nonzero;stroke:none"
        transform="matrix(0.13333333,0,0,-0.13333333,0,1056)" clip-path="url(#clipPath31)" />
      <path id="path32"
        d="m 1619.37,934.91 c 1.78,1.957 4.24,3.367 7.64,3.367 3.81,0 5.48,-1.25 6.4,-2.187 l 0.95,-1.18 z m 8.78,33.664 c -27.38,0 -47.26,-22.14 -47.26,-52.648 0,-29.836 19.65,-49.879 48.9,-49.879 14.38,0 24.57,3.238 30.58,5.953 4.42,1.996 6.77,6.875 5.58,11.574 l -2.61,10.293 c -0.72,2.848 -2.66,5.235 -5.3,6.524 -1.38,0.679 -2.89,1.019 -4.39,1.019 -1.37,0 -2.73,-0.281 -4.01,-0.84 -3.67,-1.605 -8.67,-3.246 -17.89,-3.246 -7.27,0 -12.16,2.403 -14.76,7.289 h 43.19 c 4.76,0 8.86,3.356 9.8,8.02 0.47,2.328 0.69,5.086 0.69,8.68 0,23.527 -13.14,47.261 -42.52,47.261 z m -23.2,-43.664 h 41.83 c 0.17,9.149 -3.76,23.367 -19.77,23.367 -14.71,0 -20.92,-13.394 -22.06,-23.367 m 23.2,33.664 c 25.82,0 32.52,-22.711 32.52,-37.261 0,-2.942 -0.16,-5.063 -0.49,-6.7 h -55.39 c 0.32,-19.281 12.58,-27.289 26.96,-27.289 10.29,0 16.67,1.797 21.9,4.086 l 2.61,-10.297 c -5.07,-2.285 -13.89,-5.066 -26.47,-5.066 -24.19,0 -38.9,16.176 -38.9,39.879 0,23.855 14.22,42.648 37.26,42.648"
        style="fill:#ffffff;fill-opacity:1;fill-rule:nonzero;stroke:none"
        transform="matrix(0.13333333,0,0,-0.13333333,0,1056)" clip-path="url(#clipPath33)" />
      <path id="path34"
        d="m 1731.97,942.133 c -7.94,0 -14.96,-5.778 -17.06,-14.043 l -0.13,-0.789 c -0.24,-1.223 -0.52,-2.543 -0.52,-3.703 v -13.727 c 0,-1.851 0.16,-3.433 0.47,-4.562 1.92,-7.789 8.74,-13.153 16.59,-13.153 11.91,0 19.02,9.559 19.02,25.563 0,12.156 -5.68,24.414 -18.37,24.414 z m -37.1,-101.813 c -2.76,0 -5,2.239 -5,5 v 85.637 c 0,10.777 -0.19,18.637 -0.64,25.496 -0.09,1.379 0.4,2.735 1.34,3.742 0.94,1.012 2.26,1.582 3.65,1.582 h 12.91 c 2.65,0 4.83,-2.058 4.99,-4.699 l 0.09,-1.496 c 6.37,5.262 14.5,7.992 24.01,7.992 22.4,0 38.66,-19.011 38.66,-45.207 0,-32.625 -21.23,-47.484 -40.94,-47.484 -7.4,0 -14.2,2 -19.68,5.601 V 845.32 c 0,-2.761 -2.24,-5 -5,-5 h -14.39"
        style="fill:#231f20;fill-opacity:1;fill-rule:nonzero;stroke:none"
        transform="matrix(0.13333333,0,0,-0.13333333,0,1056)" clip-path="url(#clipPath35)" />
      <path id="path36"
        d="m 1719.83,927.121 c 1.61,5.91 6.57,10.016 12.14,10.016 13,0 13.37,-17.43 13.37,-19.414 0,-6.184 -1.37,-20.563 -14.02,-20.563 -5.56,0 -10.37,3.793 -11.7,9.223 -0.14,0.5 -0.36,1.488 -0.36,3.492 v 13.727 l 0.43,2.761 z m 16.39,41.453 c -8.01,0 -15.28,-1.82 -21.49,-5.293 -1.84,2.149 -4.57,3.496 -7.6,3.496 h -12.91 c -2.77,0 -5.41,-1.144 -7.3,-3.16 -1.89,-2.019 -2.86,-4.73 -2.68,-7.488 0.44,-6.82 0.63,-14.348 0.63,-25.172 v -85.633 c 0,-5.523 4.48,-10 10,-10 h 14.39 c 5.52,0 10,4.477 10,10 v 23.094 c 4.51,-1.652 9.47,-2.531 14.67,-2.531 22.13,0 45.95,16.422 45.95,52.484 0,29.09 -18.36,50.203 -43.66,50.203 z m -4.9,-81.414 c 15.19,0 24.02,12.422 24.02,30.563 0,15.847 -8.17,29.414 -23.37,29.414 -9.8,0 -19.12,-6.867 -21.9,-17.817 -0.32,-1.797 -0.81,-3.918 -0.81,-5.718 v -13.727 c 0,-1.961 0.16,-4.082 0.65,-5.883 2.45,-9.965 11.28,-16.832 21.41,-16.832 m 4.9,71.414 c 19.28,0 33.66,-16.176 33.66,-40.203 0,-28.433 -17.48,-42.484 -35.95,-42.484 -10.62,0 -19.61,4.574 -24.35,12.418 h -0.32 v -42.981 h -14.39 v 85.633 c 0,10.133 -0.16,18.301 -0.65,25.82 h 12.91 l 0.82,-13.562 h 0.33 c 5.72,9.805 15.19,15.359 27.94,15.359"
        style="fill:#ffffff;fill-opacity:1;fill-rule:nonzero;stroke:none"
        transform="matrix(0.13333333,0,0,-0.13333333,0,1056)" clip-path="url(#clipPath37)" />
      <path id="path38"
        d="m 1804.25,872.68 c -2.77,0 -5,2.238 -5,5 v 54.425 c 0,10.137 -0.2,17.641 -0.65,24.34 -0.08,1.383 0.39,2.739 1.34,3.75 0.95,1.012 2.27,1.582 3.65,1.582 h 12.59 c 2.69,0 4.88,-2.113 5,-4.797 l 0.02,-0.628 c 4.99,4.589 11.35,7.222 18.18,7.222 1.52,0 2.74,-0.14 4.05,-0.297 2.51,-0.308 4.88,-2.5 4.88,-5.023 v -13.57 c 0,-1.426 -0.6,-2.782 -1.67,-3.727 -0.92,-0.824 -2.11,-1.273 -3.33,-1.273 l -0.56,0.027 c -1.3,0.152 -2.61,0.301 -4.34,0.301 -8.66,0 -13.11,-7.34 -14.38,-14.211 -0.26,-1.746 -0.4,-3.77 -0.4,-5.789 V 877.68 c 0,-2.762 -2.23,-5 -5,-5 h -14.38"
        style="fill:#231f20;fill-opacity:1;fill-rule:nonzero;stroke:none"
        transform="matrix(0.13333333,0,0,-0.13333333,0,1056)" clip-path="url(#clipPath39)" />
      <path id="path40"
        d="m 1839.39,968.574 c -5.88,0 -11.45,-1.621 -16.3,-4.562 -1.8,1.718 -4.24,2.765 -6.91,2.765 h -12.59 c -2.76,0 -5.41,-1.144 -7.3,-3.168 -1.89,-2.019 -2.86,-4.734 -2.67,-7.496 0.43,-6.574 0.63,-13.976 0.63,-24.011 v -54.418 c 0,-5.524 4.48,-10 10,-10 h 14.38 c 5.53,0 10,4.476 10,10 v 42.324 c 0,1.812 0.13,3.601 0.37,5.164 0.39,2.094 2.37,9.836 9.4,9.836 1.52,0 2.66,-0.133 3.79,-0.262 l 1.12,-0.062 c 2.44,0 4.82,0.898 6.66,2.546 2.13,1.895 3.34,4.61 3.34,7.454 v 13.566 c 0,5.055 -3.77,9.313 -8.79,9.926 -1.94,0.242 -3.36,0.398 -5.13,0.398 z m 0,-10 c 1.47,0 2.61,-0.164 3.92,-0.324 v -13.566 c -1.47,0.164 -2.94,0.324 -4.91,0.324 -10.13,0 -17.32,-7.676 -19.28,-18.297 -0.33,-2.129 -0.49,-4.414 -0.49,-6.703 v -42.324 h -14.38 v 54.418 c 0,9.316 -0.17,17.32 -0.66,24.675 h 12.59 l 0.65,-15.527 h 0.49 c 3.6,10.625 12.42,17.324 22.07,17.324"
        style="fill:#ffffff;fill-opacity:1;fill-rule:nonzero;stroke:none"
        transform="matrix(0.13333333,0,0,-0.13333333,0,1056)" clip-path="url(#clipPath41)" />
      <path id="path42"
        d="m 1881.58,965.176 c -7.65,0 -13.66,6.074 -13.66,13.828 0,7.973 6.02,13.984 13.98,13.984 7.89,0 13.83,-6.011 13.83,-13.984 0,-7.887 -6.01,-13.828 -13.99,-13.828 z m -6.86,-92.496 c -2.77,0 -5,2.238 -5,5 v 79.097 c 0,2.766 2.23,5 5,5 h 14.38 c 2.77,0 5,-2.234 5,-5 V 877.68 c 0,-2.762 -2.23,-5 -5,-5 h -14.38"
        style="fill:#231f20;fill-opacity:1;fill-rule:nonzero;stroke:none"
        transform="matrix(0.13333333,0,0,-0.13333333,0,1056)" clip-path="url(#clipPath43)" />
      <path id="path44"
        d="m 1881.91,997.992 c -10.83,0 -18.99,-8.164 -18.99,-18.988 0,-5.625 2.33,-10.598 6.08,-14.02 -2.59,-1.808 -4.28,-4.808 -4.28,-8.207 v -79.093 c 0,-5.524 4.47,-10 10,-10 h 14.38 c 5.52,0 10,4.476 10,10 v 79.093 c 0,3.473 -1.77,6.532 -4.45,8.325 3.77,3.414 6.08,8.339 6.08,13.902 0,10.644 -8.27,18.988 -18.82,18.988 z m 7.19,-41.215 v -79.093 h -14.38 v 79.093 h 14.38 m -7.19,31.215 c 5.23,0 8.82,-3.926 8.82,-8.988 0,-4.738 -3.43,-8.828 -8.99,-8.828 h -0.16 c -5.23,0 -8.66,4.09 -8.66,8.828 0,5.062 3.59,8.988 8.99,8.988"
        style="fill:#ffffff;fill-opacity:1;fill-rule:nonzero;stroke:none"
        transform="matrix(0.13333333,0,0,-0.13333333,0,1056)" clip-path="url(#clipPath45)" />
      <path id="path46"
        d="m 1946.15,871.047 c -8.96,0 -17.99,2.273 -24.75,6.25 -2.02,1.18 -2.95,3.601 -2.24,5.828 l 3.44,10.781 c 0.47,1.449 1.56,2.614 2.99,3.157 l 1.77,0.324 2.55,-0.699 c 3.78,-2.235 10.39,-4.852 16.57,-4.852 4.65,0 10.2,1.172 10.2,6.762 0,3.199 -0.81,5.765 -11.3,9.703 -20.1,7.308 -24.33,18.754 -24.33,27.07 0,16.344 13.59,28.203 32.3,28.203 8.31,0 16.54,-2.136 22.01,-5.719 1.91,-1.246 2.73,-3.605 2.01,-5.765 l -3.42,-10.293 c -0.48,-1.426 -1.58,-2.559 -2.97,-3.098 l -1.78,-0.32 -2.5,0.676 c -4.47,2.582 -9.07,3.894 -13.68,3.894 -5.05,0 -8.07,-2.164 -8.07,-5.781 0,-2.898 1.15,-4.727 11.71,-8.922 10.22,-3.812 23.92,-10.941 23.92,-28.34 0,-17.265 -13.84,-28.859 -34.43,-28.859"
        style="fill:#231f20;fill-opacity:1;fill-rule:nonzero;stroke:none"
        transform="matrix(0.13333333,0,0,-0.13333333,0,1056)" clip-path="url(#clipPath47)" />
      <path id="path48"
        d="m 1953.35,968.574 c -21.61,0 -37.29,-13.965 -37.29,-33.203 0,-8.113 3.59,-23.031 27.66,-31.785 6.77,-2.543 7.79,-3.973 7.89,-4.133 v 0 l 0.07,-0.851 -0.09,-0.668 c -0.15,-0.215 -1.54,-1.098 -5.11,-1.098 -4.83,0 -10.52,2.09 -14.02,4.16 -1.56,0.922 -3.33,1.395 -5.1,1.395 -1.2,0 -2.41,-0.219 -3.56,-0.657 -2.84,-1.086 -5.04,-3.41 -5.97,-6.312 l -3.43,-10.781 c -1.42,-4.453 0.44,-9.289 4.46,-11.657 7.51,-4.41 17.45,-6.937 27.29,-6.937 23.58,0 39.42,13.605 39.42,33.859 0,22.887 -20.51,30.547 -27.26,33.063 -6.43,2.558 -8.13,3.824 -8.55,4.344 0.29,0.109 1.2,0.64 3.26,0.64 3.71,0 7.47,-1.086 11.17,-3.23 1.54,-0.891 3.27,-1.344 5.01,-1.344 1.2,0 2.4,0.215 3.54,0.648 2.81,1.063 4.99,3.336 5.95,6.188 l 3.43,10.293 c 1.44,4.308 -0.21,9.047 -4.02,11.535 -6.35,4.152 -15.37,6.531 -24.75,6.531 z m 0,-10 c 8.01,0 15.03,-2.125 19.28,-4.902 l -3.43,-10.293 c -3.1,1.797 -8.82,4.574 -16.18,4.574 -8.5,0 -13.07,-4.898 -13.07,-10.785 0,-6.535 4.57,-9.477 14.87,-13.566 13.56,-5.067 20.75,-11.926 20.75,-23.696 0,-14.051 -10.95,-23.859 -29.42,-23.859 -8.65,0 -16.66,2.293 -22.22,5.558 l 3.43,10.786 c 4.42,-2.614 11.93,-5.555 19.12,-5.555 10.3,0 15.2,5.062 15.2,11.766 0,6.863 -4.09,10.457 -14.54,14.378 -14.38,5.231 -21.08,13.075 -21.08,22.391 0,12.746 10.46,23.203 27.29,23.203"
        style="fill:#ffffff;fill-opacity:1;fill-rule:nonzero;stroke:none"
        transform="matrix(0.13333333,0,0,-0.13333333,0,1056)" clip-path="url(#clipPath49)" />
      <path id="path50"
        d="m 2055.21,929.91 c -0.51,3.113 -1.7,6.91 -4.43,9.684 -2.43,2.476 -5.69,3.683 -9.96,3.683 -9.78,0 -14.04,-7.734 -15.86,-13.367 z m -11.62,-58.863 c -26.26,0 -43.89,18.035 -43.89,44.875 0,28.058 17.38,47.652 42.26,47.652 25.92,0 37.52,-21.226 37.52,-42.261 0,-3.211 -0.18,-5.649 -0.58,-7.665 -0.46,-2.343 -2.51,-4.035 -4.91,-4.035 h -49.97 c 2.42,-14.906 14.23,-17.289 21.54,-17.289 10.14,0 15.75,1.852 19.89,3.66 l 2,0.422 2.2,-0.508 c 1.32,-0.644 2.28,-1.835 2.64,-3.261 l 2.62,-10.293 c 0.6,-2.348 -0.57,-4.789 -2.79,-5.789 -5.57,-2.512 -15.05,-5.508 -28.53,-5.508"
        style="fill:#231f20;fill-opacity:1;fill-rule:nonzero;stroke:none"
        transform="matrix(0.13333333,0,0,-0.13333333,0,1056)" clip-path="url(#clipPath51)" />
      <path id="path52"
        d="m 2033.18,934.91 c 1.77,1.957 4.24,3.367 7.64,3.367 3.81,0 5.48,-1.25 6.4,-2.187 l 0.95,-1.18 z m 8.78,33.664 c -27.38,0 -47.26,-22.14 -47.26,-52.648 0,-29.836 19.65,-49.879 48.89,-49.879 14.39,0 24.58,3.238 30.59,5.953 4.42,1.996 6.77,6.875 5.58,11.574 l -2.61,10.293 c -0.72,2.848 -2.66,5.235 -5.3,6.524 -1.38,0.679 -2.89,1.019 -4.4,1.019 -1.36,0 -2.72,-0.281 -4,-0.84 -3.67,-1.605 -8.67,-3.246 -17.89,-3.246 -7.28,0 -12.17,2.403 -14.76,7.289 h 43.19 c 4.77,0 8.88,3.371 9.81,8.051 0.46,2.34 0.68,5.09 0.68,8.649 0,23.527 -13.15,47.261 -42.52,47.261 z m -23.21,-43.664 h 41.84 c 0.16,9.149 -3.76,23.367 -19.77,23.367 -14.71,0 -20.92,-13.394 -22.07,-23.367 m 23.21,33.664 c 25.82,0 32.52,-22.711 32.52,-37.261 0,-2.942 -0.16,-5.063 -0.49,-6.7 h -55.4 c 0.33,-19.281 12.58,-27.289 26.97,-27.289 10.29,0 16.67,1.797 21.89,4.086 l 2.62,-10.297 c -5.07,-2.285 -13.89,-5.066 -26.48,-5.066 -24.18,0 -38.89,16.176 -38.89,39.879 0,23.855 14.22,42.648 37.26,42.648"
        style="fill:#ffffff;fill-opacity:1;fill-rule:nonzero;stroke:none"
        transform="matrix(0.13333333,0,0,-0.13333333,0,1056)" clip-path="url(#clipPath53)" />
      <path id="path54"
        d="m 2125.51,871.047 c -8.98,0 -17.99,2.277 -24.75,6.25 -2.02,1.183 -2.94,3.601 -2.23,5.824 l 3.42,10.781 c 0.46,1.453 1.57,2.618 2.99,3.161 l 1.78,0.324 2.55,-0.699 c 3.78,-2.235 10.39,-4.852 16.57,-4.852 4.66,0 10.2,1.172 10.2,6.762 0,3.199 -0.81,5.761 -11.3,9.703 -20.1,7.312 -24.33,18.762 -24.33,27.07 0,16.344 13.58,28.203 32.3,28.203 8.32,0 16.55,-2.136 22.02,-5.719 1.9,-1.246 2.72,-3.613 2.01,-5.765 l -3.44,-10.293 c -0.48,-1.426 -1.57,-2.563 -2.98,-3.098 l -1.77,-0.32 -2.5,0.676 c -4.47,2.582 -9.07,3.894 -13.68,3.894 -5.05,0 -8.06,-2.164 -8.06,-5.781 0,-2.898 1.15,-4.727 11.71,-8.922 10.21,-3.808 23.91,-10.933 23.91,-28.34 0,-17.265 -13.84,-28.859 -34.42,-28.859"
        style="fill:#231f20;fill-opacity:1;fill-rule:nonzero;stroke:none"
        transform="matrix(0.13333333,0,0,-0.13333333,0,1056)" clip-path="url(#clipPath55)" />
      <path id="path56"
        d="m 2132.7,968.574 c -21.6,0 -37.29,-13.965 -37.29,-33.203 0,-8.113 3.6,-23.031 27.66,-31.785 6.78,-2.543 7.8,-3.973 7.89,-4.133 v 0 l 0.08,-0.851 -0.09,-0.668 c -0.16,-0.215 -1.55,-1.098 -5.11,-1.098 -4.83,0 -10.53,2.09 -14.03,4.16 -1.56,0.922 -3.32,1.395 -5.09,1.395 -1.2,0 -2.41,-0.219 -3.56,-0.657 -2.85,-1.086 -5.04,-3.41 -5.97,-6.312 l -3.43,-10.781 c -1.42,-4.453 0.43,-9.289 4.46,-11.657 7.5,-4.41 17.45,-6.937 27.29,-6.937 23.58,0 39.42,13.605 39.42,33.859 0,22.887 -20.52,30.547 -27.26,33.063 -6.43,2.558 -8.13,3.824 -8.55,4.344 0.29,0.109 1.19,0.64 3.26,0.64 3.71,0 7.47,-1.086 11.17,-3.23 1.54,-0.891 3.27,-1.344 5.01,-1.344 1.19,0 2.39,0.215 3.54,0.648 2.81,1.063 4.99,3.336 5.94,6.188 l 3.44,10.293 c 1.43,4.308 -0.22,9.047 -4.02,11.535 -6.35,4.152 -15.38,6.531 -24.76,6.531 z m 0,-10 c 8.02,0 15.04,-2.125 19.29,-4.902 l -3.43,-10.293 c -3.11,1.797 -8.83,4.574 -16.18,4.574 -8.5,0 -13.07,-4.898 -13.07,-10.785 0,-6.535 4.57,-9.477 14.86,-13.566 13.57,-5.067 20.76,-11.926 20.76,-23.696 0,-14.051 -10.95,-23.859 -29.42,-23.859 -8.66,0 -16.66,2.293 -22.22,5.558 l 3.43,10.786 c 4.41,-2.614 11.93,-5.555 19.12,-5.555 10.3,0 15.2,5.062 15.2,11.766 0,6.863 -4.09,10.457 -14.55,14.378 -14.37,5.231 -21.08,13.075 -21.08,22.391 0,12.746 10.46,23.203 27.29,23.203"
        style="fill:#ffffff;fill-opacity:1;fill-rule:nonzero;stroke:none"
        transform="matrix(0.13333333,0,0,-0.13333333,0,1056)" clip-path="url(#clipPath57)" />
      <path id="path58"
        d="m 1109.89,611.09 c -2.69,0 -4.91,2.137 -5,4.832 l -2.35,71.234 c -0.49,12.492 -0.82,26.867 -1,43.977 -3.81,-14.246 -7.99,-29.121 -12.16,-43.18 l -19.71,-69.113 c -0.61,-2.152 -2.57,-3.629 -4.81,-3.629 h -41.5 c -2.32,0 -4.33,1.586 -4.86,3.844 l -16.49,69.168 c -2.576,10.316 -5.389,22.91 -8.201,36.757 -0.071,-2.066 -0.996,-28.339 -1.368,-37.855 l -3.242,-71.262 c -0.117,-2.672 -2.312,-4.773 -4.988,-4.773 h -48.867 c -1.379,0 -2.699,0.57 -3.645,1.578 -0.945,1.004 -1.433,2.355 -1.347,3.734 l 12.363,198.395 c 0.168,2.629 2.351,4.683 4.988,4.683 h 71.537 c 2.3,0 4.31,-1.582 4.86,-3.82 l 12.95,-53.57 c 4.27,-16.637 8.33,-34.492 11.68,-51.289 4.35,18.492 8.85,37.012 13.09,52.054 l 15.01,52.989 c 0.61,2.152 2.57,3.636 4.81,3.636 h 69.77 c 2.66,0 4.86,-2.085 4.99,-4.746 l 10,-198.39 c 0.06,-1.371 -0.42,-2.707 -1.37,-3.703 -0.95,-0.993 -2.26,-1.551 -3.62,-1.551 h -51.52"
        style="fill:#231f20;fill-opacity:1;fill-rule:nonzero;stroke:none"
        transform="matrix(0.13333333,0,0,-0.13333333,0,1056)" clip-path="url(#clipPath59)" />
      <path id="path60"
        d="m 1151.4,824.48 h -69.76 c -4.47,0 -8.4,-2.968 -9.62,-7.273 l -15.01,-52.98 c -2.6,-9.235 -5.3,-19.747 -7.98,-30.696 -2.25,10.071 -4.67,20.176 -7.16,29.871 l -12.91,53.426 c -1.09,4.492 -5.11,7.652 -9.72,7.652 h -71.529 c -5.281,0 -9.652,-4.105 -9.981,-9.378 L 925.359,616.711 c -0.168,-2.758 0.805,-5.461 2.696,-7.473 1.89,-2.011 4.527,-3.152 7.289,-3.152 h 48.867 c 5.344,0 9.746,4.207 9.988,9.547 l 3.196,70.39 16.235,-68.132 c 1.07,-4.504 5.1,-7.684 9.73,-7.684 h 41.5 c 4.47,0 8.4,2.965 9.62,7.262 l 19.72,69.168 c 1,3.375 2,6.793 3,10.246 0.11,-3.449 0.22,-6.762 0.35,-9.953 l 2.35,-71.172 c 0.18,-5.395 4.6,-9.672 10,-9.672 h 51.51 c 2.74,0 5.36,1.125 7.24,3.109 1.89,1.989 2.88,4.66 2.74,7.395 l -10,198.394 c -0.27,5.321 -4.66,9.496 -9.99,9.496 z m 0,-10 10.01,-198.394 h -51.51 l -2.36,71.234 c -0.88,22.375 -1.17,48.864 -1.17,79.77 h -0.89 c -6.18,-26.195 -14.42,-55.922 -20.9,-77.711 l -19.72,-69.172 h -41.5 l -16.48,69.172 c -5.3,21.195 -11.192,50.633 -15.9,77.711 h -0.593 c -1.172,-27.965 -2.059,-57.395 -2.942,-79.77 l -3.234,-71.234 h -48.867 l 12.367,198.394 h 71.529 l 12.95,-53.566 c 5.59,-21.789 11.48,-48.277 15.6,-72.414 h 0.88 c 5.6,24.137 12.07,52.102 17.96,73 l 15.01,52.98 h 69.76"
        style="fill:#ffffff;fill-opacity:1;fill-rule:nonzero;stroke:none"
        transform="matrix(0.13333333,0,0,-0.13333333,0,1056)" clip-path="url(#clipPath61)" />
      <path id="path62"
        d="m 1283.54,706.156 -7.52,29.379 c -1.5,5.676 -3.23,12.668 -4.95,19.719 -1.5,-7.055 -3,-14.047 -4.51,-19.75 l -7.03,-29.348 z m 26.47,-95.066 c -2.25,0 -4.22,1.504 -4.82,3.672 l -11.65,42.246 h -43.48 l -10.27,-42.102 c -0.53,-2.238 -2.54,-3.816 -4.85,-3.816 h -55.04 c -1.57,0 -3.05,0.742 -3.99,1.996 -0.95,1.262 -1.25,2.891 -0.81,4.398 l 57.69,198.395 c 0.63,2.133 2.58,3.601 4.81,3.601 h 70.63 c 2.21,0 4.16,-1.449 4.8,-3.566 L 1372.2,617.52 c 0.45,-1.512 0.15,-3.157 -0.78,-4.418 -0.95,-1.266 -2.44,-2.012 -4.02,-2.012 h -57.39"
        style="fill:#231f20;fill-opacity:1;fill-rule:nonzero;stroke:none"
        transform="matrix(0.13333333,0,0,-0.13333333,0,1056)" clip-path="url(#clipPath63)" />
      <path id="path64"
        d="m 1265.88,711.156 5.42,22.645 5.8,-22.645 z m 42.36,113.324 h -70.65 c -4.44,0 -8.36,-2.937 -9.6,-7.207 L 1170.3,618.879 c -0.88,-3.02 -0.29,-6.277 1.6,-8.793 1.89,-2.52 4.85,-4 8,-4 h 55.04 c 4.62,0 8.63,3.152 9.72,7.637 l 9.33,38.285 h 35.74 l 10.64,-38.578 c 1.19,-4.336 5.14,-7.344 9.64,-7.344 h 57.39 c 3.16,0 6.13,1.492 8.02,4.023 1.89,2.536 2.47,5.809 1.57,8.836 l -59.17,198.395 c -1.26,4.234 -5.16,7.14 -9.58,7.14 z M 1253.2,701.156 h 36.79 l -9.13,35.617 c -2.94,11.188 -6.77,27.375 -9.71,39.153 h -0.59 c -2.94,-11.778 -5.89,-27.965 -8.83,-39.153 l -8.53,-35.617 m 55.04,113.324 59.16,-198.394 h -57.39 l -12.66,45.922 h -51.22 l -11.19,-45.922 h -55.04 l 57.69,198.394 h 70.65"
        style="fill:#ffffff;fill-opacity:1;fill-rule:nonzero;stroke:none"
        transform="matrix(0.13333333,0,0,-0.13333333,0,1056)" clip-path="url(#clipPath65)" />
      <path id="path66"
        d="m 1405.93,611.09 c -2.77,0 -5,2.234 -5,5 v 148.652 h -45.63 c -2.76,0 -5,2.235 -5,5 v 44.738 c 0,2.766 2.24,5 5,5 h 155.42 c 2.77,0 5,-2.234 5,-5 v -44.738 c 0,-2.765 -2.23,-5 -5,-5 h -46.51 V 616.09 c 0,-2.766 -2.24,-5 -5,-5 h -53.28"
        style="fill:#ea1c24;fill-opacity:1;fill-rule:nonzero;stroke:none"
        transform="matrix(0.13333333,0,0,-0.13333333,0,1056)" clip-path="url(#clipPath67)" />
      <path id="path68"
        d="M 1510.72,824.48 H 1355.3 c -5.52,0 -10,-4.476 -10,-10 v -44.742 c 0,-5.519 4.48,-10 10,-10 h 40.63 V 616.086 c 0,-5.523 4.47,-10 10,-10 h 53.28 c 5.52,0 10,4.477 10,10 v 143.652 h 41.51 c 5.52,0 10,4.481 10,10 v 44.742 c 0,5.524 -4.48,10 -10,10 z m 0,-10 v -44.742 h -51.51 V 616.086 h -53.28 v 153.652 h -50.63 v 44.742 h 155.42"
        style="fill:#ffffff;fill-opacity:1;fill-rule:nonzero;stroke:none"
        transform="matrix(0.13333333,0,0,-0.13333333,0,1056)" clip-path="url(#clipPath69)" />
      <path id="path70"
        d="m 1601.64,733.828 c 16.59,0 26.49,7.262 26.49,19.43 0,15.082 -12.16,18.25 -22.37,18.25 -6.14,0 -10.24,-0.223 -12.96,-0.488 v -37.192 z m 37.68,-122.738 c -1.9,0 -3.63,1.066 -4.48,2.762 -3.18,6.367 -8.58,22.07 -14.22,47.05 -5.03,22.321 -11.26,24.657 -24.28,24.657 h -3.54 V 616.09 c 0,-2.766 -2.23,-5 -5,-5 h -52.68 c -2.77,0 -5,2.234 -5,5 v 195.449 c 0,2.461 1.78,4.555 4.23,4.941 18.11,2.844 41.78,4.477 64.94,4.477 33.46,0 55.1,-5.129 70.14,-16.625 14.2,-10.898 21.4,-26.691 21.4,-46.953 0,-22.508 -13.98,-39.938 -29.18,-48.832 9.08,-6.887 15.67,-17.996 20.43,-34.246 2.17,-7.461 4.41,-16.059 6.57,-24.344 3.49,-13.394 7.1,-27.242 9.3,-31.633 0.77,-1.547 0.69,-3.386 -0.22,-4.863 -0.91,-1.473 -2.52,-2.371 -4.25,-2.371 h -54.16"
        style="fill:#ea1c24;fill-opacity:1;fill-rule:nonzero;stroke:none"
        transform="matrix(0.13333333,0,0,-0.13333333,0,1056)" clip-path="url(#clipPath71)" />
      <path id="path72"
        d="m 1597.81,766.352 c 2.11,0.097 4.73,0.16 7.95,0.16 17.37,0 17.37,-9.289 17.37,-13.254 0,-12.555 -13.46,-14.43 -21.49,-14.43 h -3.83 z m 1.47,59.605 c -23.38,0 -47.33,-1.652 -65.71,-4.539 -4.87,-0.766 -8.45,-4.953 -8.45,-9.879 V 616.086 c 0,-5.523 4.48,-10 10,-10 h 52.69 c 5.52,0 10,4.477 10,10 v 64.469 c 9.1,-0.047 13.48,-1.028 17.92,-20.742 5.76,-25.458 11.34,-41.59 14.64,-48.2 1.7,-3.386 5.16,-5.527 8.95,-5.527 h 54.16 c 3.46,0 6.68,1.797 8.5,4.742 1.83,2.949 1.99,6.633 0.44,9.731 -1.97,3.937 -5.68,18.187 -8.96,30.761 -2.16,8.285 -4.39,16.852 -6.57,24.364 -2.9,9.91 -7.62,22.652 -17.07,32.285 14.15,10.418 26.01,27.75 26.01,49.41 0,21.898 -7.86,39.027 -23.35,50.91 -15.98,12.223 -38.55,17.668 -73.2,17.668 z m -11.47,-97.129 h 13.83 c 20.02,0 31.49,9.711 31.49,24.43 0,14.719 -9.71,23.254 -27.37,23.254 -10.01,0 -15.3,-0.586 -17.95,-1.18 v -46.504 m 11.47,87.129 c 30.32,0 52.11,-4.125 67.12,-15.602 12.66,-9.714 19.43,-23.843 19.43,-42.976 0,-24.727 -18.55,-42.094 -33.86,-47.984 v -0.879 c 12.96,-5.891 20.31,-18.543 25.32,-35.618 5.89,-20.312 12.36,-49.156 16.19,-56.812 h -54.16 c -2.95,5.887 -8.24,21.195 -13.84,45.922 -5.29,23.551 -12.66,28.551 -29.14,28.551 h -8.53 v -74.473 h -52.69 v 195.453 c 15.01,2.356 37.68,4.418 64.16,4.418"
        style="fill:#ffffff;fill-opacity:1;fill-rule:nonzero;stroke:none"
        transform="matrix(0.13333333,0,0,-0.13333333,0,1056)" clip-path="url(#clipPath73)" />
      <path id="path74"
        d="m 1716.69,611.09 c -2.76,0 -5,2.234 -5,5 v 198.39 c 0,2.766 2.24,5 5,5 h 53.28 c 2.76,0 5,-2.234 5,-5 V 616.09 c 0,-2.766 -2.24,-5 -5,-5 h -53.28"
        style="fill:#ea1c24;fill-opacity:1;fill-rule:nonzero;stroke:none"
        transform="matrix(0.13333333,0,0,-0.13333333,0,1056)" clip-path="url(#clipPath75)" />
      <path id="path76"
        d="m 1769.97,824.48 h -53.28 c -5.52,0 -10,-4.476 -10,-10 V 616.086 c 0,-5.523 4.48,-10 10,-10 h 53.28 c 5.52,0 10,4.477 10,10 V 814.48 c 0,5.524 -4.48,10 -10,10 z m 0,-10 V 616.086 h -53.28 V 814.48 h 53.28"
        style="fill:#ffffff;fill-opacity:1;fill-rule:nonzero;stroke:none"
        transform="matrix(0.13333333,0,0,-0.13333333,0,1056)" clip-path="url(#clipPath77)" />
      <path id="path78"
        d="m 1905.06,608.145 c -82.47,0 -111.86,53.671 -111.86,103.902 0,76.25 57.95,110.379 115.38,110.379 23.2,0 42.68,-4.555 51.69,-9.067 2.09,-1.046 3.18,-3.394 2.62,-5.66 l -10.29,-42.09 c -0.34,-1.414 -1.29,-2.613 -2.59,-3.269 l -2.27,-0.543 -1.91,0.383 c -10.72,4.429 -22.46,6.683 -34.88,6.683 -25.05,0 -51.82,-14 -51.82,-53.281 0,-33.363 19.81,-53.281 52.99,-53.281 11.87,0 25.64,2.156 33.5,5.242 l 1.82,0.348 2.44,-0.633 c 1.31,-0.735 2.22,-2.02 2.48,-3.492 l 7.37,-41.504 c 0.38,-2.157 -0.68,-4.301 -2.62,-5.313 -8.15,-4.238 -27.92,-8.804 -52.05,-8.804"
        style="fill:#ea1c24;fill-opacity:1;fill-rule:nonzero;stroke:none"
        transform="matrix(0.13333333,0,0,-0.13333333,0,1056)" clip-path="url(#clipPath79)" />
      <path id="path80"
        d="m 1908.59,827.43 c -83.16,0 -120.38,-57.953 -120.38,-115.383 0,-30.488 9.82,-56.817 28.4,-76.141 20.61,-21.433 51.19,-32.761 88.45,-32.761 25.1,0 45.39,4.707 54.36,9.371 3.88,2.011 6,6.312 5.23,10.617 l -7.36,41.504 c -0.52,2.953 -2.34,5.515 -4.96,6.98 -1.51,0.848 -3.2,1.274 -4.89,1.274 -1.23,0 -2.48,-0.231 -3.66,-0.696 -7.21,-2.836 -20.53,-4.894 -31.66,-4.894 -30.49,0 -47.98,17.597 -47.98,48.277 0,44.801 35.82,48.281 46.8,48.281 11.78,0 22.87,-2.121 32.98,-6.3 1.22,-0.508 2.53,-0.762 3.82,-0.762 1.56,0 3.11,0.363 4.52,1.082 2.61,1.316 4.5,3.707 5.2,6.543 l 10.3,42.09 c 1.1,4.535 -1.07,9.234 -5.25,11.32 -8.85,4.43 -28.28,9.598 -53.92,9.598 z m 0,-10 c 22.66,0 41.21,-4.418 49.45,-8.539 l -10.3,-42.094 c -8.54,3.535 -20.9,7.062 -36.8,7.062 -30.31,0 -56.8,-17.953 -56.8,-58.281 0,-35.91 21.48,-58.277 57.98,-58.277 12.66,0 27.08,2.347 35.32,5.59 l 7.37,-41.504 c -7.37,-3.828 -26.2,-8.242 -49.75,-8.242 -74.18,0 -106.85,46.21 -106.85,98.902 0,69.762 51.21,105.383 110.38,105.383"
        style="fill:#ffffff;fill-opacity:1;fill-rule:nonzero;stroke:none"
        transform="matrix(0.13333333,0,0,-0.13333333,0,1056)" clip-path="url(#clipPath81)" />
      <path id="path82"
        d="m 2094,611.09 c -1.86,0 -3.57,1.039 -4.43,2.687 l -38.21,73.473 -10.05,-12.836 V 616.09 c 0,-2.766 -2.24,-5 -5,-5 h -52.69 c -2.76,0 -5,2.234 -5,5 v 198.39 c 0,2.766 2.24,5 5,5 h 52.69 c 2.76,0 5,-2.234 5,-5 v -66.566 l 3.92,6.688 38.33,62.492 c 0.91,1.484 2.52,2.386 4.26,2.386 h 65.34 c 1.9,0 3.63,-1.066 4.48,-2.757 0.84,-1.688 0.66,-3.715 -0.47,-5.231 l -61.03,-81.844 63.71,-111.07 c 0.89,-1.547 0.89,-3.449 -0.01,-4.992 -0.89,-1.543 -2.54,-2.496 -4.32,-2.496 H 2094"
        style="fill:#ea1c24;fill-opacity:1;fill-rule:nonzero;stroke:none"
        transform="matrix(0.13333333,0,0,-0.13333333,0,1056)" clip-path="url(#clipPath83)" />
      <path id="path84"
        d="m 2153.22,824.48 h -65.4 c -3.48,0 -6.71,-1.804 -8.53,-4.773 l -32.98,-53.793 v 48.566 c 0,5.524 -4.48,10 -10,10 h -52.69 c -5.52,0 -10,-4.476 -10,-10 V 616.086 c 0,-5.523 4.48,-10 10,-10 h 52.69 c 5.52,0 10,4.477 10,10 v 56.605 l 4.19,5.36 34.63,-66.578 c 1.72,-3.309 5.14,-5.387 8.87,-5.387 h 61.52 c 3.57,0 6.86,1.902 8.65,4.988 1.79,3.086 1.8,6.895 0.02,9.989 l -62.08,108.226 58.78,78.824 c 1.44,1.731 2.3,3.95 2.3,6.367 0,5.524 -4.45,10 -9.97,10 z m -0.05,-10 -63,-84.476 65.35,-113.918 H 2094 l -41.8,80.363 -15.89,-20.312 v -60.051 h -52.69 V 814.48 h 52.69 v -84.183 h 0.58 c 4.12,7.355 8.54,14.719 12.66,21.781 l 38.27,62.402 h 65.35 m 0,0 h 0.05"
        style="fill:#ffffff;fill-opacity:1;fill-rule:nonzero;stroke:none"
        transform="matrix(0.13333333,0,0,-0.13333333,0,1056)" clip-path="url(#clipPath85)" />
      <path id="path86"
        d="m 2208.93,703.578 c -7.66,0 -13.66,6.074 -13.66,13.828 0,7.977 6.02,13.989 13.99,13.989 7.88,0 13.82,-6.012 13.82,-13.989 0,-7.879 -6.02,-13.828 -13.99,-13.828 z m -6.86,-92.488 c -2.76,0 -5,2.234 -5,5 v 79.098 c 0,2.761 2.24,5 5,5 h 14.38 c 2.76,0 5,-2.239 5,-5 V 616.09 c 0,-2.766 -2.24,-5 -5,-5 h -14.38"
        style="fill:#231f20;fill-opacity:1;fill-rule:nonzero;stroke:none"
        transform="matrix(0.13333333,0,0,-0.13333333,0,1056)" clip-path="url(#clipPath87)" />
      <path id="path88"
        d="m 2209.26,736.395 c -10.83,0 -18.99,-8.161 -18.99,-18.989 0,-5.621 2.32,-10.593 6.08,-14.015 -2.59,-1.809 -4.28,-4.809 -4.28,-8.207 v -79.098 c 0,-5.523 4.47,-10 10,-10 h 14.38 c 5.52,0 10,4.477 10,10 v 79.098 c 0,3.472 -1.77,6.527 -4.45,8.32 3.77,3.418 6.08,8.344 6.08,13.902 0,10.649 -8.27,18.989 -18.82,18.989 z m 7.19,-41.211 v -79.098 h -14.38 v 79.098 h 14.38 m -7.19,31.211 c 5.23,0 8.82,-3.922 8.82,-8.989 0,-4.738 -3.43,-8.824 -8.99,-8.824 h -0.16 c -5.23,0 -8.66,4.086 -8.66,8.824 0,5.067 3.59,8.989 8.99,8.989"
        style="fill:#ffffff;fill-opacity:1;fill-rule:nonzero;stroke:none"
        transform="matrix(0.13333333,0,0,-0.13333333,0,1056)" clip-path="url(#clipPath89)" />
      <path id="path90"
        d="m 2293.27,611.09 c -2.76,0 -5,2.234 -5,5 v 45.59 c 0,18.535 -10.01,18.535 -13.3,18.535 -7.5,0 -12.7,-5.652 -14.53,-11.262 -0.46,-1.265 -0.73,-3.273 -0.73,-5.144 V 616.09 c 0,-2.766 -2.24,-5 -5,-5 h -14.39 c -2.76,0 -5,2.234 -5,5 v 57.683 c 0,8.731 -0.19,15.028 -0.64,21.04 -0.1,1.386 0.38,2.753 1.33,3.777 0.94,1.015 2.27,1.598 3.66,1.598 h 12.74 c 2.64,0 4.83,-2.051 4.99,-4.684 l 0.07,-1.109 c 5.46,4.328 12.94,7.585 22.24,7.585 15.19,0 32.95,-10.125 32.95,-38.664 V 616.09 c 0,-2.766 -2.24,-5 -5,-5 h -14.39"
        style="fill:#231f20;fill-opacity:1;fill-rule:nonzero;stroke:none"
        transform="matrix(0.13333333,0,0,-0.13333333,0,1056)" clip-path="url(#clipPath91)" />
      <path id="path92"
        d="m 2279.71,706.98 c -7.82,0 -14.5,-1.968 -19.97,-4.992 -1.83,1.973 -4.44,3.196 -7.32,3.196 h -12.75 c -2.78,0 -5.44,-1.157 -7.33,-3.2 -1.89,-2.039 -2.85,-4.773 -2.64,-7.546 0.44,-5.872 0.62,-12.051 0.62,-20.661 v -57.691 c 0,-5.523 4.48,-10 10,-10 h 14.39 c 5.52,0 10,4.477 10,10 v 47.723 c 0,1.64 0.26,2.945 0.38,3.285 1.33,4.074 4.91,8.121 9.88,8.121 2.7,0 8.31,0 8.31,-13.535 v -45.594 c 0,-5.523 4.47,-10 10,-10 h 14.37 c 5.53,0 10,4.477 10,10 v 47.23 c 0,30.164 -19.06,43.664 -37.94,43.664 z m 0,-10 c 10.95,0 27.94,-6.535 27.94,-33.664 v -47.23 h -14.37 v 45.594 c 0,12.746 -4.74,23.535 -18.31,23.535 -9.31,0 -16.67,-6.699 -19.28,-14.707 -0.66,-1.801 -0.98,-4.414 -0.98,-6.699 v -47.723 h -14.39 v 57.691 c 0,8.332 -0.16,14.868 -0.65,21.407 h 12.75 l 0.82,-12.911 h 0.32 c 3.92,7.352 13.08,14.707 26.15,14.707"
        style="fill:#ffffff;fill-opacity:1;fill-rule:nonzero;stroke:none"
        transform="matrix(0.13333333,0,0,-0.13333333,0,1056)" clip-path="url(#clipPath93)" />
      <path id="path94"
        d="m 2364.73,609.453 c -26.56,0 -44.39,18.235 -44.39,45.367 0,27.77 19.53,47.16 47.49,47.16 9.84,0 17.98,-2.503 22.32,-4.847 2.09,-1.121 3.09,-3.559 2.42,-5.828 l -3.27,-10.953 c -0.43,-1.43 -1.48,-2.598 -2.85,-3.18 l -1.95,-0.391 -2.32,0.574 c -4.04,2.114 -8.86,3.188 -14.35,3.188 -16.94,0 -22.95,-13.418 -22.95,-24.906 0,-14.934 8.82,-24.582 22.46,-24.582 7.08,0 11.7,1.601 15.64,3.336 l 2.01,0.422 2.25,-0.532 c 1.33,-0.672 2.29,-1.902 2.62,-3.359 l 2.45,-10.785 c 0.52,-2.282 -0.6,-4.614 -2.71,-5.621 -2.49,-1.188 -11.63,-5.063 -24.87,-5.063"
        style="fill:#231f20;fill-opacity:1;fill-rule:nonzero;stroke:none"
        transform="matrix(0.13333333,0,0,-0.13333333,0,1056)" clip-path="url(#clipPath95)" />
      <path id="path96"
        d="m 2367.84,706.98 c -30.91,0 -52.5,-21.449 -52.5,-52.16 0,-29.656 20.31,-50.371 49.39,-50.371 14.29,0 24.3,4.254 27.02,5.559 4.22,2.015 6.48,6.683 5.44,11.238 l -2.45,10.785 c -0.66,2.91 -2.59,5.371 -5.25,6.715 -1.42,0.711 -2.96,1.067 -4.5,1.067 -1.37,0 -2.74,-0.282 -4.03,-0.844 -3.2,-1.41 -7.16,-2.914 -13.61,-2.914 -10.77,0 -17.46,7.504 -17.46,19.582 0,4.668 1.29,19.906 17.95,19.906 4.66,0 8.71,-0.883 12.02,-2.617 1.45,-0.758 3.04,-1.145 4.64,-1.145 1.32,0 2.64,0.262 3.88,0.785 2.76,1.161 4.85,3.493 5.7,6.352 l 3.27,10.949 c 1.36,4.539 -0.65,9.406 -4.82,11.66 -4.87,2.637 -13.92,5.453 -24.69,5.453 z m 0,-10 c 8.49,0 16.01,-2.125 19.93,-4.25 l -3.27,-10.949 c -3.43,1.797 -8.82,3.762 -16.66,3.762 -18.14,0 -27.95,-13.566 -27.95,-29.906 0,-18.309 11.77,-29.582 27.46,-29.582 8.16,0 13.56,1.961 17.64,3.758 l 2.45,-10.782 c -3.76,-1.797 -12.09,-4.582 -22.71,-4.582 -23.86,0 -39.39,16.18 -39.39,40.371 0,24.348 16.67,42.16 42.5,42.16"
        style="fill:#ffffff;fill-opacity:1;fill-rule:nonzero;stroke:none"
        transform="matrix(0.13333333,0,0,-0.13333333,0,1056)" clip-path="url(#clipPath97)" />
      <path id="path98"
        d="m 2408.72,609.293 c -8.25,0 -14.47,6.57 -14.47,15.293 0,8.719 6.37,15.293 14.8,15.293 8.49,0 14.64,-6.434 14.64,-15.293 0,-8.723 -6.37,-15.293 -14.8,-15.293 h -0.17"
        style="fill:#231f20;fill-opacity:1;fill-rule:nonzero;stroke:none"
        transform="matrix(0.13333333,0,0,-0.13333333,0,1056)" clip-path="url(#clipPath99)" />
      <path id="path100"
        d="m 2409.05,644.879 c -11.11,0 -19.81,-8.914 -19.81,-20.293 0,-11.57 8.38,-20.293 19.48,-20.293 11.46,0 19.97,8.723 19.97,20.293 0,11.566 -8.44,20.293 -19.64,20.293 z m 0,-10 c 5.72,0 9.64,-4.25 9.64,-10.293 0,-5.887 -3.92,-10.293 -9.8,-10.293 h -0.17 c -5.55,0 -9.48,4.406 -9.48,10.293 0,5.883 4.09,10.293 9.81,10.293"
        style="fill:#ffffff;fill-opacity:1;fill-rule:nonzero;stroke:none"
        transform="matrix(0.13333333,0,0,-0.13333333,0,1056)" clip-path="url(#clipPath101)" />
      <path id="path102"
        d="M 763.074,934.016 C 881.27,783.238 854.859,565.191 704.082,446.992 553.305,328.801 335.258,355.211 217.059,505.984 98.8633,656.762 125.273,874.809 276.051,993.008 426.828,1111.2 644.879,1084.79 763.074,934.016"
        style="fill:#a7a5a6;fill-opacity:1;fill-rule:nonzero;stroke:none"
        transform="matrix(0.13333333,0,0,-0.13333333,0,1056)" clip-path="url(#clipPath103)" />
      <path id="path104"
        d="m 826.301,488.125 c -53.469,-0.004 -125.617,57.75 -154.153,82.582 -1.425,1.242 -3.253,1.926 -5.136,1.926 -1.758,0 -3.426,-0.582 -4.817,-1.672 L 622.02,539.465 c -4.872,-3.82 -10.965,-5.926 -17.149,-5.926 -8.609,0 -16.601,3.887 -21.902,10.66 l -40.813,52.051 c -1.492,1.902 -3.726,2.992 -6.148,2.992 -1.235,0 -3.059,-0.289 -4.817,-1.664 L 465,545.691 c -4.871,-3.816 -10.957,-5.921 -17.148,-5.921 -8.614,0 -16.59,3.882 -21.907,10.652 L 284.441,730.941 c -8.945,11.422 -7.73,27.512 2.832,37.422 71.332,66.914 245.372,222.539 320.864,222.539 3.035,0 5.957,-0.242 8.679,-0.722 48.711,-8.516 114.661,-93.137 136.348,-136.114 12.52,-24.789 0.859,-41.578 -7.656,-53.832 -8.731,-12.566 -13.535,-19.488 -1.653,-34.644 C 839.98,642.969 860.508,615.895 864.512,610.52 l 0.754,-0.868 c 6.621,-6.625 28.14,-30.644 26.336,-60.504 -1.122,-18.503 -10.918,-35.117 -29.102,-49.367 -9.863,-7.734 -22.051,-11.656 -36.199,-11.656"
        style="fill:#ea1c24;fill-opacity:1;fill-rule:nonzero;stroke:none"
        transform="matrix(0.13333333,0,0,-0.13333333,0,1056)" clip-path="url(#clipPath105)" />
      <path id="path106"
        d="m 608.145,1000.9 v 0 C 529.074,1000.89 352.633,843.383 280.441,775.664 266.063,762.176 264.398,740.297 276.57,724.773 L 418.082,544.254 c 7.219,-9.207 18.066,-14.484 29.773,-14.484 8.411,0 16.688,2.859 23.317,8.05 l 64.469,50.539 39.457,-50.332 c 7.218,-9.207 18.07,-14.484 29.773,-14.484 8.41,0 16.692,2.859 23.317,8.055 l 38.757,30.382 c 36.844,-31.878 105.227,-83.855 159.356,-83.855 16.445,0 30.699,4.637 42.367,13.785 20.535,16.098 31.609,35.156 32.914,56.641 2.063,34.027 -21.879,60.801 -29.266,68.195 -3.808,5.149 -24.41,32.317 -120.593,155.012 -7.325,9.344 -6.621,10.359 2,22.769 8.812,12.692 23.57,33.938 8.371,64.047 -18.957,37.559 -87.192,131.606 -143.547,141.466 -3.293,0.57 -6.793,0.86 -10.402,0.86 z m -0.004,-19.998 c 2.449,0 4.765,-0.183 6.961,-0.566 44.226,-7.734 108.503,-89.898 129.136,-130.773 20.633,-40.875 -39.648,-50.098 -8.254,-90.145 96.743,-123.406 116.778,-149.863 120.508,-154.871 l 1.672,-1.934 c 6.91,-6.918 50.41,-54.008 -1.836,-94.965 -8.527,-6.683 -18.777,-9.523 -30.027,-9.523 -50.34,0 -120.797,56.813 -147.59,80.125 -3.348,2.914 -7.52,4.383 -11.695,4.383 -3.871,0 -7.75,-1.262 -10.989,-3.797 l -40.179,-31.5 c -3.258,-2.555 -7.133,-3.793 -10.977,-3.793 -5.285,0 -10.519,2.34 -14.031,6.82 l -40.809,52.059 c -3.511,4.48 -8.746,6.824 -14.031,6.824 -3.844,0 -7.719,-1.238 -10.977,-3.797 l -66.191,-51.886 c -3.262,-2.555 -7.133,-3.793 -10.977,-3.793 -5.289,0 -10.519,2.339 -14.035,6.824 L 292.313,737.109 c -5.696,7.266 -4.918,17.653 1.812,23.965 49.281,46.235 239.309,219.821 314.016,219.828"
        style="fill:#ffffff;fill-opacity:1;fill-rule:nonzero;stroke:none"
        transform="matrix(0.13333333,0,0,-0.13333333,0,1056)" clip-path="url(#clipPath107)" />
      <path id="path108"
        d="m 122.629,438.828 c -4.223,0 -8.125,1.895 -10.727,5.203 l -17.6911,22.574 c -2.2461,2.86 -3.2421,6.426 -2.8046,10.043 0.4414,3.622 2.2656,6.848 5.1289,9.09 L 245.156,602.246 c -33.535,47.024 -33.093,55.035 -32.922,58.149 2.668,48.476 50.864,66.468 52.911,67.21 1.117,0.403 2.265,0.598 3.41,0.598 2.988,0 5.898,-1.348 7.84,-3.789 L 408.281,558.008 c 3.106,-3.922 2.832,-9.531 -0.625,-13.137 -1.289,-1.348 -31.972,-32.914 -64.551,-32.914 -9.851,0 -18.875,2.809 -26.843,8.356 -10.344,4.339 -19.867,15.21 -37.383,37.308 L 131.023,441.723 c -2.39,-1.871 -5.371,-2.895 -8.394,-2.895"
        style="fill:#ea1c24;fill-opacity:1;fill-rule:nonzero;stroke:none"
        transform="matrix(0.13333333,0,0,-0.13333333,0,1056)" clip-path="url(#clipPath109)" />
      <path id="path110"
        d="m 268.547,738.203 c -2.277,0 -4.578,-0.39 -6.805,-1.195 -2.304,-0.836 -56.469,-21.063 -59.496,-76.059 -0.305,-5.566 -0.754,-13.695 29.254,-56.703 L 90.3555,493.602 c -4.9649,-3.891 -8.1172,-9.485 -8.875,-15.754 -0.7578,-6.266 0.9648,-12.45 4.8554,-17.414 l 17.6911,-22.563 c 4.504,-5.75 11.286,-9.051 18.598,-9.051 5.258,0 10.434,1.789 14.566,5.032 L 277.25,543.645 c 14.402,-17.797 23.598,-27.379 34.16,-32.129 9.461,-6.344 20.11,-9.555 31.692,-9.555 36.171,0 68.23,32.305 71.765,35.988 6.926,7.215 7.457,18.434 1.246,26.274 l -131.89,166.402 c -3.871,4.883 -9.688,7.578 -15.676,7.578 z m 0.004,-20.004 131.887,-166.398 c 0,0 -28.645,-29.84 -57.336,-29.84 -7.516,0 -15.028,2.043 -22.036,7.207 -9.41,3.387 -19.554,15.844 -40.519,42.473 l -155.695,-122.047 -2.227,-0.77 c -1.078,0 -2.145,0.477 -2.859,1.387 l -17.688,22.562 c -1.23,1.571 -0.953,3.86 0.613,5.086 l 156.188,122.438 c -20.516,28.246 -36.957,54.18 -36.66,59.555 2.332,42.421 46.332,58.347 46.332,58.347"
        style="fill:#ffffff;fill-opacity:1;fill-rule:nonzero;stroke:none"
        transform="matrix(0.13333333,0,0,-0.13333333,0,1056)" clip-path="url(#clipPath111)" />
    </g>
  </g>
</svg>