<?xml version="1.0" encoding="UTF-8"?> <svg xmlns="http://www.w3.org/2000/svg" xmlns:xlink="http://www.w3.org/1999/xlink" width="207.575" height="61.001" viewBox="0 0 207.575 61.001"><defs><clipPath id="clip-path"><rect id="Rectangle_663" data-name="Rectangle 663" width="207.575" height="61.001" fill="none"></rect></clipPath></defs><g id="Groupe_2080" data-name="Groupe 2080" clip-path="url(#clip-path)"><path id="Tracé_1417" data-name="Tracé 1417" d="M69.729,8.794a2.47,2.47,0,0,0,2.447,0,2.281,2.281,0,0,0,.909-.911,2.468,2.468,0,0,0-.005-2.455,2.259,2.259,0,0,0-.919-.909,2.459,2.459,0,0,0-2.417,0,2.269,2.269,0,0,0-.921.909,2.461,2.461,0,0,0,0,2.455,2.289,2.289,0,0,0,.911.911m-.552-3.16a1.9,1.9,0,0,1,.767-.759,2.048,2.048,0,0,1,2.015,0,1.887,1.887,0,0,1,.767.759,2.055,2.055,0,0,1,.005,2.046,1.918,1.918,0,0,1-.759.758,2.045,2.045,0,0,1-2.04,0,1.931,1.931,0,0,1-.761-.758,2.045,2.045,0,0,1,.005-2.046" transform="translate(-17.912 -1.099)" fill="#105f9d"></path><path id="Tracé_1418" data-name="Tracé 1418" d="M70.79,7.312h.251a.55.55,0,0,1,.342.091,2.138,2.138,0,0,1,.446.616l.235.417h.521l-.322-.518a3.017,3.017,0,0,0-.391-.525.716.716,0,0,0-.225-.14.819.819,0,0,0,.549-.241.707.707,0,0,0,.207-.505.679.679,0,0,0-.124-.388.657.657,0,0,0-.332-.256,2.228,2.228,0,0,0-.674-.073h-.909V8.436h.427Zm0-1.163h.485a1.334,1.334,0,0,1,.428.046.387.387,0,0,1,.182.138.362.362,0,0,1,.064.21.358.358,0,0,1-.135.293.832.832,0,0,1-.507.111H70.79Z" transform="translate(-18.401 -1.514)" fill="#105f9d"></path><path id="Tracé_1419" data-name="Tracé 1419" d="M30.7.038A29.179,29.179,0,1,0,58.319,27.659,29.181,29.181,0,0,0,30.7.038m23.5,22.388a.95.95,0,0,1-.912,1.2H46.473a.844.844,0,0,1-.844-.844V18.7A.946.946,0,0,0,45.31,18L29.809,3.407a.906.906,0,0,0-.176-.1A25.726,25.726,0,0,1,54.193,22.426m-50.034,0A25.735,25.735,0,0,1,28.736,3.3a.933.933,0,0,0-.182.112L13.04,18a.943.943,0,0,0-.312.7v4.126a.8.8,0,0,1-.8.8H5.071a.95.95,0,0,1-.912-1.2M23.8,53.325a.949.949,0,0,1-1.2.911A26.178,26.178,0,0,1,4.131,35.928a.95.95,0,0,1,.911-1.2H11.9a.825.825,0,0,1,.825.825V44.7a.943.943,0,0,0,.944.943h9.292a.84.84,0,0,1,.84.84Zm10.913-8.841a.991.991,0,0,1-.99.991H24.661a.856.856,0,0,1-.856-.856V35.671a.944.944,0,0,0-.944-.944H13.74a.848.848,0,0,1-.849-.849v-9.34a.9.9,0,0,1,.9-.9h9.03a1.016,1.016,0,0,0,1.016-1.017V13.943A1.041,1.041,0,0,1,24.883,12.9h8.858a.976.976,0,0,1,.976.976v8.787a.971.971,0,0,0,.97.97h8.959a.817.817,0,0,1,.817.817v9.464a.81.81,0,0,1-.81.811H35.66a.944.944,0,0,0-.944.944ZM54.2,35.926A25.884,25.884,0,0,1,35.918,54.2a.949.949,0,0,1-1.2-.911V46.458a.818.818,0,0,1,.818-.818h9.2a.943.943,0,0,0,.943-.943V35.546a.818.818,0,0,1,.818-.818h6.8a.949.949,0,0,1,.911,1.2" transform="translate(0 0)" fill="#105f9d"></path><path id="Tracé_1420" data-name="Tracé 1420" d="M109.73,54.338H98.649a.468.468,0,0,0-.462.386l-.236,1.325a.469.469,0,0,0,.462.551h3.452a.469.469,0,0,1,.462.549l-2.159,12.316a.469.469,0,0,0,.462.549h1.916a.468.468,0,0,0,.462-.388l2.215-12.64a.468.468,0,0,1,.462-.388h3.824a.469.469,0,0,0,.462-.391l.223-1.325a.469.469,0,0,0-.462-.546" transform="translate(-25.614 -14.21)" fill="#0da9e0"></path><path id="Tracé_1421" data-name="Tracé 1421" d="M133.519,63.15a3.08,3.08,0,0,1,1.769-.549,2.371,2.371,0,0,1,1.523.481,1.558,1.558,0,0,1,.574.994.463.463,0,0,0,.456.383h2.11a.462.462,0,0,0,.468-.487,3.847,3.847,0,0,0-1.268-2.67,4.992,4.992,0,0,0-3.438-1.142,6.993,6.993,0,0,0-2.732.527,6.782,6.782,0,0,0-2.195,1.467,6.647,6.647,0,0,0-1.456,2.2,6.989,6.989,0,0,0-.515,2.687,5.108,5.108,0,0,0,.594,2.509,4.131,4.131,0,0,0,1.691,1.668,5.33,5.33,0,0,0,2.575.594,6.672,6.672,0,0,0,2.676-.538,6.525,6.525,0,0,0,2.162-1.5,6.279,6.279,0,0,0,1.1-1.579.474.474,0,0,0-.422-.683h-1.984a.478.478,0,0,0-.425.281,2.638,2.638,0,0,1-.988,1.1,3.133,3.133,0,0,1-1.69.481,2.178,2.178,0,0,1-1.68-.705,2.683,2.683,0,0,1-.65-1.893,4.7,4.7,0,0,1,.47-2.128,3.841,3.841,0,0,1,1.277-1.49" transform="translate(-33.687 -15.733)" fill="#0da9e0"></path><path id="Tracé_1422" data-name="Tracé 1422" d="M154.265,58.48a4.934,4.934,0,0,0-2.3.538,5.376,5.376,0,0,0-.891.575.39.39,0,0,1-.633-.366l.857-4.946a.468.468,0,0,0-.462-.549h-1.916a.468.468,0,0,0-.462.388l-2.658,15.188a.468.468,0,0,0,.462.549h1.916a.468.468,0,0,0,.462-.388l.94-5.368v.022a4.2,4.2,0,0,1,1.209-2.374A3.01,3.01,0,0,1,152.9,60.9a1.809,1.809,0,0,1,1.7.761,3.267,3.267,0,0,1,.2,2.195l-.976,5.452a.468.468,0,0,0,.461.551H156.2a.468.468,0,0,0,.461-.386l1.051-5.884a5.1,5.1,0,0,0-.481-3.808,3.363,3.363,0,0,0-2.967-1.3" transform="translate(-38.128 -14.052)" fill="#0da9e0"></path><path id="Tracé_1423" data-name="Tracé 1423" d="M172.3,60.161a4.852,4.852,0,0,0-2.351.571,5.243,5.243,0,0,0-.927.637c-.312.269-.825.368-.781-.182l.01-.271a.469.469,0,0,0-.468-.486h-1.651a.468.468,0,0,0-.462.388l-1.784,10.171a.468.468,0,0,0,.462.549h1.916a.468.468,0,0,0,.462-.387l.962-5.436a3.984,3.984,0,0,1,1.188-2.3,3.031,3.031,0,0,1,2.105-.84,1.772,1.772,0,0,1,1.993,2.016,3.026,3.026,0,0,1-.034.436c-.021.151-.04.312-.054.484,0,.013,0,.026-.005.038l-.973,5.432a.469.469,0,0,0,.462.551h1.914a.468.468,0,0,0,.462-.386l1.051-5.884a8.463,8.463,0,0,0,.134-1.411,3.716,3.716,0,0,0-.952-2.743,3.619,3.619,0,0,0-2.676-.952" transform="translate(-42.857 -15.733)" fill="#0da9e0"></path><path id="Tracé_1424" data-name="Tracé 1424" d="M191.536,60.788a5.166,5.166,0,0,0-2.587-.628,6.685,6.685,0,0,0-2.6.5,6.417,6.417,0,0,0-2.117,1.422,6.6,6.6,0,0,0-1.41,2.139,6.827,6.827,0,0,0-.5,2.631,5.149,5.149,0,0,0,.616,2.543,4.612,4.612,0,0,0,1.713,1.758,4.922,4.922,0,0,0,2.554.65,6.7,6.7,0,0,0,2.631-.515,6.521,6.521,0,0,0,2.128-1.433,6.712,6.712,0,0,0,1.937-4.793,5.057,5.057,0,0,0-.627-2.553,4.527,4.527,0,0,0-1.735-1.724m-1.019,6.528a3.737,3.737,0,0,1-1.21,1.467,2.939,2.939,0,0,1-1.876.535,1.962,1.962,0,0,1-.558-.106,2.347,2.347,0,0,1-1.62-2.466,4.758,4.758,0,0,1,.448-2.094,3.693,3.693,0,0,1,1.221-1.467,2.927,2.927,0,0,1,1.713-.538,2.262,2.262,0,0,1,1.646.672,2.552,2.552,0,0,1,.683,1.9,4.765,4.765,0,0,1-.448,2.094" transform="translate(-47.679 -15.733)" fill="#0da9e0"></path><path id="Tracé_1425" data-name="Tracé 1425" d="M199.986,69.857H201.9a.47.47,0,0,0,.462-.386l2.7-15.188a.469.469,0,0,0-.462-.551h-1.915a.469.469,0,0,0-.462.387l-2.7,15.188a.469.469,0,0,0,.462.551" transform="translate(-52.176 -14.051)" fill="#0da9e0"></path><path id="Tracé_1426" data-name="Tracé 1426" d="M218.98,65.065a5.057,5.057,0,0,0-.627-2.553,4.532,4.532,0,0,0-1.735-1.724,5.168,5.168,0,0,0-2.587-.628,6.685,6.685,0,0,0-2.6.5,6.417,6.417,0,0,0-2.117,1.422,6.6,6.6,0,0,0-1.411,2.139,6.827,6.827,0,0,0-.5,2.631,5.149,5.149,0,0,0,.616,2.543,4.612,4.612,0,0,0,1.713,1.758,4.921,4.921,0,0,0,2.553.65,6.7,6.7,0,0,0,2.632-.515,6.521,6.521,0,0,0,2.128-1.433,6.712,6.712,0,0,0,1.937-4.793M215.6,67.316a3.743,3.743,0,0,1-1.21,1.467,2.94,2.94,0,0,1-1.876.535,1.967,1.967,0,0,1-.558-.106,2.347,2.347,0,0,1-1.62-2.466,4.758,4.758,0,0,1,.448-2.094A3.7,3.7,0,0,1,212,63.184a2.93,2.93,0,0,1,1.713-.538,2.26,2.26,0,0,1,1.646.672,2.549,2.549,0,0,1,.683,1.9,4.765,4.765,0,0,1-.448,2.094" transform="translate(-54.238 -15.733)" fill="#0da9e0"></path><path id="Tracé_1427" data-name="Tracé 1427" d="M235.571,60.43h-3.582a.413.413,0,0,1-.134-.022,5.128,5.128,0,0,0-1.637-.247,5.6,5.6,0,0,0-2.676.638,5.151,5.151,0,0,0-1.915,1.724,4.276,4.276,0,0,0-.717,2.408,3.069,3.069,0,0,0,.582,1.879.46.46,0,0,1-.073.617l-1.875,1.648a.537.537,0,0,0-.152.249.278.278,0,0,0,.063.267,3.081,3.081,0,0,0,.566.506.468.468,0,0,1,.037.746,4.755,4.755,0,0,0-.928,1.021,3.117,3.117,0,0,0-.527,1.758,2.552,2.552,0,0,0,1.3,2.329,6.635,6.635,0,0,0,3.449.784,7.47,7.47,0,0,0,2.978-.56,5.033,5.033,0,0,0,2.049-1.534,3.585,3.585,0,0,0,.75-2.251,2.59,2.59,0,0,0-.9-2.027,5.236,5.236,0,0,0-3.023-.974,11.813,11.813,0,0,1-1.724-.236,2.983,2.983,0,0,1-1.008-.391c-.024-.082.673-.566.673-.566a.466.466,0,0,1,.4-.1,5.927,5.927,0,0,0,1.252.125,5.559,5.559,0,0,0,2.654-.638,5.1,5.1,0,0,0,1.9-1.714,4.315,4.315,0,0,0,.705-2.419,3.72,3.72,0,0,0-.054-.642.463.463,0,0,1,.426-.539l1.011-.07a.469.469,0,0,0,.428-.385l.15-.836a.469.469,0,0,0-.461-.552m-8.926,10.782a.464.464,0,0,1,.3-.047,15.023,15.023,0,0,0,1.566.194,2.464,2.464,0,0,1,1.534.448,1.209,1.209,0,0,1,.392.9,1.523,1.523,0,0,1-.8,1.377,3.672,3.672,0,0,1-1.937.482,3.454,3.454,0,0,1-1.735-.381,1.219,1.219,0,0,1-.661-1.12,1.778,1.778,0,0,1,.358-1.041,2.818,2.818,0,0,1,.973-.808m4.279-5.788a2.467,2.467,0,0,1-1.735.627,2.057,2.057,0,0,1-1.311-.38A1.291,1.291,0,0,1,227.4,64.6a2.1,2.1,0,0,1,.684-1.6,2.47,2.47,0,0,1,1.758-.638,2.029,2.029,0,0,1,1.277.381,1.281,1.281,0,0,1,.493,1.074,2.092,2.092,0,0,1-.683,1.613" transform="translate(-58.214 -15.733)" fill="#0da9e0"></path><path id="Tracé_1428" data-name="Tracé 1428" d="M245.352,53.731a1.787,1.787,0,0,0-1.288.481,1.677,1.677,0,0,0,0,2.4,1.963,1.963,0,0,0,2.576,0,1.679,1.679,0,0,0,0-2.4,1.788,1.788,0,0,0-1.288-.481" transform="translate(-63.694 -14.051)" fill="#0da9e0"></path><path id="Tracé_1429" data-name="Tracé 1429" d="M241.176,71.633h1.916a.469.469,0,0,0,.462-.388l1.784-10.171a.468.468,0,0,0-.462-.549H242.96a.469.469,0,0,0-.462.388l-1.784,10.171a.47.47,0,0,0,.462.549" transform="translate(-62.948 -15.828)" fill="#0da9e0"></path><path id="Tracé_1430" data-name="Tracé 1430" d="M273.587,65.4a11.594,11.594,0,0,0-1.893-.6,9.277,9.277,0,0,1-1.557-.481.819.819,0,0,1-.593-.75,1.022,1.022,0,0,1,.5-.863,2.265,2.265,0,0,1,1.31-.347,2.066,2.066,0,0,1,1.266.359,1.2,1.2,0,0,1,.448.609.465.465,0,0,0,.443.332h1.879a.477.477,0,0,0,.47-.527,2.918,2.918,0,0,0-1.079-2.026,4.753,4.753,0,0,0-3.113-.941,6.477,6.477,0,0,0-2.576.481,4.275,4.275,0,0,0-1.758,1.322,3.081,3.081,0,0,0-.638,1.915,2.052,2.052,0,0,0,.572,1.5,4.233,4.233,0,0,0,1.444.94,12.468,12.468,0,0,0,1.792.583,7.549,7.549,0,0,1,1.433.459.854.854,0,0,1,.56.817,1.244,1.244,0,0,1-.527,1.03,2.362,2.362,0,0,1-1.467.4,2.318,2.318,0,0,1-1.613-.492,1.529,1.529,0,0,1-.487-.883.47.47,0,0,0-.459-.394h-1.972a.475.475,0,0,0-.472.5,3.234,3.234,0,0,0,.456,1.539,3.671,3.671,0,0,0,1.6,1.411,5.893,5.893,0,0,0,2.586.515,7.038,7.038,0,0,0,2.7-.493,4.491,4.491,0,0,0,1.893-1.388,3.339,3.339,0,0,0,.694-2.105,2.173,2.173,0,0,0-.5-1.49,3.7,3.7,0,0,0-1.344-.929" transform="translate(-69.433 -15.733)" fill="#0da9e0"></path><path id="Tracé_1431" data-name="Tracé 1431" d="M122.257,66.678a.472.472,0,0,0,.458-.358c.048-.195.093-.408.134-.638a6.378,6.378,0,0,0,.1-1.108,4.5,4.5,0,0,0-.571-2.274,4.07,4.07,0,0,0-1.624-1.568,5.246,5.246,0,0,0-2.531-.571,6.943,6.943,0,0,0-2.789.549,6.732,6.732,0,0,0-2.184,1.5,6.627,6.627,0,0,0-1.41,2.206,7.209,7.209,0,0,0-.493,2.665,4.591,4.591,0,0,0,1.31,3.449,4.835,4.835,0,0,0,3.527,1.277,6.229,6.229,0,0,0,2.475-.493,6.78,6.78,0,0,0,3.031-2.543.472.472,0,0,0-.4-.727h-1.876a.471.471,0,0,0-.37.188,3.384,3.384,0,0,1-.948.831,2.906,2.906,0,0,1-1.512.392,2.435,2.435,0,0,1-1.748-.639,2.377,2.377,0,0,1-.666-1.829.3.3,0,0,1,.3-.309Zm-2.617-1.792H115.3a.479.479,0,0,1-.428-.7,3.143,3.143,0,0,1,1.025-1.1,3.526,3.526,0,0,1,1.948-.594,2.23,2.23,0,0,1,1.657.583,1.88,1.88,0,0,1,.6,1.34.459.459,0,0,1-.465.474" transform="translate(-29.119 -15.733)" fill="#0da9e0"></path><path id="Tracé_1432" data-name="Tracé 1432" d="M259.594,66.678a.471.471,0,0,0,.457-.358q.073-.292.134-.638a6.305,6.305,0,0,0,.1-1.108,4.5,4.5,0,0,0-.571-2.274,4.065,4.065,0,0,0-1.624-1.568,5.244,5.244,0,0,0-2.531-.571,6.939,6.939,0,0,0-2.789.549,6.716,6.716,0,0,0-2.184,1.5,6.629,6.629,0,0,0-1.41,2.206,7.209,7.209,0,0,0-.493,2.665,4.594,4.594,0,0,0,1.31,3.449,4.837,4.837,0,0,0,3.528,1.277A6.229,6.229,0,0,0,256,71.314a6.771,6.771,0,0,0,3.031-2.543.471.471,0,0,0-.4-.727h-1.876a.471.471,0,0,0-.37.188,3.387,3.387,0,0,1-.949.831,2.906,2.906,0,0,1-1.512.392,2.432,2.432,0,0,1-1.747-.639,2.371,2.371,0,0,1-.666-1.829.3.3,0,0,1,.3-.309Zm-2.617-1.792h-4.343a.48.48,0,0,1-.428-.7,3.142,3.142,0,0,1,1.025-1.1,3.527,3.527,0,0,1,1.948-.594,2.231,2.231,0,0,1,1.658.583,1.883,1.883,0,0,1,.6,1.34.46.46,0,0,1-.465.474" transform="translate(-65.034 -15.733)" fill="#0da9e0"></path><path id="Tracé_1433" data-name="Tracé 1433" d="M103.839,33.3a1.093,1.093,0,0,1-.968.585H99.039a1.093,1.093,0,0,1-.962-1.613L114.66,1.645a1.091,1.091,0,0,1,.961-.572h5.24a1.093,1.093,0,0,1,1.074.89l5.775,30.626a1.093,1.093,0,0,1-1.074,1.3h-4.09a1.093,1.093,0,0,1-1.077-.907l-1-5.779a1.093,1.093,0,0,0-1.077-.907h-7.5a.721.721,0,0,1-.638-1.057l1.649-3.134a.753.753,0,0,1,.667-.4h4.694a1.093,1.093,0,0,0,1.077-1.279L117.721,11a1.093,1.093,0,0,0-2.046-.321Z" transform="translate(-25.614 -0.281)" fill="#105f9d"></path><path id="Tracé_1434" data-name="Tracé 1434" d="M152.34,37.634a12.34,12.34,0,0,1-5.414-1.078,7.671,7.671,0,0,1-3.351-2.953,6.76,6.76,0,0,1-.952-3.144,1.083,1.083,0,0,1,1.094-1.122h3.919a1.075,1.075,0,0,1,1.064.86,3.2,3.2,0,0,0,1.015,1.812,4.846,4.846,0,0,0,3.375,1.031,4.945,4.945,0,0,0,3.07-.843,2.6,2.6,0,0,0,1.1-2.156,1.789,1.789,0,0,0-1.172-1.71,15.8,15.8,0,0,0-3-.962,26.116,26.116,0,0,1-3.75-1.219,8.89,8.89,0,0,1-3.023-1.969,4.3,4.3,0,0,1-1.2-3.14,6.448,6.448,0,0,1,1.336-4.008,8.937,8.937,0,0,1,3.68-2.766,13.547,13.547,0,0,1,5.39-1.007,9.95,9.95,0,0,1,6.516,1.969,6.09,6.09,0,0,1,2.241,4.1,1.1,1.1,0,0,1-1.086,1.244h-3.725a1.063,1.063,0,0,1-1.021-.714,2.516,2.516,0,0,0-.932-1.255,4.327,4.327,0,0,0-2.648-.75,4.745,4.745,0,0,0-2.743.727,2.141,2.141,0,0,0-1.054,1.8,1.713,1.713,0,0,0,1.242,1.57,19.318,19.318,0,0,0,3.257,1.008,24.151,24.151,0,0,1,3.962,1.266,7.727,7.727,0,0,1,2.812,1.944,4.544,4.544,0,0,1,1.055,3.117A6.987,6.987,0,0,1,161.95,33.7a9.4,9.4,0,0,1-3.961,2.906,14.736,14.736,0,0,1-5.649,1.032" transform="translate(-37.297 -3.467)" fill="#105f9d"></path><path id="Tracé_1435" data-name="Tracé 1435" d="M184.693,37.634a12.34,12.34,0,0,1-5.414-1.078,7.671,7.671,0,0,1-3.351-2.953,6.759,6.759,0,0,1-.952-3.144,1.083,1.083,0,0,1,1.094-1.122h3.919a1.075,1.075,0,0,1,1.064.86,3.2,3.2,0,0,0,1.015,1.812,4.846,4.846,0,0,0,3.375,1.031,4.945,4.945,0,0,0,3.07-.843,2.6,2.6,0,0,0,1.1-2.156,1.789,1.789,0,0,0-1.172-1.71,15.8,15.8,0,0,0-3-.962,26.117,26.117,0,0,1-3.75-1.219,8.89,8.89,0,0,1-3.023-1.969,4.3,4.3,0,0,1-1.2-3.14,6.447,6.447,0,0,1,1.336-4.008,8.937,8.937,0,0,1,3.68-2.766,13.548,13.548,0,0,1,5.39-1.007,9.95,9.95,0,0,1,6.516,1.969,6.09,6.09,0,0,1,2.241,4.1,1.1,1.1,0,0,1-1.086,1.244h-3.725a1.063,1.063,0,0,1-1.021-.714,2.516,2.516,0,0,0-.932-1.255,4.329,4.329,0,0,0-2.648-.75,4.745,4.745,0,0,0-2.743.727,2.141,2.141,0,0,0-1.054,1.8,1.713,1.713,0,0,0,1.242,1.57,19.318,19.318,0,0,0,3.257,1.008,24.152,24.152,0,0,1,3.962,1.266,7.727,7.727,0,0,1,2.812,1.944,4.544,4.544,0,0,1,1.055,3.117A6.987,6.987,0,0,1,194.3,33.7a9.4,9.4,0,0,1-3.961,2.906,14.736,14.736,0,0,1-5.649,1.032" transform="translate(-45.758 -3.467)" fill="#105f9d"></path><path id="Tracé_1436" data-name="Tracé 1436" d="M248.84,32.983a1.093,1.093,0,0,1-1.076.9h-3.78a1.093,1.093,0,0,1-1.076-1.284l5.456-30.626a1.093,1.093,0,0,1,1.076-.9h3.78A1.093,1.093,0,0,1,254.3,2.356Z" transform="translate(-63.519 -0.28)" fill="#105f9d"></path><path id="Tracé_1437" data-name="Tracé 1437" d="M258.763,23.3l9.863-9.083a.748.748,0,0,1,.507-.2H274.3a.747.747,0,0,1,.49,1.311l-9.839,8.555a.747.747,0,0,0-.118,1l8,11.2a.747.747,0,0,1-.609,1.182h-5.274a.748.748,0,0,1-.621-.331l-7.887-11.763-.309-.45a.746.746,0,0,1,.131-.992Z" transform="translate(-67.469 -3.667)" fill="#105f9d"></path><path id="Tracé_1438" data-name="Tracé 1438" d="M230.456,26.9a.829.829,0,0,0,.8-.62q.172-.665.314-1.466a13.363,13.363,0,0,0,.21-2.32,9.4,9.4,0,0,0-1.194-4.758,8.494,8.494,0,0,0-3.4-3.281,10.965,10.965,0,0,0-5.3-1.2,14.505,14.505,0,0,0-5.835,1.149,13.882,13.882,0,0,0-7.524,7.757,15.106,15.106,0,0,0-1.031,5.579,9.615,9.615,0,0,0,2.741,7.218,10.123,10.123,0,0,0,7.383,2.672,13.062,13.062,0,0,0,5.18-1.031,14.157,14.157,0,0,0,6.508-5.584.833.833,0,0,0-.718-1.259h-4.28a.82.82,0,0,0-.649.333,7.073,7.073,0,0,1-2.034,1.8,6.077,6.077,0,0,1-3.164.82,5.088,5.088,0,0,1-3.656-1.336c-.872-.829-1.34-1.865-1.4-3.989a.478.478,0,0,1,.477-.487Zm-5.438-3.75h-9.509a.859.859,0,0,1-.742-1.277,6.637,6.637,0,0,1,2.254-2.5,7.389,7.389,0,0,1,4.078-1.242,4.674,4.674,0,0,1,3.469,1.219,3.99,3.99,0,0,1,1.272,2.977.815.815,0,0,1-.821.82" transform="translate(-54.265 -3.467)" fill="#105f9d"></path></g></svg> 