<svg width="259" height="36" viewBox="0 0 259 36" fill="none" xmlns="http://www.w3.org/2000/svg"><path d="M250.67 35.088c5.573 0 8.33-2.28 8.33-6.355v-.154c0-2.956-1.677-4.965-5.514-5.39l-5.05-.54c-1.467-.156-2.18-.91-2.18-2.24v-1.18c0-.444.29-.715.713-.715h6.536c.443 0 .713.27.713.715v2.183h4.51c-.27-4.153-3.027-6.316-8.522-6.316-5.205 0-8.174 2.028-8.174 6.046v.076c0 2.916 1.91 5.021 4.935 5.33l5.706.58c1.466.155 2.12.908 2.12 2.318v1.468c0 .425-.27.695-.693.695h-7.018c-.424 0-.713-.27-.713-.694v-2.183h-4.685c.115 4.076 3.258 6.355 8.984 6.355zm-16.463-21.614h4.916V8.742h-4.916v4.732zm.077 21.228h4.762v-19.22h-4.762v19.22zm-8.454 0h4.762V8.742h-4.762v25.96zm-8.3-15.472v4.327h-7.19c-3.78 0-6.074 2.086-6.074 5.543 0 3.94 3.065 5.988 7.172 5.988 2.795 0 5.09-1.1 6.092-3.477h-7.654c-.424 0-.713-.27-.713-.694V26.3h8.367v8.402h4.762v-13.52c0-4.096-3.355-6.085-8.367-6.085-5.167 0-9.023 2.202-9.1 6.528h4.338V19.23c0-.444.29-.715.713-.715h6.96c.424 0 .694.27.694.715zm-26.74-5.97h3.68l3.03-4.518h-5.265l-1.446 4.52zm-2.66 10.297V19.23c0-.444.27-.715.693-.715h7.924c.443 0 .713.27.713.715v4.327h-9.33zm4.82 11.53c5.32 0 8.385-3.07 9.118-6.72h-4.743v2.55c0 .424-.27.694-.694.694h-7.807c-.424 0-.694-.27-.694-.694V26.3h14.053v-1.74c0-2.683-.655-5.002-2.005-6.624-1.56-1.873-4.222-2.84-7.326-2.84-3.2 0-5.88.928-7.538 2.8-1.466 1.7-2.18 4.096-2.18 7.07v.252c0 2.994.714 5.33 2.18 7.01 1.696 1.895 4.338 2.86 7.635 2.86zm-32.21-.385h4.535v-9.445c0-.425.27-.696.694-.696h8.267l3.99 10.142h4.824l-4.337-10.875c-.733-1.835-1.35-2.588-2.506-2.878-.52-.136-1.138-.175-1.928-.175h-8.31c-.425 0-.695-.27-.695-.695v-7.552h10.218c.424 0 .714.27.714.695v7.726c3.894-1.41 4.935-3.42 4.935-5.834 0-3.98-2.737-6.374-7.75-6.374h-12.65v25.96zm-11.187.386c5.572 0 8.33-2.28 8.33-6.355v-.154c0-2.956-1.678-4.965-5.515-5.39l-5.052-.54c-1.465-.156-2.178-.91-2.178-2.24v-1.18c0-.444.29-.715.713-.715h6.537c.443 0 .713.27.713.715v2.183h4.512c-.27-4.153-3.027-6.316-8.522-6.316-5.205 0-8.175 2.028-8.175 6.046v.076c0 2.916 1.91 5.021 4.936 5.33l5.708.58c1.465.155 2.12.908 2.12 2.318v1.468c0 .425-.27.695-.693.695h-7.018c-.424 0-.713-.27-.713-.694v-2.183h-4.685c.114 4.076 3.257 6.355 8.983 6.355zm-29.074-.386h4.76v-19.22h-4.76v19.22zm12.647-15.028v15.028h4.762v-14.08c0-3.323-2.353-5.487-6.344-5.487-3.162 0-5.263 1.372-6.304 3.844h7.19c.425 0 .695.27.695.694zm-21.015-6.2h4.916V8.742h-4.916v4.732zm.077 21.228h4.76v-19.22h-4.76v19.22zM96.977 24.387l7.847 10.315h5.456l-7.807-10.12c-.193-.272-.193-.542.038-.813l7.694-8.287h-5.148l-8.078 8.904zm0-15.645h-4.762v25.96h4.762V8.742zm-12.223 1.1h-4.743v4.887c0 .463-.27.753-.713.753h-2.816v3.284h3.528V29.64c0 3.246 1.928 5.062 5.263 5.062h4.088v-3.38H85.45c-.425 0-.695-.27-.695-.696v-11.86h4.608v-3.283h-4.608v-5.64zM72.74 34.703h5.13l-8.137-24.048c-.5-1.448-1.157-1.912-2.352-1.912h-5.09c-1.136 0-1.753.464-2.255 1.912l-8.213 24.048h5.013l2.274-7.36H70.47l2.27 7.36zM60.28 23.557l4.517-14.622 4.508 14.622H60.28zM8.637 8.742c0-4.78 3.867-8.654 8.637-8.654h8.637v8.654H8.638zm43.185 0V.088h-8.637c-4.77 0-8.637 3.875-8.637 8.654h17.274zM0 17.395v8.653h8.637V8.742C3.867 8.742 0 12.616 0 17.395zm17.274 17.307c4.77 0 8.637-3.875 8.637-8.654H8.638v8.654h8.637zm17.274 0V8.742H25.91v17.306c0 4.78 3.868 8.654 8.638 8.654z" fill="#BEDAE5"/></svg>