<svg width="370" height="182" fill="none" xmlns="http://www.w3.org/2000/svg"><path fill-rule="evenodd" clip-rule="evenodd" d="M23.977 122.932L4 181.068h12.28l3.482-10.993h19.61l3.482 10.993h12.28l-19.977-58.136h-11.18zm11.913 37.267H22.877l6.598-20.497 6.415 20.497z" fill="#00884C"/><path d="M89.956 138.025c-2.566-3.913-5.498-5.963-11.363-5.963-5.315 0-8.064 2.422-8.064 6.336 0 4.472 3.666 6.521 11.363 8.571 11.913 2.981 17.411 7.64 17.411 17.888 0 9.503-6.231 16.957-19.793 16.957-10.08 0-17.045-2.795-21.993-9.503l8.797-6.336c3.116 3.913 6.598 5.777 12.463 5.777 6.597 0 8.797-2.982 8.797-6.522 0-4.1-2.383-6.336-11.73-8.758-11.363-2.981-16.861-8.571-16.861-18.074 0-9.131 6.048-16.398 19.61-16.398 9.164 0 15.945 3.168 20.16 9.503l-8.797 6.522z" fill="#00884C"/><path fill-rule="evenodd" clip-rule="evenodd" d="M107.367 122.932v58.323h20.344c13.012 0 21.993-6.895 21.993-25.342v-7.64c0-18.633-8.981-25.341-21.993-25.341h-20.344zm30.79 25.341v7.64c0 9.876-2.749 15.28-10.446 15.28h-8.797v-38.199h8.797c7.881 0 10.446 5.217 10.446 15.279zm36.838 33.541c7.514 0 12.28-1.864 15.212-7.081l-8.064-5.404c-1.466 2.236-2.933 3.541-7.331 3.541-6.048 0-7.881-4.286-7.881-10.063h23.643v-4.844c0-12.857-5.315-19.752-17.045-19.752-10.813 0-17.045 6.149-17.045 18.82v5.776c0 10.808 6.048 19.007 18.511 19.007zm5.315-26.833h-13.012c.366-4.658 2.382-7.639 6.597-7.826 4.033 0 6.232 2.423 6.415 7.826z" fill="#000"/><path d="M235.293 138.957l-15.762 42.111h-9.897l-16.128-42.111h11.546l9.347 27.391 9.164-27.391h11.73z" fill="#000"/><path fill-rule="evenodd" clip-rule="evenodd" d="M251.97 122.932h-11.363v10.434h11.363v-10.434zm-.183 16.025h-10.63v42.111h10.63v-42.111z" fill="#000"/><path d="M292.841 174.733c-2.932 5.031-7.697 7.081-15.028 7.081-11.913 0-18.511-7.64-18.511-19.007v-5.776c0-12.298 6.781-18.82 19.06-18.82 6.415 0 11.547 2.423 14.479 7.081l-7.881 5.59c-1.466-2.05-3.482-3.54-6.781-3.54-6.048 0-8.247 3.726-8.247 10.434v4.472c0 6.15 1.649 10.622 8.247 10.622 3.116 0 5.315-1.118 6.965-3.541l7.697 5.404z" fill="#000"/><path fill-rule="evenodd" clip-rule="evenodd" d="M315.201 181.814c7.514 0 12.28-1.864 15.212-7.081l-7.881-5.404c-1.466 2.236-2.932 3.541-7.331 3.541-6.048 0-7.881-4.286-7.881-10.063h23.46v-4.844c0-12.857-5.315-19.752-17.045-19.752-10.813 0-17.045 6.149-17.045 18.82v5.776c0 10.808 6.049 19.007 18.511 19.007zm5.132-26.833H307.32c.367-4.658 2.383-7.639 6.598-7.826 4.032 0 6.232 2.423 6.415 7.826z" fill="#000"/><path d="M361.386 150.882c-1.832-2.236-3.665-3.354-8.064-3.354-2.749 0-5.315.932-5.315 3.354 0 2.609 2.2 3.54 6.598 4.099 10.264 1.677 15.395 5.59 15.395 13.976 0 8.012-5.498 13.043-16.311 13.043-8.431 0-13.563-2.05-17.228-7.081l8.064-5.962c1.65 2.236 3.666 3.54 8.797 3.54 3.666 0 5.865-1.304 5.865-3.54 0-2.609-1.833-3.541-6.964-4.286-8.614-1.491-15.029-5.218-15.029-13.603 0-8.012 5.682-13.043 15.945-13.043 6.781 0 12.463 1.677 15.762 7.081l-7.515 5.776z" fill="#000"/><path fill-rule="evenodd" clip-rule="evenodd" d="M39.168 66.124c-.954 0-1.718-.738-1.336-1.844l8.205-25.45c.382-1.107.954-1.107 1.336 0l8.396 25.45c.382.922-.19 1.844-1.336 1.844H39.168zm26.714 28.032c.382.922-.19 1.844-1.336 1.844h-35.11c-.954 0-1.717-.738-1.336-1.844l4.008-11.988c.381-.922 1.526-1.844 2.671-1.844h24.425c1.145 0 2.29.738 2.671 1.844l4.007 11.988z" fill="#00884C"/><path d="M367.224 96h-81.071c-1.481 0-2.961-1.12-3.146-2.615l-3.147-14.568-2.962 14.381c-.37 1.495-1.665 2.615-3.146 2.615h-93.657c-1.666 0-2.961-1.12-3.147-2.801l-6.478-32.685-6.108 32.871c-.37 1.495-1.666 2.802-3.146 2.802h-10.921c-1.481 0-2.776-1.12-3.146-2.615l-3.517-15.315-3.332 15.315c-.37 1.494-1.666 2.615-3.146 2.615h-18.139c-1.666 0-2.962-1.307-3.332-2.802l-5.553-42.957-5.553 42.957c-.185 1.681-1.666 2.802-3.331 2.802H87.179c-1.481 0-2.592-.934-3.147-2.241-.185-.747-25.913-75.829-27.394-79.938-.74-2.054-3.146-7.097-8.514-7.097-5.183 0-8.144 4.296-8.884 6.91-1.481 3.922-26.839 79.19-27.209 79.938-.37 1.307-1.666 2.241-3.147 2.241H3.332C1.48 95.813 0 94.32 0 92.451c0-1.867 1.48-3.361 3.332-3.361h3.516c4.443-12.888 25.173-74.148 26.469-77.697C35.353 5.79 40.72 0 48.494 0c6.664 0 12.031 4.296 14.623 11.393 1.295 3.735 22.396 64.996 26.653 77.697h8.7l8.328-65.37c.185-1.681 1.666-2.802 3.332-2.802s2.962 1.308 3.332 2.802l8.329 65.37h12.771l5.923-26.895c.37-1.495 1.666-2.615 3.147-2.615 1.481 0 2.776 1.12 3.146 2.615l6.108 27.268h5.553l8.7-47.813c.37-1.494 1.665-2.802 3.146-2.802 1.666 0 2.962 1.12 3.147 2.802l8.699 47.813h88.289l5.553-26.895c.37-1.494 1.666-2.615 3.147-2.615 1.48 0 2.961 1.12 3.146 2.615l5.923 26.895h78.479c1.851 0 3.332 1.494 3.332 3.362S368.889 96 367.224 96z" fill="#00884C"/></svg>