<?xml version="1.0" encoding="utf-8"?>
<!-- Generator: Adobe Illustrator 16.0.0, SVG Export Plug-In . SVG Version: 6.00 Build 0)  -->
<!DOCTYPE svg PUBLIC "-//W3C//DTD SVG 1.1//EN" "http://www.w3.org/Graphics/SVG/1.1/DTD/svg11.dtd">
<svg version="1.1" id="Calque_1" xmlns="http://www.w3.org/2000/svg" xmlns:xlink="http://www.w3.org/1999/xlink" x="0px" y="0px"
	 width="277px" height="69.032px" viewBox="0 0 277 69.032" enable-background="new 0 0 277 69.032" xml:space="preserve">
<polygon points="29.424,0.852 19.878,21.916 10.151,0.852 0.535,0.852 0.535,26.716 5.735,26.716 5.735,4.505 5.806,4.505 
	16.103,26.716 23.156,26.716 33.202,4.505 33.27,4.505 33.27,26.716 39.04,26.716 39.04,0.852 "/>
<polygon fill="none" stroke="#000000" stroke-width="0.346" points="10.152,0.852 19.877,21.917 29.424,0.852 39.039,0.852 
	39.039,26.718 33.271,26.718 33.271,4.505 33.2,4.505 23.154,26.718 16.101,26.718 5.806,4.505 5.736,4.505 5.736,26.718 
	0.534,26.718 0.534,0.852 "/>
<path d="M55.717,0.854h7.265l13.145,25.866h-6.84l-2.957-5.805H51.514l-2.709,5.805H42.61L55.717,0.854z M64.265,16.688
	L58.921,5.439l-5.342,11.248H64.265z"/>
<path fill="none" stroke="#000000" stroke-width="0.346" d="M55.717,0.854h7.265l13.145,25.866h-6.84l-2.957-5.805H51.514
	l-2.709,5.805H42.61L55.717,0.854z M64.265,16.688L58.921,5.439l-5.342,11.248H64.265z"/>
<path d="M100.962,9.2c-0.178-3.619-3.885-5.016-6.732-5.016c-5.414,0-10.439,2.757-10.439,9.495c0,4.8,2.565,9.492,10.475,9.492
	c2.243,0,4.203-0.287,7.053-1.182v-4.945h-8.227v-4.011h13.854v12.072c-3.668,1.575-9.298,2.292-13.039,2.292
	c-9.582,0-16.099-4.299-16.099-13.685c0-7.738,5.45-13.54,15.568-13.54c7.765,0,13.569,2.973,13.569,9.027H100.962z"/>
<path fill="none" stroke="#000000" stroke-width="0.346" d="M100.962,9.2c-0.178-3.619-3.885-5.016-6.732-5.016
	c-5.414,0-10.439,2.757-10.439,9.495c0,4.8,2.565,9.492,10.475,9.492c2.243,0,4.203-0.287,7.053-1.182v-4.945h-8.227v-4.011h13.854
	v12.072c-3.668,1.575-9.298,2.292-13.039,2.292c-9.582,0-16.099-4.299-16.099-13.685c0-7.738,5.45-13.54,15.568-13.54
	c7.765,0,13.569,2.973,13.569,9.027H100.962z"/>
<rect x="113.646" y="0.852" width="5.771" height="25.864"/>
<rect x="113.646" y="0.852" fill="none" stroke="#000000" stroke-width="0.346" width="5.771" height="25.864"/>
<path d="M146.596,9.057c-0.144-3.226-3.668-4.657-6.804-4.657c-3.598,0-8.513,2.183-8.513,9.386c0,7.199,4.915,9.386,8.513,9.386
	c4.735,0,6.804-2.545,7.123-4.729h5.985c-0.463,6.878-6.91,8.956-13.534,8.956c-8.553,0-14.073-4.552-14.073-13.613
	c0-8.707,5.52-13.613,14.428-13.613c5.447,0,12.573,1.935,12.856,8.884H146.596z"/>
<path fill="none" stroke="#000000" stroke-width="0.346" d="M146.596,9.057c-0.144-3.226-3.668-4.657-6.804-4.657
	c-3.598,0-8.513,2.183-8.513,9.386c0,7.199,4.915,9.386,8.513,9.386c4.735,0,6.804-2.545,7.123-4.729h5.985
	c-0.463,6.878-6.91,8.956-13.534,8.956c-8.553,0-14.073-4.552-14.073-13.613c0-8.707,5.52-13.613,14.428-13.613
	c5.447,0,12.573,1.935,12.856,8.884H146.596z"/>
<path d="M171.961,0.173c9.477,0,14.997,4.551,14.997,13.611c0,9.065-5.521,13.613-14.997,13.613
	c-9.478,0-14.997-4.548-14.997-13.613C156.964,4.724,162.483,0.173,171.961,0.173 M171.961,23.17c5.59,0,9.012-3.296,9.012-9.386
	c0-6.087-3.422-9.386-9.012-9.386c-5.557,0-9.012,3.298-9.012,9.386C162.949,19.874,166.404,23.17,171.961,23.17"/>
<path fill="none" stroke="#000000" stroke-width="0.346" d="M171.961,0.173c9.477,0,14.997,4.551,14.997,13.611
	c0,9.065-5.521,13.613-14.997,13.613c-9.478,0-14.997-4.548-14.997-13.613C156.964,4.724,162.483,0.173,171.961,0.173z
	 M171.961,23.17c5.59,0,9.012-3.296,9.012-9.386c0-6.087-3.422-9.386-9.012-9.386c-5.557,0-9.012,3.298-9.012,9.386
	C162.949,19.874,166.404,23.17,171.961,23.17z"/>
<polygon points="192.198,0.852 197.968,0.852 197.968,22.491 212.11,22.491 212.11,26.718 192.198,26.718 "/>
<polygon fill="none" stroke="#000000" stroke-width="0.346" points="192.198,0.852 197.968,0.852 197.968,22.491 212.11,22.491 
	212.11,26.718 192.198,26.718 "/>
<path d="M230.063,0.173c9.475,0,14.997,4.551,14.997,13.611c0,9.065-5.522,13.613-14.997,13.613
	c-9.474,0-14.994-4.548-14.994-13.613C215.069,4.724,220.59,0.173,230.063,0.173 M230.063,23.17c5.594,0,9.015-3.296,9.015-9.386
	c0-6.087-3.421-9.386-9.015-9.386c-5.557,0-9.012,3.298-9.012,9.386C221.052,19.874,224.507,23.17,230.063,23.17"/>
<path fill="none" stroke="#000000" stroke-width="0.346" d="M230.063,0.173c9.475,0,14.997,4.551,14.997,13.611
	c0,9.065-5.522,13.613-14.997,13.613c-9.474,0-14.994-4.548-14.994-13.613C215.069,4.724,220.59,0.173,230.063,0.173z
	 M230.063,23.17c5.594,0,9.015-3.296,9.015-9.386c0-6.087-3.421-9.386-9.015-9.386c-5.557,0-9.012,3.298-9.012,9.386
	C221.052,19.874,224.507,23.17,230.063,23.17z"/>
<path d="M250.727,0.851h15.424c5.663,0,9.905,1.828,9.905,6.951c0,4.516-3.139,6.377-7.093,6.665v0.071
	c5.88,0.25,6.342,2.902,6.628,7.702c0.109,2.149,0.392,3.475,0.781,4.477h-6.195c-0.319-0.752-0.499-2.58-0.569-4.083
	c-0.249-5.087-1.39-6.127-7.019-6.127h-6.093v10.21h-5.77V0.851z M256.496,12.495h7.482c3.385,0,6.089-0.751,6.089-3.868
	c0-3.119-2.777-3.546-5.84-3.546h-7.731V12.495z"/>
<path fill="none" stroke="#000000" stroke-width="0.346" d="M250.727,0.851h15.424c5.663,0,9.905,1.828,9.905,6.951
	c0,4.516-3.139,6.377-7.093,6.665v0.071c5.88,0.25,6.342,2.902,6.628,7.702c0.109,2.149,0.392,3.475,0.781,4.477h-6.195
	c-0.319-0.752-0.499-2.58-0.569-4.083c-0.249-5.087-1.39-6.127-7.019-6.127h-6.093v10.21h-5.77V0.851z M256.496,12.495h7.482
	c3.385,0,6.089-0.751,6.089-3.868c0-3.119-2.777-3.546-5.84-3.546h-7.731V12.495z"/>
<rect x="184.711" y="33.673" fill="#003A5D" width="92.289" height="14.329"/>
<rect x="0.003" y="33.673" fill="#FFD100" width="92.287" height="14.329"/>
<rect x="92.347" y="33.673" fill="#F7323F" width="92.288" height="14.329"/>
<path d="M0,54.903h6.33c4.135,0,5.526,1.239,5.526,3.719c0,2.401-1.581,4.002-4.918,4.002H1.979v6.044H0V54.903z M6.442,61.06
	c2.286,0,3.316-0.802,3.316-2.438c0-1.487-0.855-2.154-3.469-2.154h-4.31v4.593H6.442z"/>
<polygon points="15.272,54.901 25.568,54.901 25.568,56.464 17.256,56.464 17.256,60.813 25.035,60.813 25.035,62.376 
	17.256,62.376 17.256,67.101 25.798,67.101 25.798,68.665 15.272,68.665 "/>
<rect x="29.154" y="54.901" width="1.982" height="13.764"/>
<polygon points="46.027,54.901 48.011,54.901 48.011,68.665 45.301,68.665 36.876,56.923 36.837,56.923 36.837,68.665 
	34.854,68.665 34.854,54.901 37.563,54.901 45.988,66.647 46.027,66.647 "/>
<polygon points="55.962,56.579 50.129,56.579 50.129,54.901 63.779,54.901 63.779,56.579 57.945,56.579 57.945,68.665 
	55.962,68.665 "/>
<path d="M76.897,54.901h1.984v8.219c0,3.926-2.669,5.912-6.406,5.912c-3.735,0-6.404-1.986-6.404-5.912v-8.219h1.983v8.313
	c0,2.632,1.582,4.251,4.421,4.251c2.839,0,4.422-1.619,4.422-4.251V54.901z"/>
<path d="M84.754,68.665h-1.981V54.901h6.767c4.25,0,5.202,1.432,5.202,3.646c0,1.676-1.22,2.934-3.146,3.2v0.039
	c1.851,0.229,2.347,0.972,2.708,3.295c0.229,1.472,0.399,2.69,0.78,3.584h-2.097c-0.362-0.972-0.57-2.895-0.932-4.441
	c-0.229-0.989-0.878-1.695-3.469-1.695h-3.833V68.665z M84.754,60.964h4.519c2.097,0,3.375-0.496,3.375-2.25
	c0-1.676-0.916-2.247-3.337-2.247h-4.556V60.964z"/>
<polygon points="98.521,54.901 108.818,54.901 108.818,56.464 100.505,56.464 100.505,60.813 108.284,60.813 108.284,62.376 
	100.505,62.376 100.505,67.101 109.045,67.101 109.045,68.665 98.521,68.665 "/>
<rect x="119.459" y="54.901" width="1.984" height="13.764"/>
<polygon points="136.331,54.901 138.315,54.901 138.315,68.665 135.605,68.665 127.181,56.923 127.143,56.923 127.143,68.665 
	125.16,68.665 125.16,54.901 127.869,54.901 136.291,66.647 136.331,66.647 "/>
<path d="M142.148,54.903h5.357c6.117,0,8.199,2.554,8.199,7.054c0,4.231-2.575,6.711-7.913,6.711h-5.644V54.903z M144.133,67.104
	h3.734c4.54,0,5.739-2.631,5.739-5.318c0-3.567-1.6-5.318-6.215-5.318h-3.259V67.104z"/>
<path d="M170.024,54.901h1.984v8.219c0,3.926-2.668,5.912-6.409,5.912c-3.735,0-6.402-1.986-6.402-5.912v-8.219h1.98v8.313
	c0,2.632,1.583,4.251,4.422,4.251c2.845,0,4.425-1.619,4.425-4.251V54.901z"/>
<path d="M185.772,58.563c-0.188-1.925-2.152-2.46-4.38-2.46c-1.967,0-3.626,0.972-3.626,2.496c0,0.746,0.46,1.508,2.155,1.794
	l5.128,0.877c2.23,0.378,3.262,1.659,3.262,3.354c0,2.746-2.461,4.404-6.54,4.404c-3.909,0-6.179-1.448-6.423-4.48h2.093
	c0.06,1.85,1.833,2.917,4.444,2.917c2.861,0,4.441-1.124,4.441-2.631c0-3.812-10.541-0.361-10.541-6.12
	c0-2.648,2.25-4.176,6.005-4.176c2.86,0,5.89,0.858,6.08,4.024H185.772z"/>
<polygon points="195.653,56.579 189.819,56.579 189.819,54.901 203.469,54.901 203.469,56.579 197.634,56.579 197.634,68.665 
	195.653,68.665 "/>
<path d="M207.515,68.665h-1.984V54.901h6.771c4.248,0,5.201,1.432,5.201,3.646c0,1.676-1.22,2.934-3.145,3.2v0.039
	c1.847,0.229,2.343,0.972,2.707,3.295c0.227,1.472,0.4,2.69,0.782,3.584h-2.1c-0.361-0.972-0.568-2.895-0.933-4.441
	c-0.228-0.989-0.877-1.695-3.47-1.695h-3.83V68.665z M207.515,60.964h4.517c2.097,0,3.374-0.496,3.374-2.25
	c0-1.676-0.913-2.247-3.334-2.247h-4.557V60.964z"/>
<rect x="221.052" y="54.901" width="1.981" height="13.764"/>
<polygon points="226.925,54.901 237.218,54.901 237.218,56.464 228.906,56.464 228.906,60.813 236.686,60.813 236.686,62.376 
	228.906,62.376 228.906,67.101 237.447,67.101 237.447,68.665 226.925,68.665 "/>
<polygon points="241.283,54.901 243.265,54.901 243.265,67.101 251.197,67.101 251.197,68.665 241.283,68.665 "/>
<polygon points="254,54.901 255.983,54.901 255.983,67.101 263.914,67.101 263.914,68.665 254,68.665 "/>
<polygon points="266.473,54.901 276.765,54.901 276.765,56.464 268.453,56.464 268.453,60.813 276.232,60.813 276.232,62.376 
	268.453,62.376 268.453,67.101 276.994,67.101 276.994,68.665 266.473,68.665 "/>
</svg>
