<?xml version="1.0" encoding="UTF-8"?>
<svg aria-labelledby="ulaval-logo" viewBox="0 0 315 129.8" xmlns="http://www.w3.org/2000/svg"
    xmlns:svg="http://www.w3.org/2000/svg">
    <path fill="#FFFFFF" id="outline" style="display:block"
        d="m 0,0 v 101.4 c 0,8.7 6.7,15.6 15.3,15.6 h 24.1 c 3.2,0 7.4,2.2 9.5,8.3 l 1.2,3.4 c 0.3,0.7 0.7,1.1 1.2,1.1 0.5,0 0.9,-0.4 1.2,-1.1 l 1.2,-3.4 c 2.1,-6.1 6.3,-8.3 9.5,-8.3 h 24.1 c 8.6,0 15.3,-6.8 15.3,-15.6 V 0 Z" />
    <path fill="#FFFFFF" id="text" style="display:block"
        d="m 138.3,16.7 h 3.2 v 15.7 c 0,4.1 -2.9,8.2 -9.4,8.2 -5.9,0 -9.4,-3 -9.4,-8 V 16.7 h 3.6 v 15.4 c 0,4 2,5.9 6.2,5.9 4.1,0 6,-3 6,-5.9 V 16.7 Z m 13.3,0 h -3.1 v 23.4 h 3 V 22.2 l 14,17.9 h 3.2 V 16.7 h -3.1 v 18.1 z m 28.3,0 v 23.4 h -3.5 V 16.7 Z m 5,0 h 3.6 l 5.8,17.6 6.4,-17.6 h 3 l -8.9,23.4 H 193 Z m 37.5,0 v 2.5 H 212 v 7.6 h 8.3 v 2.5 H 212 v 8.4 h 10.4 v 2.5 h -14 V 16.7 Z M 238,29.1 238.4,29 c 1.8,-0.5 4.4,-3.3 4.4,-6.4 0,-2.8 -2.6,-5.9 -8.3,-5.9 H 228 v 23.4 h 3.6 V 18.9 h 2.5 c 3.8,0 5.1,2.2 5.1,4.1 0,2 -1.6,4.7 -5.2,4.7 h -0.9 l 7.9,12.4 h 4.2 z m 21.7,5.5 c 0,-2.2 -2.1,-3.5 -4.5,-4.9 l -0.8,-0.5 c -2.7,-1.6 -5.5,-3.7 -5.5,-7 0,-3.4 3,-6 7,-6 3.4,0 5.4,0.8 6.2,1.2 -0.1,0.2 -0.9,2.1 -1,2.3 -0.8,-0.4 -2.4,-1 -4.6,-1 -2.5,0 -4.1,1.1 -4.1,2.9 0,2.2 1.8,3.3 4.1,4.7 l 1,0.6 0.1,0.1 c 2.3,1.5 5.9,3.7 5.9,6.9 0,4 -4.3,6.7 -8.3,6.7 -3.8,0 -6,-1.1 -6.9,-1.5 0.1,-0.2 0.9,-2 1,-2.2 1,0.5 3,1.3 6,1.3 2.4,-0.1 4.4,-1.7 4.4,-3.6 z m 13.2,-17.9 v 23.4 h -3.5 V 16.7 Z m 23.5,0 v 2.5 h -7.7 v 21 h -3.6 v -21 h -7.7 v -2.5 z m 8.2,2.4 v 7.6 h 8.3 v 2.5 h -8.3 v 8.4 H 315 v 2.5 H 301 V 16.7 h 14 v 2.5 h -10.4 z m 6.9,-10.3 1.4,2.1 -6,3.3 -0.8,-1.3 z m -84.6,40.6 v 0.2 c 5,1.9 2.3,8.3 0.1,13.8 L 216,91.2 199.9,49.4 h -10.7 v 0.2 c 3.1,2.4 4.8,7.1 6.3,11.1 l 15.3,39.6 h 7.7 L 239,49.4 Z M 315,92.7 c -3,1.4 -6.2,2 -9.9,2 h -11 V 49.4 h -11.9 v 0.2 c 3.7,1.3 3.6,7.1 3.6,10.7 V 100 c -4,-2 -6,-6.6 -7.9,-11 L 261.1,49.3 h -12.8 v 0.2 c 3.8,1.1 2.4,4.4 1.2,7.2 L 236,89 c -1.8,4.4 -3.8,9 -7.9,11 v 0.2 h 10.1 l 5.2,-13.5 h 24.8 l 5.4,13.5 H 315 Z M 245.8,81.2 255.9,56 266.2,81.2 Z m -52.1,7.9 -16.8,-39.7 h -12.8 v 0.2 c 3.8,1.1 2.4,4.4 1.2,7.2 l -13.5,32.3 c -0.7,1.6 -1.4,3.2 -2.1,4.7 -1.9,0.6 -4,0.9 -6.2,0.9 h -11 V 49.4 h -11.9 v 0.2 c 3.7,1.3 3.6,7.1 3.6,10.7 v 40 h 29.9 l 5.2,-13.5 h 24.8 l 5.3,13.5 h 12.2 v -0.2 c -4.2,-2.1 -6,-6.6 -7.9,-11 z M 161.4,81.2 171.5,56 181.8,81.2 Z" />
    <path fill="#eb212e" id="red-fill" style="display:block"
        d="m 2.4,2.4 h 39.7 v 47 H 2.4 Z m 0,65.2 v 33.8 c 0,7.6 5.9,13.1 12.9,13.1 h 24.1 c 0.9,0 1.8,0.1 2.7,0.4 V 67.6 Z M 60.3,2.4 H 100 v 47 H 60.3 Z m 0,112.5 c 0.9,-0.3 1.9,-0.4 2.7,-0.4 h 24.1 c 7,0 12.9,-5.5 12.9,-13.1 V 67.6 H 60.3 Z" />
    <path fill="#ffc103" id="yellow-fill" style="display:block"
        d="M 60.3,49.4 V 2.4 H 42.1 v 47 H 2.4 v 18.2 h 39.7 v 47.3 c 3.4,1 7.1,3.8 9.1,9.5 2,-5.7 5.6,-8.6 9.1,-9.5 V 67.6 H 100 V 49.4 Z" />
    <path fill="#000000" id="items-outline" style="display:block"
        d="m 17.1,21.8 c 0.1,0.3 -0.1,0.5 -0.3,0.6 -0.4,0.2 -1.6,0.3 -2.1,0.1 0,0 -0.6,1.1 -1.5,1.1 -0.9,0 -1.5,-1.1 -1.5,-1.1 C 11.2,22.6 10,22.6 9.6,22.4 9.4,22.3 9.2,22 9.3,21.8 c 0.3,-1 1.1,-4.1 1.3,-5.2 L 9,17.2 C 8.7,18.4 7.9,20.4 6.4,20.5 6.2,20.5 5.9,20.4 5.9,20.2 6.1,18.5 7.1,11 7.2,10.2 7.3,9.6 7.5,9.3 8,9.1 c 0.5,-0.2 0.9,0 1.4,0.4 0.4,0.4 1.9,1.7 1.9,1.7 0,0 0.2,-1.2 0.2,-1.6 h -0.4 c -0.2,0 -0.4,-0.2 -0.4,-0.4 l 0.2,-1.5 c 0,-0.2 0.1,-0.3 0.2,-0.3 0,0 0.6,-0.3 1.2,-0.5 0.5,-0.2 0.9,-0.2 0.9,-0.2 0.4,0 0.8,0.1 1,0.3 0.3,0.2 0.5,0.6 0.5,1 l 0.3,3.2 c 0,0 1.5,-1.4 1.9,-1.7 0.5,-0.5 0.9,-0.6 1.4,-0.4 0.5,0.2 0.7,0.5 0.8,1.2 0.1,0.7 1.1,8.3 1.3,10 0,0.2 -0.3,0.3 -0.5,0.3 -1.5,-0.1 -2.3,-2.1 -2.6,-3.3 l -1.6,-0.6 c 0.3,1 1.1,4.2 1.4,5.1 z m 18.2,0 c 0.1,0.3 -0.1,0.5 -0.3,0.6 -0.4,0.2 -1.6,0.3 -2.1,0.1 0,0 -0.6,1.1 -1.5,1.1 -0.9,0 -1.5,-1.1 -1.5,-1.1 -0.5,0.1 -1.7,0.1 -2.1,-0.1 -0.2,-0.1 -0.4,-0.4 -0.3,-0.6 0.3,-1 1.1,-4.1 1.3,-5.2 l -1.6,0.6 c -0.3,1.2 -1.1,3.2 -2.6,3.3 -0.2,0 -0.5,-0.1 -0.5,-0.3 0.2,-1.7 1.2,-9.2 1.3,-10 0.1,-0.7 0.3,-1.1 0.8,-1.2 0.5,-0.2 0.9,0 1.4,0.4 0.4,0.4 1.9,1.7 1.9,1.7 0,0 0.2,-1.2 0.2,-1.6 h -0.4 c -0.2,0 -0.4,-0.2 -0.4,-0.4 l 0.2,-1.5 c 0,-0.2 0.1,-0.3 0.2,-0.3 0,0 0.6,-0.3 1.2,-0.5 0.5,-0.2 0.9,-0.2 0.9,-0.2 0.4,0 0.8,0.1 1,0.3 0.3,0.2 0.5,0.6 0.5,1 l 0.3,3.2 c 0,0 1.5,-1.4 1.9,-1.7 0.5,-0.5 0.9,-0.6 1.4,-0.4 0.5,0.2 0.7,0.5 0.8,1.2 0.1,0.7 1.1,8.3 1.3,10 0,0.2 -0.3,0.3 -0.5,0.3 -1.5,-0.1 -2.3,-2.1 -2.6,-3.3 l -1.6,-0.6 c 0.3,1.1 1.1,4.3 1.4,5.2 z M 17.1,43.3 c 0.1,0.3 -0.1,0.5 -0.3,0.6 -0.4,0.2 -1.6,0.3 -2.1,0.1 0,0 -0.6,1.1 -1.5,1.1 C 12.3,45.1 11.7,44 11.7,44 11.2,44.2 10,44.1 9.6,43.9 9.4,43.8 9.2,43.6 9.3,43.3 c 0.3,-1 1.1,-4.1 1.3,-5.2 L 9,38.7 C 8.7,39.9 7.9,41.9 6.4,42 6.2,42 5.9,41.9 5.9,41.7 6.1,40 7.1,32.5 7.2,31.7 7.3,31 7.5,30.6 8,30.5 c 0.5,-0.2 0.9,0 1.4,0.4 0.4,0.4 1.9,1.7 1.9,1.7 0,0 0.2,-1.2 0.2,-1.6 h -0.4 c -0.2,0 -0.4,-0.2 -0.4,-0.4 l 0.2,-1.5 c 0,-0.2 0.1,-0.3 0.2,-0.4 0,0 0.6,-0.3 1.2,-0.5 0.5,-0.2 0.9,-0.2 0.9,-0.2 0.4,0 0.8,0.1 1,0.3 0.3,0.2 0.5,0.6 0.5,1 l 0.3,3.2 c 0,0 1.5,-1.4 1.9,-1.7 0.5,-0.5 0.9,-0.6 1.4,-0.4 0.5,0.2 0.7,0.5 0.8,1.2 0.1,0.7 1.1,8.3 1.3,10 0,0.2 -0.3,0.3 -0.5,0.3 -1.5,-0.1 -2.3,-2.1 -2.6,-3.3 L 15.7,38 c 0.3,1.2 1.1,4.3 1.4,5.3 z m 18.2,0 c 0.1,0.3 -0.1,0.5 -0.3,0.6 -0.4,0.2 -1.6,0.3 -2.1,0.1 0,0 -0.6,1.1 -1.5,1.1 -0.9,0 -1.5,-1.1 -1.5,-1.1 -0.5,0.2 -1.7,0.1 -2.1,-0.1 -0.2,-0.1 -0.4,-0.3 -0.3,-0.6 0.3,-1 1.1,-4.1 1.3,-5.2 l -1.6,0.6 c -0.3,1.2 -1.1,3.2 -2.6,3.3 -0.2,0 -0.5,-0.1 -0.5,-0.3 0.2,-1.7 1.2,-9.2 1.3,-10 0.1,-0.7 0.3,-1.1 0.8,-1.2 0.5,-0.2 0.9,0 1.4,0.4 0.4,0.4 1.9,1.7 1.9,1.7 0,0 0.2,-1.2 0.2,-1.6 h -0.4 c -0.2,0 -0.4,-0.2 -0.4,-0.4 l 0.2,-1.5 c 0,-0.2 0.1,-0.3 0.2,-0.4 0,0 0.6,-0.3 1.2,-0.5 C 31,28 31.4,28 31.4,28 c 0.4,0 0.8,0.1 1,0.3 0.3,0.2 0.5,0.6 0.5,1 l 0.3,3.2 c 0,0 1.5,-1.4 1.9,-1.7 0.5,-0.5 0.9,-0.6 1.4,-0.4 0.5,0.2 0.7,0.5 0.8,1.2 0.1,0.7 1.1,8.3 1.3,10 0,0.2 -0.3,0.3 -0.5,0.3 -1.5,-0.1 -2.3,-2.1 -2.6,-3.3 L 33.9,38 c 0.3,1.2 1.1,4.3 1.4,5.3 z M 75,21.8 c 0.1,0.3 -0.1,0.5 -0.3,0.6 -0.4,0.2 -1.6,0.3 -2.1,0.1 0,0 -0.6,1.1 -1.5,1.1 -0.9,0 -1.5,-1.1 -1.5,-1.1 -0.5,0.1 -1.7,0.1 -2.1,-0.1 -0.2,-0.1 -0.4,-0.4 -0.3,-0.6 0.3,-1 1.1,-4.1 1.3,-5.2 l -1.6,0.6 c -0.3,1.2 -1.1,3.2 -2.6,3.3 -0.2,0 -0.5,-0.1 -0.5,-0.3 0.2,-1.7 1.2,-9.2 1.3,-10 0.1,-0.7 0.3,-1.1 0.8,-1.2 0.5,-0.2 0.9,0 1.4,0.4 0.4,0.4 1.9,1.7 1.9,1.7 0,0 0.2,-1.2 0.2,-1.6 H 69 c -0.2,0 -0.4,-0.2 -0.4,-0.4 l 0.2,-1.5 c 0,-0.2 0.1,-0.3 0.2,-0.3 0,0 0.6,-0.3 1.2,-0.5 0.5,-0.2 0.9,-0.2 0.9,-0.2 0.4,0 0.8,0.1 1,0.3 0.3,0.2 0.5,0.6 0.5,1 l 0.3,3.2 c 0,0 1.5,-1.4 1.9,-1.7 0.5,-0.5 0.9,-0.6 1.4,-0.4 0.5,0.2 0.7,0.5 0.8,1.2 0.1,0.7 1.1,8.3 1.3,10 0,0.2 -0.3,0.3 -0.5,0.3 -1.5,-0.1 -2.3,-2.1 -2.6,-3.3 l -1.6,-0.6 c 0.3,1.1 1.1,4.3 1.4,5.2 z m 18.2,0 c 0.1,0.3 -0.1,0.5 -0.3,0.6 -0.4,0.2 -1.6,0.3 -2.1,0.1 0,0 -0.6,1.1 -1.5,1.1 -0.9,0 -1.5,-1.1 -1.5,-1.1 -0.5,0.1 -1.7,0.1 -2.1,-0.1 -0.2,-0.1 -0.4,-0.4 -0.3,-0.6 0.3,-1 1.1,-4.1 1.3,-5.2 l -1.6,0.6 c -0.3,1.2 -1.1,3.2 -2.6,3.3 -0.2,0 -0.5,-0.1 -0.5,-0.3 0.2,-1.7 1.2,-9.2 1.3,-10 0.1,-0.7 0.3,-1.1 0.8,-1.2 0.5,-0.2 0.9,0 1.4,0.4 0.4,0.4 1.9,1.7 1.9,1.7 0,0 0.2,-1.2 0.2,-1.6 H 87.2 C 87,9.5 86.8,9.3 86.8,9.1 L 87,7.8 c 0,-0.2 0.1,-0.3 0.2,-0.3 0,0 0.6,-0.3 1.2,-0.5 0.5,-0.2 0.9,-0.2 0.9,-0.2 0.4,0 0.8,0.1 1,0.3 0.3,0.2 0.5,0.6 0.5,1 l 0.3,3.2 c 0,0 1.5,-1.4 1.9,-1.7 0.5,-0.5 0.9,-0.6 1.4,-0.4 0.5,0.2 0.7,0.5 0.8,1.2 0.1,0.7 1.1,8.3 1.3,10 0,0.2 -0.3,0.3 -0.5,0.3 -1.5,-0.1 -2.3,-2.1 -2.6,-3.3 l -1.6,-0.6 c 0.3,0.9 1.1,4.1 1.4,5 z M 75,43.3 c 0.1,0.3 -0.1,0.5 -0.3,0.6 -0.4,0.2 -1.6,0.3 -2.1,0.1 0,0 -0.6,1.1 -1.5,1.1 -0.9,0 -1.5,-1.1 -1.5,-1.1 -0.5,0.2 -1.7,0.1 -2.1,-0.1 -0.2,-0.1 -0.4,-0.3 -0.3,-0.6 0.3,-1 1.1,-4.1 1.3,-5.2 l -1.6,0.6 c -0.3,1.2 -1.1,3.2 -2.6,3.3 -0.2,0 -0.5,-0.1 -0.5,-0.3 0.2,-1.7 1.2,-9.2 1.3,-10 0.1,-0.7 0.3,-1.1 0.8,-1.2 0.5,-0.2 0.9,0 1.4,0.4 0.4,0.4 1.9,1.7 1.9,1.7 0,0 0.2,-1.2 0.2,-1.6 H 69 c -0.2,0 -0.4,-0.2 -0.4,-0.4 l 0.2,-1.5 c 0,-0.2 0.1,-0.3 0.2,-0.4 0,0 0.6,-0.3 1.2,-0.5 0.5,-0.2 0.9,-0.2 0.9,-0.2 0.4,0 0.8,0.1 1,0.3 0.3,0.2 0.5,0.6 0.5,1 l 0.3,3.2 c 0,0 1.5,-1.4 1.9,-1.7 0.5,-0.5 0.9,-0.6 1.4,-0.4 0.5,0.2 0.7,0.5 0.8,1.2 0.1,0.7 1.1,8.3 1.3,10 0,0.2 -0.3,0.3 -0.5,0.3 -1.5,-0.1 -2.3,-2.1 -2.6,-3.3 L 73.6,38 c 0.3,1.2 1.1,4.3 1.4,5.3 z m 18.2,0 c 0.1,0.3 -0.1,0.5 -0.3,0.6 -0.4,0.2 -1.6,0.3 -2.1,0.1 0,0 -0.6,1.1 -1.5,1.1 -0.9,0 -1.5,-1.1 -1.5,-1.1 -0.5,0.2 -1.7,0.1 -2.1,-0.1 -0.2,-0.1 -0.4,-0.3 -0.3,-0.6 0.3,-1 1.1,-4.1 1.3,-5.2 l -1.6,0.6 C 84.8,39.9 84,41.9 82.5,42 82.3,42 82,41.9 82,41.7 c 0.2,-1.7 1.2,-9.2 1.3,-10 0.1,-0.7 0.3,-1.1 0.8,-1.2 0.5,-0.2 0.9,0 1.4,0.4 0.4,0.4 1.9,1.7 1.9,1.7 0,0 0.2,-1.2 0.2,-1.6 H 87.2 C 87,31 86.8,30.8 86.8,30.6 L 87,29.1 c 0,-0.2 0.1,-0.3 0.2,-0.4 0,0 0.6,-0.3 1.2,-0.5 0.5,-0.2 0.9,-0.2 0.9,-0.2 0.4,0 0.8,0.1 1,0.3 0.3,0.2 0.5,0.6 0.5,1 l 0.3,3.2 c 0,0 1.5,-1.4 1.9,-1.7 0.5,-0.5 0.9,-0.6 1.4,-0.4 0.5,0.2 0.7,0.5 0.8,1.2 0.1,0.7 1.1,8.3 1.3,10 0,0.2 -0.3,0.3 -0.5,0.3 -1.5,-0.1 -2.3,-2.1 -2.6,-3.3 L 91.8,38 c 0.3,1.2 1.1,4.3 1.4,5.3 z M 17.1,87 c 0.1,0.3 -0.1,0.5 -0.3,0.6 -0.4,0.2 -1.6,0.3 -2.1,0.1 0,0 -0.6,1.1 -1.5,1.1 -0.9,0 -1.5,-1.1 -1.5,-1.1 C 11.2,87.9 10,87.8 9.6,87.6 9.4,87.5 9.2,87.2 9.3,87 9.6,86 10.4,82.9 10.6,81.8 L 9,82.4 c -0.3,1.2 -1.1,3.2 -2.6,3.3 -0.2,0 -0.5,-0.1 -0.5,-0.3 0.2,-1.7 1.2,-9.2 1.3,-10 0.1,-0.7 0.3,-1.1 0.8,-1.2 0.5,-0.2 0.9,0 1.4,0.4 0.4,0.4 1.9,1.7 1.9,1.7 0,0 0.2,-1.2 0.2,-1.6 h -0.4 c -0.2,0 -0.4,-0.2 -0.4,-0.4 l 0.2,-1.5 c 0,-0.2 0.1,-0.3 0.2,-0.3 0,0 0.6,-0.3 1.2,-0.5 0.5,-0.2 0.9,-0.2 0.9,-0.2 0.4,0 0.8,0.1 1,0.3 0.3,0.2 0.5,0.6 0.5,1 l 0.3,3.2 c 0,0 1.5,-1.4 1.9,-1.7 0.5,-0.5 0.9,-0.6 1.4,-0.4 0.5,0.2 0.7,0.5 0.8,1.2 0.1,0.7 1.1,8.3 1.3,10 0,0.2 -0.3,0.3 -0.5,0.3 -1.5,-0.1 -2.3,-2.1 -2.6,-3.3 l -1.6,-0.6 c 0.3,1.1 1.1,4.2 1.4,5.2 z m 18.2,0 c 0.1,0.3 -0.1,0.5 -0.3,0.6 -0.4,0.2 -1.6,0.3 -2.1,0.1 0,0 -0.6,1.1 -1.5,1.1 -0.9,0 -1.5,-1.1 -1.5,-1.1 -0.5,0.2 -1.7,0.1 -2.1,-0.1 -0.2,-0.1 -0.4,-0.4 -0.3,-0.6 0.3,-1 1.1,-4.1 1.3,-5.2 l -1.6,0.6 c -0.3,1.2 -1.1,3.2 -2.6,3.3 -0.2,0 -0.5,-0.1 -0.5,-0.3 0.2,-1.7 1.2,-9.2 1.3,-10 0.1,-0.7 0.3,-1.1 0.8,-1.2 0.5,-0.2 0.9,0 1.4,0.4 0.4,0.4 1.9,1.7 1.9,1.7 0,0 0.2,-1.2 0.2,-1.6 h -0.4 c -0.2,0 -0.4,-0.2 -0.4,-0.4 l 0.2,-1.5 c 0,-0.2 0.1,-0.3 0.2,-0.3 0,0 0.6,-0.3 1.2,-0.5 0.5,-0.2 0.9,-0.2 0.9,-0.2 0.4,0 0.8,0.1 1,0.3 0.3,0.2 0.5,0.6 0.5,1 l 0.3,3.2 c 0,0 1.5,-1.4 1.9,-1.7 0.5,-0.5 0.9,-0.6 1.4,-0.4 0.5,0.2 0.7,0.5 0.8,1.2 0.1,0.7 1.1,8.3 1.3,10 0,0.2 -0.3,0.3 -0.5,0.3 -1.5,-0.1 -2.3,-2.1 -2.6,-3.3 l -1.6,-0.6 c 0.3,1.1 1.1,4.2 1.4,5.2 z m -18.2,21.4 c 0.1,0.3 -0.1,0.5 -0.3,0.6 -0.4,0.2 -1.6,0.3 -2.1,0.1 0,0 -0.6,1.1 -1.5,1.1 -0.9,0 -1.5,-1.1 -1.5,-1.1 -0.5,0.2 -1.7,0.1 -2.1,-0.1 -0.2,-0.1 -0.4,-0.3 -0.3,-0.6 0.3,-1 1.1,-4.1 1.3,-5.2 L 9,103.8 c -0.3,1.2 -1.1,3.2 -2.6,3.3 -0.2,0 -0.5,-0.1 -0.5,-0.3 0.2,-1.7 1.2,-9.2 1.3,-10 0.1,-0.7 0.3,-1.1 0.8,-1.2 0.5,-0.2 0.9,0 1.4,0.4 0.4,0.4 1.9,1.7 1.9,1.7 0,0 0.2,-1.2 0.2,-1.6 h -0.4 c -0.2,0 -0.4,-0.2 -0.4,-0.4 l 0.2,-1.5 c 0,-0.2 0.1,-0.3 0.2,-0.3 0,0 0.6,-0.3 1.2,-0.5 0.5,-0.2 0.9,-0.2 0.9,-0.2 0.4,0 0.8,0.1 1,0.3 0.3,0.2 0.5,0.6 0.5,1 l 0.3,3.2 c 0,0 1.5,-1.4 1.9,-1.7 0.5,-0.5 0.9,-0.6 1.4,-0.4 0.5,0.2 0.7,0.5 0.8,1.2 0.1,0.7 1.1,8.3 1.3,10 0,0.2 -0.3,0.3 -0.5,0.3 -1.5,-0.1 -2.3,-2.1 -2.6,-3.3 l -1.6,-0.6 c 0.3,1.1 1.1,4.2 1.4,5.2 z m 18.2,0 c 0.1,0.3 -0.1,0.5 -0.3,0.6 -0.4,0.2 -1.6,0.3 -2.1,0.1 0,0 -0.6,1.1 -1.5,1.1 -0.9,0 -1.5,-1.1 -1.5,-1.1 -0.5,0.2 -1.7,0.1 -2.1,-0.1 -0.2,-0.1 -0.4,-0.3 -0.3,-0.6 0.3,-1 1.1,-4.1 1.3,-5.2 l -1.6,0.6 c -0.3,1.2 -1.1,3.2 -2.6,3.3 -0.2,0 -0.5,-0.1 -0.5,-0.3 0.2,-1.7 1.2,-9.2 1.3,-10 0.1,-0.7 0.3,-1.1 0.8,-1.2 0.5,-0.2 0.9,0 1.4,0.4 0.4,0.4 1.9,1.7 1.9,1.7 0,0 0.2,-1.2 0.2,-1.6 h -0.4 c -0.2,0 -0.4,-0.2 -0.4,-0.4 l 0.2,-1.5 c 0,-0.2 0.1,-0.3 0.2,-0.3 0,0 0.6,-0.3 1.2,-0.5 0.5,-0.2 0.9,-0.2 0.9,-0.2 0.4,0 0.8,0.1 1,0.3 0.3,0.2 0.5,0.6 0.5,1 l 0.3,3.2 c 0,0 1.5,-1.4 1.9,-1.7 0.5,-0.5 0.9,-0.6 1.4,-0.4 0.5,0.2 0.7,0.5 0.8,1.2 0.1,0.7 1.1,8.3 1.3,10 0,0.2 -0.3,0.3 -0.5,0.3 -1.5,-0.1 -2.3,-2.1 -2.6,-3.3 l -1.6,-0.6 c 0.3,1.1 1.1,4.2 1.4,5.2 z M 75,87 c 0.1,0.3 -0.1,0.5 -0.3,0.6 -0.4,0.2 -1.6,0.3 -2.1,0.1 0,0 -0.6,1.1 -1.5,1.1 -0.9,0 -1.5,-1.1 -1.5,-1.1 -0.5,0.2 -1.7,0.1 -2.1,-0.1 -0.2,-0.1 -0.4,-0.4 -0.3,-0.6 0.3,-1 1.1,-4.1 1.3,-5.2 l -1.6,0.6 c -0.3,1.2 -1.1,3.2 -2.6,3.3 -0.2,0 -0.5,-0.1 -0.5,-0.3 0.2,-1.7 1.2,-9.2 1.3,-10 0.1,-0.7 0.3,-1.1 0.8,-1.2 0.5,-0.2 0.9,0 1.4,0.4 0.4,0.4 1.9,1.7 1.9,1.7 0,0 0.2,-1.2 0.2,-1.6 H 69 c -0.2,0 -0.4,-0.2 -0.4,-0.4 l 0.2,-1.5 c 0,-0.2 0.1,-0.3 0.2,-0.3 0,0 0.6,-0.3 1.2,-0.5 0.5,-0.2 0.9,-0.2 0.9,-0.2 0.4,0 0.8,0.1 1,0.3 0.3,0.2 0.5,0.6 0.5,1 l 0.3,3.2 c 0,0 1.5,-1.4 1.9,-1.7 0.5,-0.5 0.9,-0.6 1.4,-0.4 0.5,0.2 0.7,0.5 0.8,1.2 0.1,0.7 1.1,8.3 1.3,10 0,0.2 -0.3,0.3 -0.5,0.3 -1.5,-0.1 -2.3,-2.1 -2.6,-3.3 l -1.6,-0.6 c 0.3,1.1 1.1,4.2 1.4,5.2 z m 18.2,0 c 0.1,0.3 -0.1,0.5 -0.3,0.6 -0.4,0.2 -1.6,0.3 -2.1,0.1 0,0 -0.6,1.1 -1.5,1.1 -0.9,0 -1.5,-1.1 -1.5,-1.1 -0.5,0.2 -1.7,0.1 -2.1,-0.1 -0.2,-0.1 -0.4,-0.4 -0.3,-0.6 0.3,-1 1.1,-4.1 1.3,-5.2 l -1.6,0.6 c -0.3,1.2 -1.1,3.2 -2.6,3.3 -0.2,0 -0.5,-0.1 -0.5,-0.3 0.2,-1.7 1.2,-9.2 1.3,-10 0.1,-0.7 0.3,-1.1 0.8,-1.2 0.5,-0.2 0.9,0 1.4,0.4 0.4,0.4 1.9,1.7 1.9,1.7 0,0 0.2,-1.2 0.2,-1.6 h -0.4 c -0.2,0 -0.4,-0.2 -0.4,-0.4 L 87,72.8 c 0,-0.2 0.1,-0.3 0.2,-0.3 0,0 0.6,-0.3 1.2,-0.5 0.5,-0.2 0.9,-0.2 0.9,-0.2 0.4,0 0.8,0.1 1,0.3 0.3,0.2 0.5,0.6 0.5,1 l 0.3,3.2 c 0,0 1.5,-1.4 1.9,-1.7 0.5,-0.5 0.9,-0.6 1.4,-0.4 0.5,0.2 0.7,0.5 0.8,1.2 0.1,0.7 1.1,8.3 1.3,10 0,0.2 -0.3,0.3 -0.5,0.3 -1.5,-0.1 -2.3,-2.1 -2.6,-3.3 l -1.6,-0.6 c 0.3,1.1 1.1,4.2 1.4,5.2 z M 75,108.4 c 0.1,0.3 -0.1,0.5 -0.3,0.6 -0.4,0.2 -1.6,0.3 -2.1,0.1 0,0 -0.6,1.1 -1.5,1.1 -0.9,0 -1.5,-1.1 -1.5,-1.1 -0.5,0.2 -1.7,0.1 -2.1,-0.1 -0.2,-0.1 -0.4,-0.3 -0.3,-0.6 0.3,-1 1.1,-4.1 1.3,-5.2 l -1.6,0.6 c -0.3,1.2 -1.1,3.2 -2.6,3.3 -0.2,0 -0.5,-0.1 -0.5,-0.3 0.2,-1.7 1.2,-9.2 1.3,-10 0.1,-0.7 0.3,-1.1 0.8,-1.2 0.5,-0.2 0.9,0 1.4,0.4 0.4,0.4 1.9,1.7 1.9,1.7 0,0 0.2,-1.2 0.2,-1.6 H 69 c -0.2,0 -0.4,-0.2 -0.4,-0.4 l 0.2,-1.5 c 0,-0.2 0.1,-0.3 0.2,-0.3 0,0 0.6,-0.3 1.2,-0.5 0.5,-0.2 0.9,-0.2 0.9,-0.2 0.4,0 0.8,0.1 1,0.3 0.3,0.2 0.5,0.6 0.5,1 l 0.3,3.2 c 0,0 1.5,-1.4 1.9,-1.7 0.5,-0.5 0.9,-0.6 1.4,-0.4 0.5,0.2 0.7,0.5 0.8,1.2 0.1,0.7 1.1,8.3 1.3,10 0,0.2 -0.3,0.3 -0.5,0.3 -1.5,-0.1 -2.3,-2.1 -2.6,-3.3 l -1.6,-0.6 c 0.3,1.1 1.1,4.2 1.4,5.2 z m 18.2,0 c 0.1,0.3 -0.1,0.5 -0.3,0.6 -0.4,0.2 -1.6,0.3 -2.1,0.1 0,0 -0.6,1.1 -1.5,1.1 -0.9,0 -1.5,-1.1 -1.5,-1.1 -0.5,0.2 -1.7,0.1 -2.1,-0.1 -0.2,-0.1 -0.4,-0.3 -0.3,-0.6 0.3,-1 1.1,-4.1 1.3,-5.2 l -1.6,0.6 c -0.3,1.2 -1.1,3.2 -2.6,3.3 -0.2,0 -0.5,-0.1 -0.5,-0.3 0.2,-1.7 1.2,-9.2 1.3,-10 0.1,-0.7 0.3,-1.1 0.8,-1.2 0.5,-0.2 0.9,0 1.4,0.4 0.4,0.4 1.9,1.7 1.9,1.7 0,0 0.2,-1.2 0.2,-1.6 h -0.4 c -0.2,0 -0.4,-0.2 -0.4,-0.4 L 87,94.2 c 0,-0.2 0.1,-0.3 0.2,-0.3 0,0 0.6,-0.3 1.2,-0.5 0.5,-0.2 0.9,-0.2 0.9,-0.2 0.4,0 0.8,0.1 1,0.3 0.3,0.2 0.5,0.6 0.5,1 l 0.3,3.2 c 0,0 1.5,-1.4 1.9,-1.7 0.5,-0.5 0.9,-0.6 1.4,-0.4 0.5,0.2 0.7,0.5 0.8,1.2 0.1,0.7 1.1,8.3 1.3,10 0,0.2 -0.3,0.3 -0.5,0.3 -1.5,-0.1 -2.3,-2.1 -2.6,-3.3 l -1.6,-0.6 c 0.3,1.1 1.1,4.2 1.4,5.2 z m -42,-75.8 c 0.8,0 1.5,-0.4 1.9,-1 0.3,0.2 0.7,0.2 1,0.2 1.1,0 2.1,-0.9 2.2,-2 1.2,0 2.2,-1 2.2,-2.2 0,-0.5 -0.2,-1 -0.5,-1.4 l -2.5,-3 V 22 c 0,-0.6 -0.5,-1.1 -1.1,-1.1 h -1.1 l -1,-1 c -0.3,-0.3 -0.6,-0.4 -1,-0.4 -0.4,0 -0.8,0.2 -1,0.4 l -1,1 h -1.1 c -0.6,0 -1.1,0.5 -1.1,1.1 v 1.2 l -2.5,3 c -0.3,0.4 -0.5,0.9 -0.5,1.4 0,1.2 1,2.2 2.2,2.2 0.1,1.1 1,2 2.2,2 0.4,0 0.7,-0.1 1,-0.2 0.3,0.6 1,1 1.7,1 z m 0,32.6 c 0.8,0 1.5,-0.4 1.9,-1 0.3,0.2 0.7,0.2 1,0.2 1.1,0 2.1,-0.9 2.2,-2 1.2,0 2.2,-1 2.2,-2.2 0,-0.5 -0.2,-1 -0.5,-1.4 l -2.5,-3 V 54.6 C 55.5,54 55,53.5 54.4,53.5 h -1.1 l -1,-1 c -0.3,-0.3 -0.6,-0.4 -1,-0.4 -0.4,0 -0.8,0.2 -1,0.4 l -1,1 h -1.1 c -0.6,0 -1.1,0.5 -1.1,1.1 v 1.2 l -2.5,3 c -0.3,0.4 -0.5,0.9 -0.5,1.4 0,1.2 1,2.2 2.2,2.2 0.1,1.1 1,2 2.2,2 0.4,0 0.7,-0.1 1,-0.2 0.3,0.6 1,1 1.7,1 z m -28.9,0 c 0.8,0 1.5,-0.4 1.9,-1 0.3,0.2 0.7,0.2 1,0.2 1.1,0 2.1,-0.9 2.2,-2 1.2,0 2.2,-1 2.2,-2.2 0,-0.5 -0.2,-1 -0.5,-1.4 l -2.5,-3 v -1.2 c 0,-0.6 -0.5,-1.1 -1.1,-1.1 h -1.1 l -1,-1 c -0.3,-0.3 -0.6,-0.4 -1,-0.4 -0.4,0 -0.8,0.2 -1,0.4 l -1,1 h -1.1 c -0.6,0 -1.1,0.5 -1.1,1.1 v 1.2 l -2.5,3 c -0.3,0.4 -0.5,0.9 -0.5,1.4 0,1.2 1,2.2 2.2,2.2 0.1,1.1 1.1,2 2.2,2 0.4,0 0.7,-0.1 1,-0.2 0.2,0.6 0.9,1 1.7,1 z m 57.9,0 c 0.8,0 1.5,-0.4 1.9,-1 0.3,0.2 0.7,0.2 1,0.2 1.1,0 2.1,-0.9 2.2,-2 1.2,0 2.2,-1 2.2,-2.2 0,-0.5 -0.2,-1 -0.5,-1.4 l -2.5,-3 V 54.6 C 84.5,54 84,53.5 83.4,53.5 h -1.1 l -1,-1 c -0.3,-0.3 -0.6,-0.4 -1,-0.4 -0.4,0 -0.8,0.2 -1,0.4 l -1,1 h -1.1 c -0.6,0 -1.1,0.5 -1.1,1.1 v 1.2 l -2.5,3 c -0.3,0.4 -0.5,0.9 -0.5,1.4 0,1.2 1,2.2 2.2,2.2 0.1,1.1 1.1,2 2.2,2 0.4,0 0.7,-0.1 1,-0.2 0.2,0.6 0.9,1 1.7,1 z m -29,32.5 c 0.8,0 1.5,-0.4 1.9,-1 0.3,0.2 0.7,0.2 1,0.2 1.1,0 2.1,-0.9 2.2,-2 1.2,0 2.2,-1 2.2,-2.2 0,-0.5 -0.2,-1 -0.5,-1.4 l -2.5,-3 V 87.1 C 55.5,86.5 55,86 54.4,86 h -1.1 l -1,-1 c -0.3,-0.3 -0.6,-0.4 -1,-0.4 -0.4,0 -0.8,0.2 -1,0.4 l -1,1 h -1.1 c -0.6,0 -1.1,0.5 -1.1,1.1 v 1.2 l -2.5,3 c -0.3,0.4 -0.5,0.9 -0.5,1.4 0,1.2 1,2.2 2.2,2.2 0.1,1.1 1,2 2.2,2 0.4,0 0.7,-0.1 1,-0.2 0.3,0.6 1,1 1.7,1 z" />
    <path fill="#0099ff" id="blue-items" style="display:block"
        d="m 51.2,31.9 c 0.5,0 1,-0.3 1.2,-0.7 l -0.4,-4 c 0,-0.2 0.1,-0.3 0.3,-0.3 0.2,0 0.3,0.1 0.3,0.2 l 0.7,3.8 c 0.2,0.1 0.5,0.2 0.7,0.2 0.8,0 1.4,-0.6 1.5,-1.4 L 53.9,26 c -0.1,-0.1 0,-0.3 0.2,-0.4 0.1,-0.1 0.3,0 0.4,0.1 l 1.8,3.4 c 0.8,0 1.5,-0.7 1.5,-1.5 0,-0.3 0,-0.6 -0.2,-0.8 L 54.8,23.4 V 22 c 0,-0.2 -0.1,-0.3 -0.3,-0.3 h -1.4 l -1.2,-1.2 c -0.1,-0.1 -0.3,-0.2 -0.5,-0.2 -0.2,0 -0.4,0.1 -0.5,0.2 l -1.2,1.2 H 48.3 C 48.1,21.7 48,21.8 48,22 v 1.5 l -3,3.4 c -0.2,0.2 -0.2,0.5 -0.2,0.8 0,0.8 0.7,1.5 1.5,1.5 l 1.8,-3.4 c 0.1,-0.1 0.2,-0.2 0.4,-0.1 0.1,0.1 0.2,0.2 0.2,0.4 L 47,29.8 c 0.1,0.8 0.7,1.4 1.5,1.4 0.3,0 0.5,-0.1 0.7,-0.2 l 0.7,-3.8 c 0,-0.2 0.2,-0.3 0.3,-0.2 0.2,0 0.3,0.2 0.3,0.3 l -0.4,4 c 0.2,0.3 0.6,0.6 1.1,0.6 z m 0,32.6 c 0.5,0 1,-0.3 1.2,-0.7 l -0.4,-4 c 0,-0.2 0.1,-0.3 0.3,-0.3 0.2,0 0.3,0.1 0.3,0.2 l 0.7,3.8 c 0.2,0.1 0.5,0.2 0.7,0.2 0.8,0 1.4,-0.6 1.5,-1.4 l -1.6,-3.8 c -0.1,-0.1 0,-0.3 0.2,-0.4 0.1,-0.1 0.3,0 0.4,0.1 l 1.8,3.4 c 0.8,0 1.5,-0.7 1.5,-1.5 0,-0.3 0,-0.6 -0.2,-0.8 l -2.8,-3.4 v -1.5 c 0,-0.2 -0.1,-0.3 -0.3,-0.3 H 53.1 L 51.7,53 c -0.1,-0.1 -0.3,-0.2 -0.5,-0.2 -0.2,0 -0.4,0.1 -0.5,0.2 l -1.2,1.2 h -1.4 c -0.2,0 -0.3,0.1 -0.3,0.3 V 56 L 45,59.4 c -0.2,0.2 -0.2,0.5 -0.2,0.8 0,0.8 0.7,1.5 1.5,1.5 l 1.8,-3.4 c 0.1,-0.1 0.2,-0.2 0.4,-0.1 0.1,0.1 0.2,0.2 0.2,0.4 L 47,62.3 c 0.1,0.8 0.7,1.4 1.5,1.4 0.3,0 0.5,-0.1 0.7,-0.2 l 0.7,-3.8 c 0,-0.2 0.2,-0.3 0.3,-0.2 0.2,0 0.3,0.2 0.3,0.3 l -0.4,4 c 0.2,0.3 0.6,0.6 1.1,0.7 z m -28.9,0 c 0.5,0 1,-0.3 1.2,-0.7 l -0.4,-4 c 0,-0.2 0.1,-0.3 0.3,-0.3 0.2,0 0.3,0.1 0.3,0.2 l 0.7,3.8 c 0.2,0.1 0.5,0.2 0.7,0.2 0.8,0 1.4,-0.6 1.5,-1.4 L 25,58.5 c -0.1,-0.1 0,-0.3 0.2,-0.4 0.1,-0.1 0.3,0 0.4,0.1 l 1.8,3.4 c 0.8,0 1.5,-0.7 1.5,-1.5 0,-0.3 0,-0.6 -0.2,-0.8 l -2.8,-3.4 v -1.5 c 0,-0.2 -0.1,-0.3 -0.3,-0.3 H 24.2 L 22.8,53 c -0.1,-0.1 -0.3,-0.2 -0.5,-0.2 -0.2,0 -0.4,0.1 -0.5,0.2 l -1.2,1.2 h -1.4 c -0.2,0 -0.3,0.1 -0.3,0.3 V 56 l -2.8,3.4 c -0.2,0.2 -0.2,0.5 -0.2,0.8 0,0.8 0.7,1.5 1.5,1.5 l 1.8,-3.4 c 0.1,-0.1 0.2,-0.2 0.4,-0.1 0.1,0.1 0.2,0.2 0.2,0.4 L 18,62.3 c 0.1,0.8 0.7,1.4 1.5,1.4 0.3,0 0.5,-0.1 0.7,-0.2 l 0.7,-3.8 c 0,-0.2 0.2,-0.3 0.3,-0.2 0.2,0 0.3,0.2 0.3,0.3 l -0.4,4 c 0.2,0.3 0.7,0.6 1.2,0.7 z m 57.9,0 c 0.5,0 1,-0.3 1.2,-0.7 l -0.4,-4 c 0,-0.2 0.1,-0.3 0.3,-0.3 0.2,0 0.3,0.1 0.3,0.2 l 0.7,3.8 c 0.2,0.1 0.5,0.2 0.7,0.2 0.8,0 1.4,-0.6 1.5,-1.4 l -1.6,-3.8 c -0.1,-0.1 0,-0.3 0.2,-0.4 0.1,-0.1 0.3,0 0.4,0.1 l 1.8,3.4 c 0.8,0 1.5,-0.7 1.5,-1.5 0,-0.3 0,-0.6 -0.2,-0.8 l -2.8,-3.4 v -1.5 c 0,-0.2 -0.1,-0.3 -0.3,-0.3 H 82.1 L 80.7,53 c -0.1,-0.1 -0.3,-0.2 -0.5,-0.2 -0.2,0 -0.4,0.1 -0.5,0.2 l -1.2,1.2 h -1.4 c -0.2,0 -0.3,0.1 -0.3,0.3 V 56 L 74,59.4 c -0.2,0.2 -0.2,0.5 -0.2,0.8 0,0.8 0.7,1.5 1.5,1.5 l 1.8,-3.4 c 0.1,-0.1 0.2,-0.2 0.4,-0.1 0.1,0.1 0.2,0.2 0.2,0.4 l -1.6,3.8 c 0.1,0.8 0.7,1.4 1.5,1.4 0.3,0 0.5,-0.1 0.7,-0.2 L 79,59.8 c 0,-0.2 0.2,-0.3 0.3,-0.2 0.2,0 0.3,0.2 0.3,0.3 l -0.4,4 c 0,0.2 0.5,0.5 1,0.6 z M 51.2,97 c 0.5,0 1,-0.3 1.2,-0.7 l -0.4,-4 c 0,-0.2 0.1,-0.3 0.3,-0.3 0.2,0 0.3,0.1 0.3,0.2 l 0.7,3.8 c 0.2,0.1 0.5,0.2 0.7,0.2 0.8,0 1.4,-0.6 1.5,-1.4 L 53.9,91 c -0.1,-0.1 0,-0.3 0.2,-0.4 0.1,-0.1 0.3,0 0.4,0.1 l 1.8,3.4 c 0.8,0 1.5,-0.7 1.5,-1.5 0,-0.3 0,-0.6 -0.2,-0.8 l -2.8,-3.4 v -1.5 c 0,-0.2 -0.1,-0.3 -0.3,-0.3 h -1.4 l -1.2,-1.2 c -0.1,-0.1 -0.3,-0.2 -0.5,-0.2 -0.2,0 -0.4,0.1 -0.5,0.2 l -1.2,1.2 h -1.4 c -0.2,0 -0.3,0.1 -0.3,0.3 v 1.5 L 45,92 c -0.2,0.2 -0.2,0.5 -0.2,0.8 0,0.8 0.7,1.5 1.5,1.5 l 1.8,-3.4 c 0.1,-0.1 0.2,-0.2 0.4,-0.1 0.1,0.1 0.2,0.2 0.2,0.4 L 47,94.9 c 0.1,0.8 0.7,1.4 1.5,1.4 0.3,0 0.5,-0.1 0.7,-0.2 l 0.7,-3.8 c 0,-0.2 0.2,-0.3 0.3,-0.2 0.2,0 0.3,0.2 0.3,0.3 l -0.4,4 c 0.2,0.3 0.6,0.6 1.1,0.6 z" />
    <path fill="#D9D9D9" id="grey-items" style="display:block"
        d="M16.3 21.8c-.3.1-.8.2-1.1.2H15l-.7-3c-.1-.5-.5-.5-.5.1l.3 3c-.1.2-.5.9-.9.9s-.9-.7-.9-.9l.3-3c.1-.6-.4-.6-.5-.1l-.6 2.9h-.2c-.3 0-.9 0-1.1-.1.4-1.5 1.2-4.7 1.5-5.7 0-.2-.1-.4-.4-.4h-.2c-.4.1-1.4.5-1.8.7l.2-2.4c.1-.6-.4-.6-.5-.1-.5 2.1-.7 4.9-2.2 5.8.1-1 1.1-8.4 1.2-9.4 0-.2 0-.4.3-.5.2-.1.4 0 .5.2l2.5 2.3c.1.1.3.2.4.1.1 0 .3-.2.3-.3l.3-2.8c0-.1 0-.2-.1-.3-.1-.1-.2-.1-.3-.1h-.4l.1-.9c.3-.1 1-.5 1.4-.5h.1c.2 0 .4.1.6.2.2.1.3.2.3.4l.4 4c0 .2.1.3.3.3.1 0 .3 0 .4-.1l2.5-2.3c.2-.2.3-.2.5-.2.3.1.3.3.3.5.1 1 1.1 8.4 1.2 9.4-1.5-.9-1.8-3.7-2.2-5.8-.1-.5-.6-.5-.5.1l.2 2.4c-.3-.1-1.4-.5-1.8-.7h-.2c-.3 0-.4.3-.4.4.4 1 1.2 4.3 1.6 5.7zM34.5 21.8c-.3.1-.9.1-1.1.1h-.2l-.7-2.9c-.1-.5-.5-.5-.5.1l.3 3c-.1.2-.5.9-.9.9s-.9-.7-.9-.9l.3-3c.1-.6-.4-.6-.5-.1l-.6 2.9h-.2c-.3 0-.9 0-1.1-.1.4-1.5 1.2-4.7 1.5-5.7 0-.2-.1-.4-.4-.4h-.2c-.4.1-1.4.5-1.8.7l.2-2.4c0-.6-.4-.6-.5-.1-.5 2.1-.7 4.9-2.2 5.8.1-1 1.1-8.4 1.2-9.4 0-.2 0-.4.3-.5.2-.1.4 0 .5.2l2.5 2.3c.1.1.3.2.4.1.1 0 .3-.2.3-.3l.3-2.8c0-.1 0-.2-.1-.3-.1-.1-.2-.1-.3-.1h-.4l.1-.9c.3-.1 1-.5 1.4-.5h.1c.2 0 .4.1.6.2.2.1.2.3.3.5l.4 4c0 .2.1.3.3.3.1 0 .3 0 .4-.1l2.5-2.3c.2-.2.3-.2.5-.2.3.1.3.3.3.5.1 1 1.1 8.4 1.2 9.4-1.5-.9-1.8-3.7-2.2-5.8-.1-.5-.6-.5-.5.1l.2 2.4c-.3-.1-1.4-.5-1.8-.7h-.2c-.3 0-.4.3-.4.4.4.9 1.2 4.2 1.6 5.6zM16.3 43.3c-.3.1-.9.1-1.1.1H15l-.6-2.9c-.1-.5-.5-.5-.5.1l.3 3c-.1.2-.5.9-.9.9s-.9-.7-.9-.9l.3-3c.1-.6-.4-.6-.5-.1l-.6 2.9h-.2c-.3 0-.9 0-1.1-.1.4-1.5 1.2-4.7 1.5-5.7 0-.2-.1-.4-.4-.4h-.2c-.4.1-1.4.5-1.8.7l.2-2.4c.1-.6-.4-.6-.5-.1-.5 2.1-.7 4.9-2.2 5.8.1-1 1.1-8.4 1.2-9.4 0-.2 0-.4.3-.5.2-.1.4 0 .5.2l2.5 2.3c.1.1.3.2.4.1.1 0 .3-.2.3-.3l.3-2.8c0-.1 0-.2-.1-.3-.1-.1-.2-.1-.3-.1h-.4l.1-.9c.3-.1 1-.5 1.4-.5h.1c.2 0 .4.1.6.2.2.1.2.3.3.5l.4 4c0 .2.1.3.3.3.1 0 .3 0 .4-.1l2.5-2.3c.2-.2.3-.2.5-.2.3.1.3.3.3.5.1 1 1.1 8.4 1.2 9.4-1.5-.9-1.8-3.7-2.2-5.8-.1-.5-.6-.5-.5.1l.2 2.4c-.3-.1-1.4-.5-1.8-.7h-.2c-.3 0-.4.3-.4.4.3.9 1.1 4.1 1.5 5.6zM34.5 43.3c-.3.1-.9.1-1.1.1h-.2l-.6-2.9c-.2-.6-.6-.5-.6.1l.3 3c-.1.2-.5.9-.9.9s-.9-.7-.9-.9l.3-3c.1-.6-.4-.6-.5-.1l-.6 2.9h-.2c-.3 0-.9 0-1.1-.1.4-1.5 1.2-4.7 1.5-5.7 0-.2-.1-.4-.4-.4h-.2c-.4.1-1.4.5-1.8.7l.2-2.4c0-.6-.4-.6-.5-.1-.5 2.1-.7 4.9-2.2 5.8.1-1 1.1-8.4 1.2-9.4 0-.2 0-.4.3-.5.2-.1.4 0 .5.2l2.5 2.3c.1.1.3.2.4.1.1 0 .3-.2.3-.3l.3-2.8c0-.1 0-.2-.1-.3-.1-.1-.2-.1-.3-.1h-.4l.1-.9c.3-.1 1-.5 1.4-.5h.1c.2 0 .4.1.6.2.2.1.2.3.3.5l.4 4c0 .2.1.3.3.3.1 0 .3 0 .4-.1l2.5-2.3c.2-.2.3-.2.5-.2.3.1.3.3.3.5.1 1 1.1 8.4 1.2 9.4-1.5-.9-1.8-3.7-2.2-5.8-.1-.5-.6-.5-.5.1l.2 2.4c-.3-.1-1.4-.5-1.8-.7h-.2c-.3 0-.4.3-.4.4.4.9 1.2 4.1 1.6 5.6zM74.2 21.8c-.3.1-.9.2-1.2.2h-.2l-.6-3c-.1-.5-.5-.5-.5.1l.3 3c-.1.2-.5.9-.9.9s-.9-.7-.9-.9l.3-3c.1-.6-.4-.6-.5-.1l-.6 2.9h-.2c-.3 0-.9 0-1.1-.1.4-1.5 1.2-4.7 1.5-5.7 0-.2-.1-.4-.4-.4H69c-.4.1-1.4.5-1.8.7l.2-2.4c0-.6-.4-.6-.5-.1-.5 2.1-.7 4.9-2.2 5.8.1-1 1.1-8.4 1.2-9.4 0-.2 0-.4.3-.5.2-.1.4 0 .5.2l2.5 2.3c.1.1.3.2.4.1.1 0 .3-.2.3-.3l.3-2.8c0-.1 0-.2-.1-.3-.1-.1-.2-.1-.3-.1h-.4l.1-.9c.3-.1 1-.5 1.4-.5h.1c.2 0 .4.1.6.2.2.1.2.3.3.5l.4 4c0 .2.1.3.3.3.2 0 .3 0 .4-.1l2.5-2.3c.2-.2.3-.2.5-.2.3.1.3.3.3.5.1 1 1.1 8.4 1.2 9.4-1.5-.9-1.8-3.7-2.2-5.8-.1-.5-.6-.5-.5.1l.2 2.4c-.3-.1-1.4-.5-1.8-.7H73c-.3 0-.4.3-.4.4.3.9 1.2 4.2 1.6 5.6zM92.4 21.8c-.3.1-.9.1-1.1.1h-.2l-.7-2.9c-.1-.5-.5-.5-.5.1l.3 3c-.1.2-.5.9-.9.9s-.9-.7-.9-.9l.3-3c.1-.6-.4-.6-.5-.1l-.6 2.9h-.2c-.3 0-.9 0-1.1-.1.4-1.5 1.2-4.7 1.5-5.7 0-.2-.1-.4-.4-.4h-.2c-.4.1-1.4.5-1.8.7l.2-2.4c.1-.6-.4-.6-.5-.1-.5 2.1-.7 4.9-2.2 5.8.1-1 1.1-8.4 1.2-9.4 0-.2 0-.4.3-.5.2-.1.4 0 .5.2l2.5 2.3c.1.1.3.2.4.1.1 0 .3-.2.3-.3l.3-2.8c0-.1 0-.2-.1-.3-.1-.1-.2-.1-.3-.1h-.4l.1-.9c.3-.1 1-.5 1.4-.5h.1c.2 0 .4.1.6.2.2.1.2.3.3.5l.4 4c0 .2.1.3.3.3.1 0 .3 0 .4-.1l2.5-2.3c.2-.2.3-.2.5-.2.3.1.3.3.3.5.1 1 1.1 8.4 1.2 9.4-1.5-.9-1.8-3.7-2.2-5.8-.1-.5-.6-.5-.5.1l.2 2.4c-.3-.1-1.4-.5-1.8-.7h-.2c-.3 0-.4.3-.4.4.3.9 1.2 4.2 1.6 5.6zM74.2 43.3c-.3.1-.9.1-1.1.1h-.2l-.6-2.9c-.1-.5-.5-.5-.5.1l.3 3c-.1.2-.5.9-.9.9s-.9-.7-.9-.9l.3-3c.1-.6-.4-.6-.5-.1l-.6 2.9h-.2c-.3 0-.9 0-1.1-.1.4-1.5 1.2-4.7 1.5-5.7 0-.2-.1-.4-.4-.4h-.2c-.4.1-1.4.5-1.8.7l.2-2.4c0-.6-.4-.6-.5-.1-.5 2.1-.7 4.9-2.2 5.8.1-1 1.1-8.4 1.2-9.4 0-.2 0-.4.3-.5.2-.1.4 0 .5.2l2.5 2.3c.1.1.3.2.4.1.1 0 .3-.2.3-.3l.3-2.8c0-.1 0-.2-.1-.3-.1-.1-.2-.1-.3-.1h-.4l.1-.9c.3-.1 1-.5 1.4-.5h.1c.2 0 .4.1.6.2.2.1.2.3.3.5l.4 4c0 .2.1.3.3.3.2 0 .3 0 .4-.1l2.5-2.3c.2-.2.3-.2.5-.2.3.1.3.3.3.5.1 1 1.1 8.4 1.2 9.4-1.5-.9-1.8-3.7-2.2-5.8-.1-.5-.6-.5-.5.1l.2 2.4c-.3-.1-1.4-.5-1.8-.7h-.2c-.3 0-.4.3-.4.4.2.9 1.1 4.1 1.5 5.6zM92.4 43.3c-.3.1-.9.1-1.1.1h-.2l-.6-2.9c-.1-.5-.5-.5-.5.1l.3 3c-.1.2-.5.9-.9.9s-.9-.7-.9-.9l.3-3c.1-.6-.4-.6-.5-.1l-.6 2.9h-.2c-.3 0-.9 0-1.1-.1.4-1.5 1.2-4.7 1.5-5.7 0-.2-.1-.4-.4-.4h-.2c-.4.1-1.4.5-1.8.7l.2-2.4c.1-.6-.4-.6-.5-.1-.5 2.1-.7 4.9-2.2 5.8.1-1 1.1-8.4 1.2-9.4 0-.2 0-.4.3-.5.2-.1.4 0 .5.2l2.5 2.3c.1.1.3.2.4.1.1 0 .3-.2.3-.3l.3-2.8c0-.1 0-.2-.1-.3-.1-.1-.2-.1-.3-.1h-.4l.1-.9c.3-.1 1-.5 1.4-.5h.1c.2 0 .4.1.6.2.2.1.2.3.3.5l.4 4c0 .2.1.3.3.3.1 0 .3 0 .4-.1l2.5-2.3c.2-.2.3-.2.5-.2.3.1.3.3.3.5.1 1 1.1 8.4 1.2 9.4-1.5-.9-1.8-3.7-2.2-5.8-.1-.5-.6-.5-.5.1l.2 2.4c-.3-.1-1.4-.5-1.8-.7h-.2c-.3 0-.4.3-.4.4.2.9 1.1 4.1 1.5 5.6zM16.3 87c-.3.1-.9.1-1.1.1H15l-.6-2.9c-.1-.5-.5-.5-.5.1l.3 2.9c-.1.2-.5.9-.9.9s-.9-.7-.9-.9l.3-2.9c.1-.6-.4-.6-.5-.1l-.7 2.8h-.2c-.3 0-.9 0-1.1-.1.4-1.5 1.2-4.7 1.5-5.7 0-.2-.1-.4-.4-.4h-.2c-.4.1-1.4.5-1.8.7l.2-2.4c0-.6-.4-.6-.5-.1-.5 2.1-.7 4.9-2.2 5.8.1-1 1.1-8.4 1.2-9.4 0-.2 0-.4.3-.5.2-.1.4 0 .5.2l2.5 2.3c.1.1.3.2.4.1.1 0 .3-.2.3-.3l.3-2.8c0-.1 0-.2-.1-.3-.1 0-.2-.1-.3-.1h-.4l.1-.9c.3-.1 1-.5 1.4-.5h.1c.2 0 .4.1.6.2.2.1.2.3.3.5l.4 4c0 .2.1.3.3.3.1 0 .3 0 .4-.1l2.5-2.3c.2-.2.3-.2.5-.2.3.1.3.3.3.5.1 1 1.1 8.4 1.2 9.4-1.5-.9-1.8-3.7-2.2-5.8-.1-.5-.6-.5-.5.1l.2 2.4c-.3-.1-1.4-.5-1.8-.7h-.2c-.3 0-.4.3-.4.4.4 1 1.2 4.2 1.6 5.7zM34.5 87c-.3.1-.9.1-1.1.1h-.2l-.6-2.9c-.1-.5-.5-.5-.5.1l.3 2.9c-.1.2-.5.9-.9.9s-.9-.7-.9-.9l.3-2.9c.1-.6-.4-.6-.5-.1l-.7 2.8h-.2c-.3 0-.9 0-1.1-.1.4-1.5 1.2-4.7 1.5-5.7 0-.2-.1-.4-.4-.4h-.2c-.4.1-1.4.5-1.8.7l.2-2.4c0-.6-.4-.6-.5-.1-.5 2.1-.7 4.9-2.2 5.8.1-1 1.1-8.4 1.2-9.4 0-.2 0-.4.3-.5.2-.1.4 0 .5.2l2.5 2.3c.1.1.3.2.4.1.1 0 .3-.2.3-.3l.3-2.8c0-.1 0-.2-.1-.3-.1-.1-.2-.1-.3-.1h-.4l.1-.9c.3-.1 1-.5 1.4-.5h.1c.2 0 .4.1.6.2.2.1.2.3.3.5l.4 4c0 .2.1.3.3.3.1 0 .3 0 .4-.1l2.5-2.3c.2-.2.3-.2.5-.2.3.1.3.3.3.5.1 1 1.1 8.4 1.2 9.4-1.5-.9-1.8-3.7-2.2-5.8-.1-.5-.6-.5-.5.1l.2 2.4c-.3-.1-1.4-.5-1.8-.7h-.2c-.3 0-.4.3-.4.4.4 1 1.2 4.2 1.6 5.7zM16.3 108.4c-.3.1-.9.1-1.1.1H15l-.6-2.9c-.1-.5-.5-.5-.5.1l.3 2.9c-.1.2-.5.9-.9.9s-.9-.7-.9-.9l.3-2.9c.1-.6-.4-.6-.5-.1l-.6 2.9h-.2c-.3 0-.9 0-1.1-.1.4-1.5 1.2-4.7 1.5-5.7 0-.2-.1-.4-.4-.4h-.2c-.4.1-1.4.5-1.8.7l.2-2.4c.1-.6-.4-.6-.5-.1-.5 2.1-.7 4.9-2.2 5.8.1-1 1.1-8.4 1.2-9.4 0-.2 0-.4.3-.5.2-.1.4 0 .5.2l2.5 2.3c.1.1.3.2.4.1.1 0 .3-.2.3-.3l.3-2.8c0-.1 0-.2-.1-.3-.1-.1-.2-.1-.3-.1h-.4l.1-.9c.3-.1 1-.5 1.4-.5h.1c.2 0 .4.1.6.2.2.1.2.3.3.5l.4 4c0 .2.1.3.3.3.1 0 .3 0 .4-.1l2.5-2.3c.2-.2.3-.2.5-.2.3.1.3.3.3.5.1 1 1.1 8.4 1.2 9.4-1.5-.9-1.8-3.7-2.2-5.8-.1-.5-.6-.5-.5.1l.2 2.4c-.3-.1-1.4-.5-1.8-.7h-.2c-.3 0-.4.3-.4.4.3.9 1.1 4.1 1.5 5.6zM34.5 108.4c-.3.1-.9.1-1.1.1h-.2l-.6-2.9c-.1-.5-.5-.5-.5.1l.3 2.9c-.1.2-.5.9-.9.9s-.9-.7-.9-.9l.3-2.9c.1-.6-.4-.6-.5-.1l-.6 2.9h-.2c-.3 0-.9 0-1.1-.1.4-1.5 1.2-4.7 1.5-5.7 0-.2-.1-.4-.4-.4h-.2c-.4.1-1.4.5-1.8.7l.2-2.4c0-.6-.4-.6-.5-.1-.5 2.1-.7 4.9-2.2 5.8.1-1 1.1-8.4 1.2-9.4 0-.2 0-.4.3-.5.2-.1.4 0 .5.2l2.5 2.3c.1.1.3.2.4.1.1 0 .3-.2.3-.3l.3-2.8c0-.1 0-.2-.1-.3-.1-.1-.2-.1-.3-.1h-.4l.1-.9c.3-.1 1-.5 1.4-.5h.1c.2 0 .4.1.6.2.2.1.2.3.3.5l.4 4c0 .2.1.3.3.3.1 0 .3 0 .4-.1l2.5-2.3c.2-.2.3-.2.5-.2.3.1.3.3.3.5.1 1 1.1 8.4 1.2 9.4-1.5-.9-1.8-3.7-2.2-5.8-.1-.5-.6-.5-.5.1l.2 2.4c-.3-.1-1.4-.5-1.8-.7h-.2c-.3 0-.4.3-.4.4.3.9 1.1 4.1 1.5 5.6zM74.2 87c-.3.1-.9.1-1.1.1h-.2l-.6-2.9c-.1-.5-.5-.5-.5.1l.3 2.9c-.1.2-.5.9-.9.9s-.9-.7-.9-.9l.3-2.9c.1-.6-.4-.6-.5-.1l-.8 2.8h-.2c-.3 0-.9 0-1.1-.1.4-1.5 1.2-4.7 1.5-5.7 0-.2-.1-.4-.4-.4h-.2c-.4.1-1.4.5-1.8.7l.2-2.4c0-.6-.4-.6-.5-.1-.5 2.1-.7 4.9-2.2 5.8.1-1 1.1-8.4 1.2-9.4 0-.2 0-.4.3-.5.2-.1.4 0 .5.2l2.5 2.3c.1.1.3.2.4.1.1 0 .3-.2.3-.3l.3-2.8c0-.1 0-.2-.1-.3 0 0-.1-.1-.2-.1h-.4l.1-.9c.3-.1 1-.5 1.4-.5h.1c.2 0 .4.1.6.2.2.1.2.3.3.5l.4 4c0 .2.1.3.3.3.2 0 .3 0 .4-.1l2.5-2.3c.2-.2.3-.2.5-.2.3.1.3.3.3.5.1 1 1.1 8.4 1.2 9.4-1.5-.9-1.8-3.7-2.2-5.8-.1-.5-.6-.5-.5.1l.2 2.4c-.3-.1-1.4-.5-1.8-.7H73c-.3 0-.4.3-.4.4.3 1 1.2 4.2 1.6 5.7zM92.4 87c-.3.1-.9.1-1.1.1h-.2l-.6-2.9c-.1-.5-.5-.5-.5.1l.3 2.9c-.1.2-.5.9-.9.9s-.9-.7-.9-.9l.3-2.9c.1-.6-.4-.6-.5-.1l-.8 2.8h-.2c-.3 0-.9 0-1.1-.1.4-1.5 1.2-4.7 1.5-5.7 0-.2-.1-.4-.4-.4h-.2c-.4.1-1.4.5-1.8.7l.2-2.4c.1-.6-.4-.6-.5-.1-.5 2.1-.7 4.9-2.2 5.8.1-1 1.1-8.4 1.2-9.4 0-.2 0-.4.3-.5.2-.1.4 0 .5.2l2.5 2.3c.1.1.3.2.4.1.1 0 .3-.2.3-.3l.3-2.8c0-.1 0-.2-.1-.3 0 0-.1-.1-.2-.1h-.4l.1-.9c.3-.1 1-.5 1.4-.5h.1c.2 0 .4.1.6.2.2.1.2.3.3.5l.4 4c0 .2.1.3.3.3.1 0 .3 0 .4-.1l2.5-2.3c.2-.2.3-.2.5-.2.3.1.3.3.3.5.1 1 1.1 8.4 1.2 9.4-1.5-.9-1.8-3.7-2.2-5.8-.1-.5-.6-.5-.5.1l.2 2.4c-.3-.1-1.4-.5-1.8-.7h-.2c-.3 0-.4.3-.4.4.3 1 1.2 4.2 1.6 5.7zM74.2 108.4c-.3.1-.9.1-1.1.1h-.2l-.6-2.9c-.1-.5-.5-.5-.5.1l.3 2.9c-.1.2-.5.9-.9.9s-.9-.7-.9-.9l.3-2.9c.1-.6-.4-.6-.5-.1l-.6 2.9h-.2c-.3 0-.9 0-1.1-.1.4-1.5 1.2-4.7 1.5-5.7 0-.2-.1-.4-.4-.4h-.2c-.4.1-1.4.5-1.8.7l.2-2.4c0-.6-.4-.6-.5-.1-.5 2.1-.7 4.9-2.2 5.8.1-1 1.1-8.4 1.2-9.4 0-.2 0-.4.3-.5.2-.1.4 0 .5.2l2.5 2.3c.1.1.3.2.4.1.1 0 .3-.2.3-.3l.3-2.8c0-.1 0-.2-.1-.3-.1-.1-.2-.1-.3-.1h-.4l.1-.9c.3-.1 1-.5 1.4-.5h.1c.2 0 .4.1.6.2.2.1.2.3.3.5l.4 4c0 .2.1.3.3.3.2 0 .3 0 .4-.1l2.5-2.3c.2-.2.3-.2.5-.2.3.1.3.3.3.5.1 1 1.1 8.4 1.2 9.4-1.5-.9-1.8-3.7-2.2-5.8-.1-.5-.6-.5-.5.1l.2 2.4c-.3-.1-1.4-.5-1.8-.7h-.2c-.3 0-.4.3-.4.4.2.9 1.1 4.1 1.5 5.6zM92.4 108.4c-.3.1-.9.1-1.1.1h-.2l-.6-2.9c-.1-.5-.5-.5-.5.1l.3 2.9c-.1.2-.5.9-.9.9s-.9-.7-.9-.9l.3-2.9c.1-.6-.4-.6-.5-.1l-.6 2.9h-.2c-.3 0-.9 0-1.1-.1.4-1.5 1.2-4.7 1.5-5.7 0-.2-.1-.4-.4-.4h-.2c-.4.1-1.4.5-1.8.7l.2-2.4c.1-.6-.4-.6-.5-.1-.5 2.1-.7 4.9-2.2 5.8.1-1 1.1-8.4 1.2-9.4 0-.2 0-.4.3-.5.2-.1.4 0 .5.2l2.5 2.3c.1.1.3.2.4.1.1 0 .3-.2.3-.3l.3-2.8c0-.1 0-.2-.1-.3-.1-.1-.2-.1-.3-.1h-.4l.1-.9c.3-.1 1-.5 1.4-.5h.1c.2 0 .4.1.6.2.2.1.2.3.3.5l.4 4c0 .2.1.3.3.3.1 0 .3 0 .4-.1l2.5-2.3c.2-.2.3-.2.5-.2.3.1.3.3.3.5.1 1 1.1 8.4 1.2 9.4-1.5-.9-1.8-3.7-2.2-5.8-.1-.5-.6-.5-.5.1l.2 2.4c-.3-.1-1.4-.5-1.8-.7h-.2c-.3 0-.4.3-.4.4.2.9 1.1 4.1 1.5 5.6z" />
</svg>